SplineFontDB: 3.0
FontName: Ubuntu-Italic
FullName: Ubuntu Italic
FamilyName: Ubuntu
Weight: Book
Copyright: Copyright 2011 Canonical Ltd.  Licensed under the Ubuntu Font Licence 1.0
Version: 0.80
ItalicAngle: -13
UnderlinePosition: -84
UnderlineWidth: 79
Ascent: 800
Descent: 200
sfntRevision: 0x0000cccc
LayerCount: 2
Layer: 0 1 "Back"  1
Layer: 1 1 "Fore"  0
NeedsXUIDChange: 1
XUID: [1021 983 1269798620 13680963]
FSType: 0
OS2Version: 3
OS2_WeightWidthSlopeOnly: 0
OS2_UseTypoMetrics: 1
CreationTime: 1298466264
ModificationTime: 1341578698
PfmFamily: 17
TTFWeight: 400
TTFWidth: 5
LineGap: 28
VLineGap: 0
Panose: 2 11 5 4 3 6 2 10 2 4
OS2TypoAscent: -24
OS2TypoAOffset: 1
OS2TypoDescent: 15
OS2TypoDOffset: 1
OS2TypoLinegap: 56
OS2WinAscent: -30
OS2WinAOffset: 1
OS2WinDescent: -1
OS2WinDOffset: 1
HheadAscent: -30
HheadAOffset: 1
HheadDescent: 1
HheadDOffset: 1
OS2SubXSize: 700
OS2SubYSize: 650
OS2SubXOff: 0
OS2SubYOff: 140
OS2SupXSize: 700
OS2SupYSize: 650
OS2SupXOff: 0
OS2SupYOff: 477
OS2StrikeYSize: 79
OS2StrikeYPos: 250
OS2Vendor: 'DAMA'
OS2CodePages: 2000009f.56010000
OS2UnicodeRanges: e00002ff.5000205b.00000000.00000000
Lookup: 1 0 0 "'locl' Localized Forms in Latin lookup 0"  {"'locl' Localized Forms in Latin lookup 0 subtable"  } ['locl' ('latn' <'AZE ' > ) ]
Lookup: 1 0 0 "'locl' Localized Forms in Latin lookup 1"  {"'locl' Localized Forms in Latin lookup 1 subtable"  } ['locl' ('latn' <'TRK ' > ) ]
Lookup: 1 0 0 "'locl' Localized Forms in Latin lookup 2"  {"'locl' Localized Forms in Latin lookup 2 subtable"  } ['locl' ('latn' <'CRT ' > ) ]
Lookup: 1 0 0 "'locl' Localized Forms in Cyrillic lookup 3"  {"'locl' Localized Forms in Cyrillic lookup 3 subtable"  } ['locl' ('cyrl' <'SRB ' > ) ]
Lookup: 1 0 0 "'locl' Localized Forms in Cyrillic lookup 4"  {"'locl' Localized Forms in Cyrillic lookup 4 subtable"  } ['locl' ('cyrl' <'BGR ' > ) ]

StartChar: .notdef
Encoding: 65536 -1 0
Width: 500
Flags: W
LayerCount: 2
Fore
SplineSet
50 0 m 1,0,-1
 50 750 l 1,1,-1
 450 750 l 1,2,-1
 450 0 l 1,3,-1
 50 0 l 1,0,-1
400 50 m 1,4,-1
 400 700 l 1,5,-1
 100 700 l 1,6,-1
 100 50 l 1,7,-1
 400 50 l 1,4,-1
EndSplineSet
EndChar

StartChar: exclam
Encoding: 33 33 4
Width: 250
Flags: W
LayerCount: 2
Fore
SplineSet
338 693 m 1,0,-1
 293 504 l 2,1,2
 287 480 287 480 276.5 441.5 c 128,-1,3
 266 403 266 403 253.5 362 c 128,-1,4
 241 321 241 321 227.5 281.5 c 128,-1,5
 214 242 214 242 203 216 c 1,6,-1
 146 216 l 1,7,8
 154 284 154 284 164.5 352.5 c 128,-1,9
 175 421 175 421 195 505 c 2,10,-1
 240 693 l 1,11,-1
 338 693 l 1,0,-1
133 -13 m 0,12,13
 105 -13 105 -13 89 2 c 128,-1,14
 73 17 73 17 73 46 c 0,15,16
 73 82 73 82 94.5 101.5 c 128,-1,17
 116 121 116 121 144 121 c 256,18,19
 172 121 172 121 188.5 105.5 c 128,-1,20
 205 90 205 90 205 60 c 0,21,22
 205 43 205 43 198.5 29.5 c 128,-1,23
 192 16 192 16 182 6.5 c 128,-1,24
 172 -3 172 -3 159 -8 c 128,-1,25
 146 -13 146 -13 133 -13 c 0,12,13
EndSplineSet
EndChar

StartChar: numbersign
Encoding: 35 35 6
Width: 654
Flags: W
LayerCount: 2
Fore
SplineSet
402 510 m 1,0,-1
 559 510 l 1,1,-1
 637 693 l 1,2,-1
 721 693 l 1,3,-1
 643 510 l 1,4,-1
 727 510 l 1,5,-1
 709 436 l 1,6,-1
 612 436 l 1,7,-1
 534 257 l 1,8,-1
 666 257 l 1,9,-1
 648 183 l 1,10,-1
 503 183 l 1,11,-1
 425 0 l 1,12,-1
 341 0 l 1,13,-1
 418 183 l 1,14,-1
 262 183 l 1,15,-1
 184 0 l 1,16,-1
 100 0 l 1,17,-1
 177 183 l 1,18,-1
 91 183 l 1,19,-1
 109 257 l 1,20,-1
 209 257 l 1,21,-1
 286 436 l 1,22,-1
 152 436 l 1,23,-1
 170 510 l 1,24,-1
 317 510 l 1,25,-1
 396 693 l 1,26,-1
 480 693 l 1,27,-1
 402 510 l 1,0,-1
293 257 m 1,28,-1
 450 257 l 1,29,-1
 528 436 l 1,30,-1
 371 436 l 1,31,-1
 293 257 l 1,28,-1
EndSplineSet
EndChar

StartChar: dollar
Encoding: 36 36 7
Width: 564
Flags: W
LayerCount: 2
Fore
SplineSet
277 96 m 0,0,1
 306 96 306 96 335 101.5 c 128,-1,2
 364 107 364 107 387 120 c 128,-1,3
 410 133 410 133 424 154.5 c 128,-1,4
 438 176 438 176 438 208 c 0,5,6
 438 230 438 230 429.5 246 c 128,-1,7
 421 262 421 262 405.5 275 c 128,-1,8
 390 288 390 288 368.5 298.5 c 128,-1,9
 347 309 347 309 322 321 c 0,10,11
 300 331 300 331 278.5 344 c 128,-1,12
 257 357 257 357 240 375.5 c 128,-1,13
 223 394 223 394 212.5 419.5 c 128,-1,14
 202 445 202 445 202 481 c 0,15,16
 202 553 202 553 250.5 601.5 c 128,-1,17
 299 650 299 650 395 662 c 1,18,-1
 422 776 l 1,19,-1
 503 776 l 1,20,-1
 476 664 l 1,21,22
 519 660 519 660 553.5 646.5 c 128,-1,23
 588 633 588 633 606 621 c 1,24,-1
 564 552 l 1,25,26
 547 564 547 564 514.5 575 c 128,-1,27
 482 586 482 586 434 586 c 0,28,29
 405 586 405 586 379.5 580.5 c 128,-1,30
 354 575 354 575 334.5 563 c 128,-1,31
 315 551 315 551 304 532.5 c 128,-1,32
 293 514 293 514 293 489 c 0,33,34
 293 448 293 448 318 426 c 128,-1,35
 343 404 343 404 394 380 c 0,36,37
 421 368 421 368 446 354 c 128,-1,38
 471 340 471 340 489.5 321 c 128,-1,39
 508 302 508 302 519 276.5 c 128,-1,40
 530 251 530 251 530 216 c 0,41,42
 530 172 530 172 515 138 c 128,-1,43
 500 104 500 104 472 79.5 c 128,-1,44
 444 55 444 55 405.5 40 c 128,-1,45
 367 25 367 25 321 20 c 1,46,-1
 291 -109 l 1,47,-1
 210 -109 l 1,48,-1
 241 21 l 1,49,50
 215 22 215 22 191 27 c 128,-1,51
 167 32 167 32 146 39 c 128,-1,52
 125 46 125 46 109 53.5 c 128,-1,53
 93 61 93 61 84 67 c 1,54,-1
 127 138 l 1,55,56
 145 127 145 127 182 111.5 c 128,-1,57
 219 96 219 96 277 96 c 0,0,1
EndSplineSet
EndChar

StartChar: percent
Encoding: 37 37 8
Width: 836
Flags: W
LayerCount: 2
Fore
SplineSet
269 0 m 1,0,-1
 174 0 l 1,1,-1
 723 693 l 1,2,-1
 818 693 l 1,3,-1
 269 0 l 1,0,-1
158 476 m 0,4,5
 158 518 158 518 171.5 559.5 c 128,-1,6
 185 601 185 601 209.5 634 c 128,-1,7
 234 667 234 667 270 687.5 c 128,-1,8
 306 708 306 708 351 708 c 0,9,10
 411 708 411 708 444.5 673.5 c 128,-1,11
 478 639 478 639 478 572 c 0,12,13
 478 530 478 530 464.5 488.5 c 128,-1,14
 451 447 451 447 426.5 414 c 128,-1,15
 402 381 402 381 366 360.5 c 128,-1,16
 330 340 330 340 285 340 c 0,17,18
 225 340 225 340 191.5 374.5 c 128,-1,19
 158 409 158 409 158 476 c 0,4,5
404 565 m 0,20,21
 404 599 404 599 392.5 620.5 c 128,-1,22
 381 642 381 642 346 642 c 0,23,24
 317 642 317 642 295.5 626 c 128,-1,25
 274 610 274 610 260 586.5 c 128,-1,26
 246 563 246 563 239 535 c 128,-1,27
 232 507 232 507 232 483 c 0,28,29
 232 449 232 449 243.5 427.5 c 128,-1,30
 255 406 255 406 290 406 c 0,31,32
 319 406 319 406 340.5 422 c 128,-1,33
 362 438 362 438 376 461.5 c 128,-1,34
 390 485 390 485 397 513 c 128,-1,35
 404 541 404 541 404 565 c 0,20,21
514 121 m 0,36,37
 514 163 514 163 527.5 204.5 c 128,-1,38
 541 246 541 246 565.5 279 c 128,-1,39
 590 312 590 312 626 332.5 c 128,-1,40
 662 353 662 353 707 353 c 0,41,42
 767 353 767 353 800.5 318.5 c 128,-1,43
 834 284 834 284 834 217 c 0,44,45
 834 175 834 175 820.5 133.5 c 128,-1,46
 807 92 807 92 782.5 59 c 128,-1,47
 758 26 758 26 722 5.5 c 128,-1,48
 686 -15 686 -15 641 -15 c 0,49,50
 581 -15 581 -15 547.5 19.5 c 128,-1,51
 514 54 514 54 514 121 c 0,36,37
760 210 m 0,52,53
 760 244 760 244 748.5 265.5 c 128,-1,54
 737 287 737 287 702 287 c 0,55,56
 673 287 673 287 651.5 271 c 128,-1,57
 630 255 630 255 616 231.5 c 128,-1,58
 602 208 602 208 595 180 c 128,-1,59
 588 152 588 152 588 128 c 0,60,61
 588 94 588 94 599.5 72.5 c 128,-1,62
 611 51 611 51 646 51 c 0,63,64
 675 51 675 51 696.5 67 c 128,-1,65
 718 83 718 83 732 106.5 c 128,-1,66
 746 130 746 130 753 158 c 128,-1,67
 760 186 760 186 760 210 c 0,52,53
EndSplineSet
EndChar

StartChar: ampersand
Encoding: 38 38 9
Width: 640
Flags: W
LayerCount: 2
Fore
SplineSet
78 147 m 0,0,1
 78 192 78 192 92.5 228 c 128,-1,2
 107 264 107 264 132.5 292.5 c 128,-1,3
 158 321 158 321 193 343.5 c 128,-1,4
 228 366 228 366 269 384 c 1,5,6
 252 412 252 412 240 443 c 128,-1,7
 228 474 228 474 228 514 c 0,8,9
 228 559 228 559 243 595 c 128,-1,10
 258 631 258 631 285.5 656.5 c 128,-1,11
 313 682 313 682 352.5 695.5 c 128,-1,12
 392 709 392 709 440 709 c 0,13,14
 468 709 468 709 494 700.5 c 128,-1,15
 520 692 520 692 539 675 c 128,-1,16
 558 658 558 658 569.5 633.5 c 128,-1,17
 581 609 581 609 581 576 c 0,18,19
 581 537 581 537 567 505.5 c 128,-1,20
 553 474 553 474 527.5 448 c 128,-1,21
 502 422 502 422 467 400 c 128,-1,22
 432 378 432 378 390 359 c 1,23,-1
 506 198 l 1,24,25
 554 259 554 259 583 339 c 1,26,-1
 664 329 l 1,27,28
 650 287 650 287 622.5 235.5 c 128,-1,29
 595 184 595 184 553 135 c 1,30,31
 578 100 578 100 599.5 66 c 128,-1,32
 621 32 621 32 633 0 c 1,33,-1
 537 0 l 1,34,35
 529 18 529 18 517.5 36.5 c 128,-1,36
 506 55 506 55 492 75 c 1,37,38
 447 38 447 38 391.5 14.5 c 128,-1,39
 336 -9 336 -9 264 -9 c 0,40,41
 214 -9 214 -9 179 2.5 c 128,-1,42
 144 14 144 14 121.5 35 c 128,-1,43
 99 56 99 56 88.5 84.5 c 128,-1,44
 78 113 78 113 78 147 c 0,0,1
270 68 m 0,45,46
 318 68 318 68 364 85.5 c 128,-1,47
 410 103 410 103 447 137 c 1,48,-1
 309 327 l 1,49,50
 283 316 283 316 258 300.5 c 128,-1,51
 233 285 233 285 213.5 265 c 128,-1,52
 194 245 194 245 181.5 219.5 c 128,-1,53
 169 194 169 194 169 163 c 0,54,55
 169 121 169 121 191.5 94.5 c 128,-1,56
 214 68 214 68 270 68 c 0,45,46
315 520 m 0,57,58
 315 493 315 493 325.5 467 c 128,-1,59
 336 441 336 441 352 415 c 1,60,61
 378 425 378 425 404 439.5 c 128,-1,62
 430 454 430 454 450.5 473 c 128,-1,63
 471 492 471 492 483.5 515 c 128,-1,64
 496 538 496 538 496 565 c 0,65,66
 496 599 496 599 477.5 617 c 128,-1,67
 459 635 459 635 427 635 c 0,68,69
 382 635 382 635 348.5 606.5 c 128,-1,70
 315 578 315 578 315 520 c 0,57,58
EndSplineSet
EndChar

StartChar: quotesingle
Encoding: 39 39 10
Width: 236
Flags: W
LayerCount: 2
Fore
SplineSet
348 760 m 1,0,-1
 336 710 l 2,1,2
 324 661 324 661 305.5 606.5 c 128,-1,3
 287 552 287 552 265 501 c 1,4,-1
 211 501 l 1,5,6
 215 555 215 555 222 607.5 c 128,-1,7
 229 660 229 660 241 711 c 2,8,-1
 253 760 l 1,9,-1
 348 760 l 1,0,-1
EndSplineSet
EndChar

StartChar: parenleft
Encoding: 40 40 11
Width: 317
Flags: W
LayerCount: 2
Fore
SplineSet
491 739 m 1,0,1
 428 676 428 676 377 605.5 c 128,-1,2
 326 535 326 535 290.5 459.5 c 128,-1,3
 255 384 255 384 235.5 304.5 c 128,-1,4
 216 225 216 225 216 143 c 0,5,6
 216 58 216 58 228 -10 c 128,-1,7
 240 -78 240 -78 269 -141 c 1,8,-1
 198 -181 l 1,9,10
 164 -121 164 -121 145 -42 c 128,-1,11
 126 37 126 37 126 124 c 0,12,13
 126 314 126 314 202.5 478 c 128,-1,14
 279 642 279 642 429 783 c 1,15,-1
 491 739 l 1,0,1
EndSplineSet
Substitution2: "'case' Case-Sensitive Forms lookup 18 subtable" Parenleft
EndChar

StartChar: parenright
Encoding: 41 41 12
Width: 317
Flags: W
LayerCount: 2
Fore
SplineSet
-50 -141 m 1,0,1
 13 -78 13 -78 64 -7.5 c 128,-1,2
 115 63 115 63 150.5 138.5 c 128,-1,3
 186 214 186 214 205.5 293.5 c 128,-1,4
 225 373 225 373 225 455 c 0,5,6
 225 540 225 540 213 608 c 128,-1,7
 201 676 201 676 172 739 c 1,8,-1
 243 779 l 1,9,10
 277 719 277 719 296 640 c 128,-1,11
 315 561 315 561 315 474 c 0,12,13
 315 284 315 284 238.5 120 c 128,-1,14
 162 -44 162 -44 12 -185 c 1,15,-1
 -50 -141 l 1,0,1
EndSplineSet
Substitution2: "'case' Case-Sensitive Forms lookup 18 subtable" Parenright
EndChar

StartChar: asterisk
Encoding: 42 42 13
Width: 470
Flags: W
LayerCount: 2
Fore
SplineSet
396 685 m 2,0,1
 396 643 396 643 388.5 605 c 128,-1,2
 381 567 381 567 373 525 c 1,3,4
 409 545 409 545 443.5 564 c 128,-1,5
 478 583 478 583 520 597 c 2,6,-1
 526 599 l 1,7,-1
 554 515 l 1,8,-1
 546 512 l 2,9,10
 506 497 506 497 466 492.5 c 128,-1,11
 426 488 426 488 384 485 c 1,12,13
 417 457 417 457 446 430.5 c 128,-1,14
 475 404 475 404 500 369 c 2,15,-1
 505 362 l 1,16,-1
 432 311 l 1,17,-1
 428 317 l 2,18,19
 404 353 404 353 386.5 388.5 c 128,-1,20
 369 424 369 424 351 462 c 1,21,22
 333 424 333 424 315.5 388.5 c 128,-1,23
 298 353 298 353 274 317 c 2,24,-1
 270 311 l 1,25,-1
 197 362 l 1,26,-1
 202 369 l 2,27,28
 227 404 227 404 256 430.5 c 128,-1,29
 285 457 285 457 318 485 c 1,30,31
 276 488 276 488 236 492.5 c 128,-1,32
 196 497 196 497 156 512 c 2,33,-1
 148 515 l 1,34,-1
 176 599 l 1,35,-1
 182 597 l 2,36,37
 224 583 224 583 258.5 564 c 128,-1,38
 293 545 293 545 329 525 c 1,39,40
 321 567 321 567 313.5 605 c 128,-1,41
 306 643 306 643 306 685 c 2,42,-1
 306 693 l 1,43,-1
 396 693 l 1,44,-1
 396 685 l 2,0,1
EndSplineSet
EndChar

StartChar: plus
Encoding: 43 43 14
Width: 564
Flags: W
LayerCount: 2
Fore
SplineSet
455 543 m 1,0,-1
 405 337 l 1,1,-1
 587 337 l 1,2,-1
 568 258 l 1,3,-1
 386 258 l 1,4,-1
 336 51 l 1,5,-1
 252 51 l 1,6,-1
 301 258 l 1,7,-1
 119 258 l 1,8,-1
 138 337 l 1,9,-1
 320 337 l 1,10,-1
 370 543 l 1,11,-1
 455 543 l 1,0,-1
EndSplineSet
EndChar

StartChar: comma
Encoding: 44 44 15
Width: 246
Flags: W
LayerCount: 2
Fore
SplineSet
198 114 m 1,0,1
 193 78 193 78 181 41 c 128,-1,2
 169 4 169 4 151.5 -31.5 c 128,-1,3
 134 -67 134 -67 112 -99.5 c 128,-1,4
 90 -132 90 -132 66 -159 c 1,5,-1
 3 -133 l 1,6,7
 23 -106 23 -106 39.5 -74 c 128,-1,8
 56 -42 56 -42 68 -9 c 128,-1,9
 80 24 80 24 88 55.5 c 128,-1,10
 96 87 96 87 99 114 c 1,11,-1
 198 114 l 1,0,1
EndSplineSet
EndChar

StartChar: hyphen
Encoding: 45 45 16
Width: 293
Flags: W
LayerCount: 2
Fore
SplineSet
107 343 m 1,0,-1
 349 343 l 1,1,-1
 329 256 l 1,2,-1
 87 256 l 1,3,-1
 107 343 l 1,0,-1
EndSplineSet
Substitution2: "'case' Case-Sensitive Forms lookup 18 subtable" Hyphen
EndChar

StartChar: period
Encoding: 46 46 17
Width: 246
Flags: W
LayerCount: 2
Fore
SplineSet
128 -13 m 0,0,1
 100 -13 100 -13 84 2 c 128,-1,2
 68 17 68 17 68 46 c 0,3,4
 68 82 68 82 89.5 101.5 c 128,-1,5
 111 121 111 121 139 121 c 256,6,7
 167 121 167 121 183.5 105.5 c 128,-1,8
 200 90 200 90 200 60 c 0,9,10
 200 43 200 43 193.5 29.5 c 128,-1,11
 187 16 187 16 177 6.5 c 128,-1,12
 167 -3 167 -3 154 -8 c 128,-1,13
 141 -13 141 -13 128 -13 c 0,0,1
EndSplineSet
EndChar

StartChar: slash
Encoding: 47 47 18
Width: 376
Flags: W
LayerCount: 2
Fore
SplineSet
27 -185 m 1,0,-1
 -66 -185 l 1,1,-1
 493 783 l 1,2,-1
 586 783 l 1,3,-1
 27 -185 l 1,0,-1
EndSplineSet
Substitution2: "'case' Case-Sensitive Forms lookup 18 subtable" Slash
Substitution2: "'frac' Diagonal Fractions lookup 14 subtable" fraction
EndChar

StartChar: zero
Encoding: 48 48 19
Width: 564
Flags: W
LayerCount: 2
Fore
SplineSet
609 501 m 0,0,1
 609 452 609 452 600 394.5 c 128,-1,2
 591 337 591 337 573.5 279.5 c 128,-1,3
 556 222 556 222 529 169 c 128,-1,4
 502 116 502 116 465.5 75 c 128,-1,5
 429 34 429 34 383 9.5 c 128,-1,6
 337 -15 337 -15 282 -15 c 0,7,8
 197 -15 197 -15 156.5 37.5 c 128,-1,9
 116 90 116 90 116 193 c 0,10,11
 116 242 116 242 125 299.5 c 128,-1,12
 134 357 134 357 151.5 414.5 c 128,-1,13
 169 472 169 472 196 525 c 128,-1,14
 223 578 223 578 259.5 619 c 128,-1,15
 296 660 296 660 341.5 684.5 c 128,-1,16
 387 709 387 709 443 709 c 0,17,18
 528 709 528 709 568.5 656.5 c 128,-1,19
 609 604 609 604 609 501 c 0,0,1
514 489 m 0,20,21
 514 564 514 564 496 596 c 128,-1,22
 478 628 478 628 432 628 c 0,23,24
 401 628 401 628 372 609 c 128,-1,25
 343 590 343 590 318.5 558 c 128,-1,26
 294 526 294 526 274 483.5 c 128,-1,27
 254 441 254 441 240 394 c 128,-1,28
 226 347 226 347 218.5 298 c 128,-1,29
 211 249 211 249 211 205 c 0,30,31
 211 130 211 130 229 98 c 128,-1,32
 247 66 247 66 293 66 c 0,33,34
 325 66 325 66 353.5 85 c 128,-1,35
 382 104 382 104 406.5 136 c 128,-1,36
 431 168 431 168 451 210.5 c 128,-1,37
 471 253 471 253 485 300 c 128,-1,38
 499 347 499 347 506.5 395.5 c 128,-1,39
 514 444 514 444 514 489 c 0,20,21
EndSplineSet
Substitution2: "'frac' Diagonal Fractions lookup 16 subtable" zerosuperior
Substitution2: "'sinf' Scientific Inferiors lookup 13 subtable" zero.sinf
Substitution2: "'subs' Subscript lookup 12 subtable" zero.sinf
Substitution2: "'sups' Superscript lookup 11 subtable" zero.sups
Substitution2: "'dnom' Denominators lookup 10 subtable" zeroinferior
Substitution2: "'numr' Numerators lookup 8 subtable" zerosuperior
Substitution2: "'pnum' Proportional Numbers lookup 6 subtable" zero.alt
EndChar

StartChar: one
Encoding: 49 49 20
Width: 564
Flags: W
LayerCount: 2
Fore
SplineSet
408 555 m 1,0,1
 394 544 394 544 374.5 532.5 c 128,-1,2
 355 521 355 521 332.5 510 c 128,-1,3
 310 499 310 499 286 489.5 c 128,-1,4
 262 480 262 480 240 473 c 1,5,-1
 225 550 l 1,6,7
 285 572 285 572 347.5 606.5 c 128,-1,8
 410 641 410 641 467 693 c 1,9,-1
 534 693 l 1,10,-1
 368 0 l 1,11,-1
 275 0 l 1,12,-1
 408 555 l 1,0,1
EndSplineSet
Substitution2: "'frac' Diagonal Fractions lookup 16 subtable" onesuperior
Substitution2: "'sinf' Scientific Inferiors lookup 13 subtable" one.sinf
Substitution2: "'subs' Subscript lookup 12 subtable" one.sinf
Substitution2: "'sups' Superscript lookup 11 subtable" one.sups
Substitution2: "'dnom' Denominators lookup 10 subtable" oneinferior
Substitution2: "'numr' Numerators lookup 8 subtable" onesuperior
Substitution2: "'pnum' Proportional Numbers lookup 6 subtable" one.alt
EndChar

StartChar: two
Encoding: 50 50 21
Width: 564
Flags: W
LayerCount: 2
Fore
SplineSet
589 552 m 0,0,1
 589 499 589 499 572 459 c 128,-1,2
 555 419 555 419 526 385.5 c 128,-1,3
 497 352 497 352 459 322.5 c 128,-1,4
 421 293 421 293 378 261 c 0,5,6
 353 242 353 242 325 220 c 128,-1,7
 297 198 297 198 272 174.5 c 128,-1,8
 247 151 247 151 228 126.5 c 128,-1,9
 209 102 209 102 201 78 c 1,10,-1
 502 78 l 1,11,-1
 484 0 l 1,12,-1
 79 0 l 1,13,14
 87 53 87 53 107.5 96 c 128,-1,15
 128 139 128 139 156.5 175 c 128,-1,16
 185 211 185 211 219.5 241 c 128,-1,17
 254 271 254 271 291 299 c 0,18,19
 330 328 330 328 366.5 355.5 c 128,-1,20
 403 383 403 383 431 411.5 c 128,-1,21
 459 440 459 440 476 471 c 128,-1,22
 493 502 493 502 493 539 c 0,23,24
 493 581 493 581 470.5 604.5 c 128,-1,25
 448 628 448 628 397 628 c 0,26,27
 369 628 369 628 344 621 c 128,-1,28
 319 614 319 614 299 604 c 128,-1,29
 279 594 279 594 263.5 582.5 c 128,-1,30
 248 571 248 571 239 562 c 1,31,-1
 207 634 l 1,32,33
 221 647 221 647 242 660 c 128,-1,34
 263 673 263 673 289.5 684 c 128,-1,35
 316 695 316 695 346.5 702 c 128,-1,36
 377 709 377 709 409 709 c 0,37,38
 457 709 457 709 491.5 695.5 c 128,-1,39
 526 682 526 682 547.5 660 c 128,-1,40
 569 638 569 638 579 610 c 128,-1,41
 589 582 589 582 589 552 c 0,0,1
EndSplineSet
Substitution2: "'frac' Diagonal Fractions lookup 16 subtable" twosuperior
Substitution2: "'sinf' Scientific Inferiors lookup 13 subtable" two.sinf
Substitution2: "'subs' Subscript lookup 12 subtable" two.sinf
Substitution2: "'sups' Superscript lookup 11 subtable" two.sups
Substitution2: "'dnom' Denominators lookup 10 subtable" twoinferior
Substitution2: "'numr' Numerators lookup 8 subtable" twosuperior
Substitution2: "'pnum' Proportional Numbers lookup 6 subtable" two.alt
EndChar

StartChar: three
Encoding: 51 51 22
Width: 564
Flags: W
LayerCount: 2
Fore
SplineSet
249 67 m 0,0,1
 289 67 289 67 323.5 76.5 c 128,-1,2
 358 86 358 86 383.5 105 c 128,-1,3
 409 124 409 124 423 152.5 c 128,-1,4
 437 181 437 181 437 219 c 0,5,6
 437 279 437 279 393.5 305 c 128,-1,7
 350 331 350 331 278 331 c 2,8,-1
 257 331 l 1,9,-1
 275 407 l 1,10,-1
 306 407 l 2,11,12
 339 407 339 407 370.5 415.5 c 128,-1,13
 402 424 402 424 427.5 441.5 c 128,-1,14
 453 459 453 459 468.5 484.5 c 128,-1,15
 484 510 484 510 484 544 c 0,16,17
 484 586 484 586 458.5 607.5 c 128,-1,18
 433 629 433 629 385 629 c 0,19,20
 342 629 342 629 307.5 615.5 c 128,-1,21
 273 602 273 602 248 586 c 1,22,-1
 226 658 l 1,23,24
 239 667 239 667 258 676 c 128,-1,25
 277 685 277 685 300 692.5 c 128,-1,26
 323 700 323 700 348.5 704.5 c 128,-1,27
 374 709 374 709 400 709 c 0,28,29
 447 709 447 709 480.5 697 c 128,-1,30
 514 685 514 685 536 664 c 128,-1,31
 558 643 558 643 568 614.5 c 128,-1,32
 578 586 578 586 578 554 c 0,33,34
 578 488 578 488 539.5 441.5 c 128,-1,35
 501 395 501 395 435 369 c 1,36,37
 452 362 452 362 469.5 349.5 c 128,-1,38
 487 337 487 337 500.5 318.5 c 128,-1,39
 514 300 514 300 522.5 275.5 c 128,-1,40
 531 251 531 251 531 221 c 0,41,42
 531 168 531 168 512.5 124.5 c 128,-1,43
 494 81 494 81 458 50 c 128,-1,44
 422 19 422 19 369 2 c 128,-1,45
 316 -15 316 -15 246 -15 c 0,46,47
 211 -15 211 -15 181.5 -10 c 128,-1,48
 152 -5 152 -5 129 1.5 c 128,-1,49
 106 8 106 8 90.5 15 c 128,-1,50
 75 22 75 22 69 26 c 1,51,-1
 104 105 l 1,52,53
 111 101 111 101 123.5 94.5 c 128,-1,54
 136 88 136 88 154 82 c 128,-1,55
 172 76 172 76 195.5 71.5 c 128,-1,56
 219 67 219 67 249 67 c 0,0,1
EndSplineSet
Substitution2: "'frac' Diagonal Fractions lookup 16 subtable" threesuperior
Substitution2: "'sinf' Scientific Inferiors lookup 13 subtable" three.sinf
Substitution2: "'subs' Subscript lookup 12 subtable" three.sinf
Substitution2: "'sups' Superscript lookup 11 subtable" three.sups
Substitution2: "'dnom' Denominators lookup 10 subtable" threeinferior
Substitution2: "'numr' Numerators lookup 8 subtable" threesuperior
Substitution2: "'pnum' Proportional Numbers lookup 6 subtable" three.alt
EndChar

StartChar: four
Encoding: 52 52 23
Width: 564
Flags: W
LayerCount: 2
Fore
SplineSet
481 177 m 1,0,-1
 439 0 l 1,1,-1
 349 0 l 1,2,-1
 391 177 l 1,3,-1
 87 177 l 1,4,-1
 102 240 l 1,5,6
 130 287 130 287 175.5 347 c 128,-1,7
 221 407 221 407 276.5 469 c 128,-1,8
 332 531 332 531 393 589.5 c 128,-1,9
 454 648 454 648 514 693 c 1,10,-1
 605 693 l 1,11,-1
 499 253 l 1,12,-1
 580 253 l 1,13,-1
 562 177 l 1,14,-1
 481 177 l 1,0,-1
488 577 m 1,15,16
 452 547 452 547 413 509.5 c 128,-1,17
 374 472 374 472 336 430 c 128,-1,18
 298 388 298 388 263 343 c 128,-1,19
 228 298 228 298 200 253 c 1,20,-1
 410 253 l 1,21,-1
 488 577 l 1,15,16
EndSplineSet
Substitution2: "'frac' Diagonal Fractions lookup 16 subtable" foursuperior
Substitution2: "'sinf' Scientific Inferiors lookup 13 subtable" four.sinf
Substitution2: "'subs' Subscript lookup 12 subtable" four.sinf
Substitution2: "'sups' Superscript lookup 11 subtable" four.sups
Substitution2: "'dnom' Denominators lookup 10 subtable" fourinferior
Substitution2: "'numr' Numerators lookup 8 subtable" foursuperior
Substitution2: "'pnum' Proportional Numbers lookup 6 subtable" four.alt
EndChar

StartChar: five
Encoding: 53 53 24
Width: 564
Flags: W
LayerCount: 2
Fore
SplineSet
368 615 m 1,0,1
 362 595 362 595 353.5 569 c 128,-1,2
 345 543 345 543 336 516.5 c 128,-1,3
 327 490 327 490 319 466 c 128,-1,4
 311 442 311 442 306 426 c 1,5,6
 420 411 420 411 477.5 364 c 128,-1,7
 535 317 535 317 535 230 c 0,8,9
 535 179 535 179 518 134 c 128,-1,10
 501 89 501 89 465 56 c 128,-1,11
 429 23 429 23 373.5 4 c 128,-1,12
 318 -15 318 -15 242 -15 c 0,13,14
 210 -15 210 -15 181.5 -10 c 128,-1,15
 153 -5 153 -5 130.5 1.5 c 128,-1,16
 108 8 108 8 93 14.5 c 128,-1,17
 78 21 78 21 73 24 c 1,18,-1
 109 102 l 1,19,20
 123 94 123 94 157.5 80.5 c 128,-1,21
 192 67 192 67 247 67 c 0,22,23
 288 67 288 67 323.5 77.5 c 128,-1,24
 359 88 359 88 385 107.5 c 128,-1,25
 411 127 411 127 426 156 c 128,-1,26
 441 185 441 185 441 221 c 0,27,28
 441 267 441 267 416 293.5 c 128,-1,29
 391 320 391 320 354 333.5 c 128,-1,30
 317 347 317 347 274 351 c 128,-1,31
 231 355 231 355 195 357 c 1,32,33
 211 403 211 403 226 445 c 128,-1,34
 241 487 241 487 254.5 527.5 c 128,-1,35
 268 568 268 568 280 608.5 c 128,-1,36
 292 649 292 649 303 693 c 1,37,-1
 627 693 l 1,38,-1
 609 615 l 1,39,-1
 368 615 l 1,0,1
EndSplineSet
Substitution2: "'frac' Diagonal Fractions lookup 16 subtable" fivesuperior
Substitution2: "'sinf' Scientific Inferiors lookup 13 subtable" five.sinf
Substitution2: "'subs' Subscript lookup 12 subtable" five.sinf
Substitution2: "'sups' Superscript lookup 11 subtable" five.sups
Substitution2: "'dnom' Denominators lookup 10 subtable" fiveinferior
Substitution2: "'numr' Numerators lookup 8 subtable" fivesuperior
Substitution2: "'pnum' Proportional Numbers lookup 6 subtable" five.alt
EndChar

StartChar: six
Encoding: 54 54 25
Width: 564
Flags: W
LayerCount: 2
Fore
SplineSet
236 318 m 1,0,1
 226 286 226 286 221 252.5 c 128,-1,2
 216 219 216 219 216 193 c 0,3,4
 216 130 216 130 238.5 95.5 c 128,-1,5
 261 61 261 61 318 61 c 0,6,7
 357 61 357 61 387 77.5 c 128,-1,8
 417 94 417 94 437.5 121 c 128,-1,9
 458 148 458 148 468.5 181.5 c 128,-1,10
 479 215 479 215 479 250 c 0,11,12
 479 298 479 298 455.5 323 c 128,-1,13
 432 348 432 348 378 348 c 0,14,15
 343 348 343 348 307.5 341.5 c 128,-1,16
 272 335 272 335 236 318 c 1,0,1
124 185 m 0,17,18
 124 290 124 290 159.5 383 c 128,-1,19
 195 476 195 476 259.5 545.5 c 128,-1,20
 324 615 324 615 415.5 655.5 c 128,-1,21
 507 696 507 696 620 696 c 2,22,-1
 633 696 l 1,23,-1
 622 617 l 1,24,-1
 617 617 l 2,25,26
 546 617 546 617 488.5 598.5 c 128,-1,27
 431 580 431 580 386 549.5 c 128,-1,28
 341 519 341 519 309.5 478 c 128,-1,29
 278 437 278 437 260 392 c 1,30,31
 292 408 292 408 329 416.5 c 128,-1,32
 366 425 366 425 400 425 c 0,33,34
 445 425 445 425 477.5 411.5 c 128,-1,35
 510 398 510 398 531 375.5 c 128,-1,36
 552 353 552 353 561.5 323 c 128,-1,37
 571 293 571 293 571 260 c 0,38,39
 571 210 571 210 555.5 160.5 c 128,-1,40
 540 111 540 111 508 72 c 128,-1,41
 476 33 476 33 425.5 9 c 128,-1,42
 375 -15 375 -15 305 -15 c 0,43,44
 217 -15 217 -15 170.5 38.5 c 128,-1,45
 124 92 124 92 124 185 c 0,17,18
EndSplineSet
Substitution2: "'frac' Diagonal Fractions lookup 16 subtable" sixsuperior
Substitution2: "'sinf' Scientific Inferiors lookup 13 subtable" six.sinf
Substitution2: "'subs' Subscript lookup 12 subtable" six.sinf
Substitution2: "'sups' Superscript lookup 11 subtable" six.sups
Substitution2: "'dnom' Denominators lookup 10 subtable" sixinferior
Substitution2: "'numr' Numerators lookup 8 subtable" sixsuperior
Substitution2: "'pnum' Proportional Numbers lookup 6 subtable" six.alt
EndChar

StartChar: seven
Encoding: 55 55 26
Width: 564
Flags: W
LayerCount: 2
Fore
SplineSet
158 0 m 1,0,1
 173 53 173 53 197.5 110.5 c 128,-1,2
 222 168 222 168 253 226 c 128,-1,3
 284 284 284 284 319.5 340 c 128,-1,4
 355 396 355 396 392 446.5 c 128,-1,5
 429 497 429 497 466.5 539.5 c 128,-1,6
 504 582 504 582 538 612 c 1,7,-1
 209 612 l 1,8,-1
 228 693 l 1,9,-1
 663 693 l 1,10,-1
 644 613 l 1,11,12
 601 576 601 576 545 510 c 128,-1,13
 489 444 489 444 434 361.5 c 128,-1,14
 379 279 379 279 331 186 c 128,-1,15
 283 93 283 93 256 0 c 1,16,-1
 158 0 l 1,0,1
EndSplineSet
Substitution2: "'frac' Diagonal Fractions lookup 16 subtable" sevensuperior
Substitution2: "'sinf' Scientific Inferiors lookup 13 subtable" seven.sinf
Substitution2: "'subs' Subscript lookup 12 subtable" seven.sinf
Substitution2: "'sups' Superscript lookup 11 subtable" seven.sups
Substitution2: "'dnom' Denominators lookup 10 subtable" seveninferior
Substitution2: "'numr' Numerators lookup 8 subtable" sevensuperior
Substitution2: "'pnum' Proportional Numbers lookup 6 subtable" seven.alt
EndChar

StartChar: eight
Encoding: 56 56 27
Width: 564
Flags: W
LayerCount: 2
Fore
SplineSet
469 349 m 1,0,1
 503 326 503 326 526.5 292.5 c 128,-1,2
 550 259 550 259 550 206 c 0,3,4
 550 162 550 162 533.5 122 c 128,-1,5
 517 82 517 82 484 51.5 c 128,-1,6
 451 21 451 21 401 3 c 128,-1,7
 351 -15 351 -15 285 -15 c 0,8,9
 235 -15 235 -15 200 -1 c 128,-1,10
 165 13 165 13 143 35 c 128,-1,11
 121 57 121 57 111 85 c 128,-1,12
 101 113 101 113 101 141 c 0,13,14
 101 213 101 213 143.5 269 c 128,-1,15
 186 325 186 325 261 362 c 1,16,17
 200 410 200 410 200 486 c 0,18,19
 200 531 200 531 216.5 571 c 128,-1,20
 233 611 233 611 264 642 c 128,-1,21
 295 673 295 673 339.5 691 c 128,-1,22
 384 709 384 709 440 709 c 0,23,24
 486 709 486 709 519.5 696 c 128,-1,25
 553 683 553 683 574 661 c 128,-1,26
 595 639 595 639 605 611.5 c 128,-1,27
 615 584 615 584 615 555 c 0,28,29
 615 486 615 486 576.5 434.5 c 128,-1,30
 538 383 538 383 469 349 c 1,0,1
330 327 m 1,31,32
 303 315 303 315 278 297 c 128,-1,33
 253 279 253 279 234 257 c 128,-1,34
 215 235 215 235 204 209.5 c 128,-1,35
 193 184 193 184 193 157 c 0,36,37
 193 137 193 137 198 120 c 128,-1,38
 203 103 203 103 215 89.5 c 128,-1,39
 227 76 227 76 247 68.5 c 128,-1,40
 267 61 267 61 297 61 c 0,41,42
 330 61 330 61 359.5 71 c 128,-1,43
 389 81 389 81 411 99 c 128,-1,44
 433 117 433 117 445.5 142 c 128,-1,45
 458 167 458 167 458 197 c 0,46,47
 458 246 458 246 424 276 c 128,-1,48
 390 306 390 306 330 327 c 1,31,32
396 381 m 1,49,50
 421 393 421 393 444 409 c 128,-1,51
 467 425 467 425 484.5 445.5 c 128,-1,52
 502 466 502 466 512.5 490.5 c 128,-1,53
 523 515 523 515 523 545 c 0,54,55
 523 560 523 560 519 576 c 128,-1,56
 515 592 515 592 504.5 604.5 c 128,-1,57
 494 617 494 617 475.5 625 c 128,-1,58
 457 633 457 633 429 633 c 0,59,60
 399 633 399 633 374 622.5 c 128,-1,61
 349 612 349 612 330.5 594 c 128,-1,62
 312 576 312 576 301.5 550.5 c 128,-1,63
 291 525 291 525 291 495 c 0,64,65
 291 453 291 453 316 426 c 128,-1,66
 341 399 341 399 396 381 c 1,49,50
EndSplineSet
Substitution2: "'frac' Diagonal Fractions lookup 16 subtable" eightsuperior
Substitution2: "'sinf' Scientific Inferiors lookup 13 subtable" eight.sinf
Substitution2: "'subs' Subscript lookup 12 subtable" eight.sinf
Substitution2: "'sups' Superscript lookup 11 subtable" eight.sups
Substitution2: "'dnom' Denominators lookup 10 subtable" eightinferior
Substitution2: "'numr' Numerators lookup 8 subtable" eightsuperior
Substitution2: "'pnum' Proportional Numbers lookup 6 subtable" eight.alt
EndChar

StartChar: nine
Encoding: 57 57 28
Width: 564
Flags: W
LayerCount: 2
Fore
SplineSet
326 272 m 0,0,1
 281 272 281 272 248.5 285 c 128,-1,2
 216 298 216 298 195 320.5 c 128,-1,3
 174 343 174 343 164 373 c 128,-1,4
 154 403 154 403 154 436 c 0,5,6
 154 486 154 486 169.5 535 c 128,-1,7
 185 584 185 584 217.5 622.5 c 128,-1,8
 250 661 250 661 299 684.5 c 128,-1,9
 348 708 348 708 414 708 c 0,10,11
 507 708 507 708 554 654.5 c 128,-1,12
 601 601 601 601 601 508 c 0,13,14
 601 401 601 401 567.5 308 c 128,-1,15
 534 215 534 215 471 146 c 128,-1,16
 408 77 408 77 317 37.5 c 128,-1,17
 226 -2 226 -2 111 -2 c 0,18,19
 106 -2 106 -2 100.5 -2 c 128,-1,20
 95 -2 95 -2 85 -1 c 1,21,-1
 102 78 l 1,22,23
 105 77 105 77 111.5 77 c 128,-1,24
 118 77 118 77 120 77 c 0,25,26
 190 77 190 77 245.5 94.5 c 128,-1,27
 301 112 301 112 343.5 143 c 128,-1,28
 386 174 386 174 416 215 c 128,-1,29
 446 256 446 256 466 304 c 1,30,31
 434 288 434 288 397 280 c 128,-1,32
 360 272 360 272 326 272 c 0,0,1
348 349 m 0,33,34
 383 349 383 349 418.5 355.5 c 128,-1,35
 454 362 454 362 490 379 c 1,36,37
 499 409 499 409 504 442.5 c 128,-1,38
 509 476 509 476 509 509 c 0,39,40
 509 564 509 564 485 598 c 128,-1,41
 461 632 461 632 407 632 c 0,42,43
 368 632 368 632 338 615.5 c 128,-1,44
 308 599 308 599 287.5 573 c 128,-1,45
 267 547 267 547 256.5 513.5 c 128,-1,46
 246 480 246 480 246 446 c 0,47,48
 246 398 246 398 270 373.5 c 128,-1,49
 294 349 294 349 348 349 c 0,33,34
EndSplineSet
Substitution2: "'frac' Diagonal Fractions lookup 16 subtable" ninesuperior
Substitution2: "'sinf' Scientific Inferiors lookup 13 subtable" nine.sinf
Substitution2: "'subs' Subscript lookup 12 subtable" nine.sinf
Substitution2: "'sups' Superscript lookup 11 subtable" nine.sups
Substitution2: "'dnom' Denominators lookup 10 subtable" nineinferior
Substitution2: "'numr' Numerators lookup 8 subtable" ninesuperior
Substitution2: "'pnum' Proportional Numbers lookup 6 subtable" nine.alt
EndChar

StartChar: less
Encoding: 60 60 31
Width: 564
Flags: W
LayerCount: 2
Fore
SplineSet
499 74 m 1,0,-1
 119 257 l 1,1,-1
 138 337 l 1,2,-1
 606 520 l 1,3,-1
 612 438 l 1,4,-1
 230 292 l 1,5,-1
 541 147 l 1,6,-1
 499 74 l 1,0,-1
EndSplineSet
EndChar

StartChar: equal
Encoding: 61 61 32
Width: 564
Flags: W
LayerCount: 2
Fore
SplineSet
164 443 m 1,0,-1
 613 443 l 1,1,-1
 594 364 l 1,2,-1
 145 364 l 1,3,-1
 164 443 l 1,0,-1
113 230 m 1,4,-1
 562 230 l 1,5,-1
 543 151 l 1,6,-1
 94 151 l 1,7,-1
 113 230 l 1,4,-1
EndSplineSet
EndChar

StartChar: greater
Encoding: 62 62 33
Width: 564
Flags: W
LayerCount: 2
Fore
SplineSet
207 520 m 1,0,-1
 587 337 l 1,1,-1
 568 257 l 1,2,-1
 100 74 l 1,3,-1
 94 156 l 1,4,-1
 476 302 l 1,5,-1
 165 447 l 1,6,-1
 207 520 l 1,0,-1
EndSplineSet
EndChar

StartChar: question
Encoding: 63 63 34
Width: 384
Flags: W
LayerCount: 2
Fore
SplineSet
488 567 m 0,0,1
 488 534 488 534 476 506 c 128,-1,2
 464 478 464 478 444.5 454.5 c 128,-1,3
 425 431 425 431 401 410.5 c 128,-1,4
 377 390 377 390 352 371 c 0,5,6
 315 342 315 342 284.5 310.5 c 128,-1,7
 254 279 254 279 243 235 c 0,8,9
 241 229 241 229 240.5 223.5 c 128,-1,10
 240 218 240 218 240 216 c 1,11,-1
 159 216 l 1,12,13
 160 228 160 228 161 238 c 128,-1,14
 162 248 162 248 164 258 c 0,15,16
 176 309 176 309 211 345.5 c 128,-1,17
 246 382 246 382 291 417 c 0,18,19
 311 433 311 433 330 449 c 128,-1,20
 349 465 349 465 363.5 482 c 128,-1,21
 378 499 378 499 386.5 518.5 c 128,-1,22
 395 538 395 538 395 561 c 0,23,24
 395 572 395 572 392 585 c 128,-1,25
 389 598 389 598 379.5 608.5 c 128,-1,26
 370 619 370 619 353 626 c 128,-1,27
 336 633 336 633 308 633 c 0,28,29
 260 633 260 633 228 622 c 128,-1,30
 196 611 196 611 178 602 c 1,31,-1
 168 674 l 1,32,33
 192 688 192 688 233.5 698.5 c 128,-1,34
 275 709 275 709 320 709 c 0,35,36
 367 709 367 709 399 698 c 128,-1,37
 431 687 431 687 451 668 c 128,-1,38
 471 649 471 649 479.5 623 c 128,-1,39
 488 597 488 597 488 567 c 0,0,1
176 -13 m 0,40,41
 148 -13 148 -13 132 2 c 128,-1,42
 116 17 116 17 116 46 c 0,43,44
 116 82 116 82 137.5 101.5 c 128,-1,45
 159 121 159 121 187 121 c 256,46,47
 215 121 215 121 231.5 105.5 c 128,-1,48
 248 90 248 90 248 60 c 0,49,50
 248 43 248 43 241.5 29.5 c 128,-1,51
 235 16 235 16 225 6.5 c 128,-1,52
 215 -3 215 -3 202 -8 c 128,-1,53
 189 -13 189 -13 176 -13 c 0,40,41
EndSplineSet
EndChar

StartChar: at
Encoding: 64 64 35
Width: 931
Flags: W
LayerCount: 2
Fore
SplineSet
694 43 m 0,0,1
 631 43 631 43 605 78 c 1,2,3
 582 64 582 64 551 55.5 c 128,-1,4
 520 47 520 47 485 47 c 0,5,6
 410 47 410 47 365 89.5 c 128,-1,7
 320 132 320 132 320 217 c 0,8,9
 320 274 320 274 339.5 327.5 c 128,-1,10
 359 381 359 381 396 421.5 c 128,-1,11
 433 462 433 462 486 486.5 c 128,-1,12
 539 511 539 511 607 511 c 0,13,14
 659 511 659 511 697.5 502 c 128,-1,15
 736 493 736 493 756 485 c 1,16,-1
 683 181 l 1,17,18
 678 166 678 166 678 152 c 0,19,20
 678 140 678 140 684.5 131 c 128,-1,21
 691 122 691 122 711 122 c 0,22,23
 753 122 753 122 783 146.5 c 128,-1,24
 813 171 813 171 833 209.5 c 128,-1,25
 853 248 853 248 862.5 294 c 128,-1,26
 872 340 872 340 872 383 c 0,27,28
 872 438 872 438 858 484 c 128,-1,29
 844 530 844 530 812.5 563 c 128,-1,30
 781 596 781 596 730 614.5 c 128,-1,31
 679 633 679 633 605 633 c 0,32,33
 518 633 518 633 443 595.5 c 128,-1,34
 368 558 368 558 313 495.5 c 128,-1,35
 258 433 258 433 227 350.5 c 128,-1,36
 196 268 196 268 196 178 c 0,37,38
 196 111 196 111 215.5 63 c 128,-1,39
 235 15 235 15 270 -16 c 128,-1,40
 305 -47 305 -47 354 -62 c 128,-1,41
 403 -77 403 -77 462 -77 c 0,42,43
 520 -77 520 -77 559.5 -69.5 c 128,-1,44
 599 -62 599 -62 610 -58 c 1,45,-1
 603 -132 l 1,46,47
 594 -135 594 -135 577 -138.5 c 128,-1,48
 560 -142 560 -142 538.5 -145.5 c 128,-1,49
 517 -149 517 -149 492.5 -151 c 128,-1,50
 468 -153 468 -153 444 -153 c 0,51,52
 372 -153 372 -153 311 -132.5 c 128,-1,53
 250 -112 250 -112 205.5 -71.5 c 128,-1,54
 161 -31 161 -31 136 29 c 128,-1,55
 111 89 111 89 111 168 c 0,56,57
 111 268 111 268 144.5 365.5 c 128,-1,58
 178 463 178 463 243 539 c 128,-1,59
 308 615 308 615 402 662 c 128,-1,60
 496 709 496 709 618 709 c 0,61,62
 781 709 781 709 869 628 c 128,-1,63
 957 547 957 547 957 389 c 0,64,65
 957 342 957 342 946.5 282.5 c 128,-1,66
 936 223 936 223 907 169.5 c 128,-1,67
 878 116 878 116 826.5 79.5 c 128,-1,68
 775 43 775 43 694 43 c 0,0,1
498 122 m 0,69,70
 552 122 552 122 590 142 c 1,71,72
 590 159 590 159 592 170.5 c 128,-1,73
 594 182 594 182 597 193 c 2,74,-1
 654 428 l 1,75,76
 649 430 649 430 632 432 c 128,-1,77
 615 434 615 434 595 434 c 0,78,79
 552 434 552 434 518 417 c 128,-1,80
 484 400 484 400 460 371 c 128,-1,81
 436 342 436 342 423 304 c 128,-1,82
 410 266 410 266 410 225 c 0,83,84
 410 171 410 171 432.5 146.5 c 128,-1,85
 455 122 455 122 498 122 c 0,69,70
EndSplineSet
Substitution2: "'case' Case-Sensitive Forms lookup 18 subtable" At
EndChar

StartChar: A
Encoding: 65 65 36
Width: 636
Flags: W
LayerCount: 2
Fore
SplineSet
214 178 m 1,0,-1
 116 0 l 1,1,-1
 10 0 l 1,2,3
 122 202 122 202 228.5 372 c 128,-1,4
 335 542 335 542 439 693 c 1,5,-1
 534 693 l 1,6,7
 549 618 549 618 561.5 541.5 c 128,-1,8
 574 465 574 465 586 381 c 128,-1,9
 598 297 598 297 609 203 c 128,-1,10
 620 109 620 109 632 0 c 1,11,-1
 534 0 l 1,12,13
 529 45 529 45 525 90.5 c 128,-1,14
 521 136 521 136 516 178 c 1,15,-1
 214 178 l 1,0,-1
507 256 m 1,16,17
 499 337 499 337 488.5 417 c 128,-1,18
 478 497 478 497 464 582 c 1,19,20
 429 531 429 531 377 450.5 c 128,-1,21
 325 370 325 370 259 256 c 1,22,-1
 507 256 l 1,16,17
EndSplineSet
EndChar

StartChar: B
Encoding: 66 66 37
Width: 618
Flags: W
LayerCount: 2
Fore
SplineSet
263 -7 m 0,0,1
 243 -7 243 -7 219.5 -6 c 128,-1,2
 196 -5 196 -5 172 -3 c 128,-1,3
 148 -1 148 -1 125 2.5 c 128,-1,4
 102 6 102 6 84 11 c 1,5,-1
 245 683 l 1,6,7
 287 693 287 693 338.5 696.5 c 128,-1,8
 390 700 390 700 431 700 c 0,9,10
 482 700 482 700 524.5 691.5 c 128,-1,11
 567 683 567 683 597.5 664.5 c 128,-1,12
 628 646 628 646 645.5 616 c 128,-1,13
 663 586 663 586 663 544 c 0,14,15
 663 483 663 483 626.5 436.5 c 128,-1,16
 590 390 590 390 526 367 c 1,17,18
 569 351 569 351 595.5 318 c 128,-1,19
 622 285 622 285 622 237 c 0,20,21
 622 168 622 168 594 121 c 128,-1,22
 566 74 566 74 517.5 45.5 c 128,-1,23
 469 17 469 17 403.5 5 c 128,-1,24
 338 -7 338 -7 263 -7 c 0,0,1
254 324 m 1,25,-1
 196 78 l 1,26,27
 207 76 207 76 229 74.5 c 128,-1,28
 251 73 251 73 285 73 c 0,29,30
 322 73 322 73 364 78.5 c 128,-1,31
 406 84 406 84 441 100.5 c 128,-1,32
 476 117 476 117 499.5 147 c 128,-1,33
 523 177 523 177 523 227 c 0,34,35
 523 276 523 276 488 300 c 128,-1,36
 453 324 453 324 375 324 c 2,37,-1
 254 324 l 1,25,-1
273 400 m 1,38,-1
 368 400 l 2,39,40
 401 400 401 400 435.5 405.5 c 128,-1,41
 470 411 470 411 498.5 425.5 c 128,-1,42
 527 440 527 440 545.5 465 c 128,-1,43
 564 490 564 490 564 529 c 0,44,45
 564 580 564 580 526 600 c 128,-1,46
 488 620 488 620 410 620 c 0,47,48
 384 620 384 620 359 618 c 128,-1,49
 334 616 334 616 325 614 c 1,50,-1
 273 400 l 1,38,-1
EndSplineSet
EndChar

StartChar: C
Encoding: 67 67 38
Width: 600
Flags: W
LayerCount: 2
Fore
SplineSet
387 -15 m 0,0,1
 322 -15 322 -15 272.5 4 c 128,-1,2
 223 23 223 23 190 58 c 128,-1,3
 157 93 157 93 140.5 142.5 c 128,-1,4
 124 192 124 192 124 254 c 0,5,6
 124 344 124 344 152.5 426 c 128,-1,7
 181 508 181 508 233.5 571 c 128,-1,8
 286 634 286 634 360 671.5 c 128,-1,9
 434 709 434 709 525 709 c 0,10,11
 603 709 603 709 649.5 693 c 128,-1,12
 696 677 696 677 716 663 c 1,13,-1
 676 583 l 1,14,15
 653 598 653 598 613.5 611.5 c 128,-1,16
 574 625 574 625 520 625 c 0,17,18
 451 625 451 625 396 592.5 c 128,-1,19
 341 560 341 560 303 508.5 c 128,-1,20
 265 457 265 457 245 392.5 c 128,-1,21
 225 328 225 328 225 265 c 0,22,23
 225 70 225 70 394 70 c 0,24,25
 430 70 430 70 458.5 75 c 128,-1,26
 487 80 487 80 509 86.5 c 128,-1,27
 531 93 531 93 548 101 c 128,-1,28
 565 109 565 109 578 115 c 1,29,-1
 590 31 l 1,30,31
 578 24 578 24 558.5 16 c 128,-1,32
 539 8 539 8 513 1 c 128,-1,33
 487 -6 487 -6 455 -10.5 c 128,-1,34
 423 -15 423 -15 387 -15 c 0,0,1
EndSplineSet
EndChar

StartChar: D
Encoding: 68 68 39
Width: 691
Flags: W
LayerCount: 2
Fore
SplineSet
415 618 m 0,0,1
 340 618 340 618 325 614 c 1,2,-1
 197 80 l 1,3,4
 205 78 205 78 224 76.5 c 128,-1,5
 243 75 243 75 286 75 c 0,6,7
 365 75 365 75 428.5 101.5 c 128,-1,8
 492 128 492 128 536 175.5 c 128,-1,9
 580 223 580 223 604 288.5 c 128,-1,10
 628 354 628 354 628 432 c 0,11,12
 628 520 628 520 577 569 c 128,-1,13
 526 618 526 618 415 618 c 0,0,1
423 700 m 0,14,15
 577 700 577 700 653 627.5 c 128,-1,16
 729 555 729 555 729 432 c 0,17,18
 729 346 729 346 702 266.5 c 128,-1,19
 675 187 675 187 618 126 c 128,-1,20
 561 65 561 65 472.5 29 c 128,-1,21
 384 -7 384 -7 261 -7 c 0,22,23
 219 -7 219 -7 170 -3 c 128,-1,24
 121 1 121 1 84 11 c 1,25,-1
 245 684 l 1,26,27
 287 694 287 694 334 697 c 128,-1,28
 381 700 381 700 423 700 c 0,14,15
EndSplineSet
EndChar

StartChar: E
Encoding: 69 69 40
Width: 557
Flags: W
LayerCount: 2
Fore
SplineSet
81 0 m 1,0,-1
 247 693 l 1,1,-1
 656 693 l 1,2,-1
 637 612 l 1,3,-1
 324 612 l 1,4,-1
 274 403 l 1,5,-1
 552 403 l 1,6,-1
 533 324 l 1,7,-1
 256 324 l 1,8,-1
 197 81 l 1,9,-1
 533 81 l 1,10,-1
 514 0 l 1,11,-1
 81 0 l 1,0,-1
EndSplineSet
EndChar

StartChar: F
Encoding: 70 70 41
Width: 524
Flags: W
LayerCount: 2
Fore
SplineSet
81 0 m 1,0,-1
 247 693 l 1,1,-1
 652 693 l 1,2,-1
 633 612 l 1,3,-1
 324 612 l 1,4,-1
 273 400 l 1,5,-1
 547 400 l 1,6,-1
 528 321 l 1,7,-1
 255 321 l 1,8,-1
 178 0 l 1,9,-1
 81 0 l 1,0,-1
EndSplineSet
EndChar

StartChar: G
Encoding: 71 71 42
Width: 651
Flags: W
LayerCount: 2
Fore
SplineSet
380 -14 m 0,0,1
 254 -14 254 -14 189 58.5 c 128,-1,2
 124 131 124 131 124 254 c 0,3,4
 124 344 124 344 152.5 426 c 128,-1,5
 181 508 181 508 234 571 c 128,-1,6
 287 634 287 634 361.5 671.5 c 128,-1,7
 436 709 436 709 529 709 c 0,8,9
 575 709 575 709 608.5 703 c 128,-1,10
 642 697 642 697 666 689 c 128,-1,11
 690 681 690 681 705 672.5 c 128,-1,12
 720 664 720 664 729 658 c 1,13,-1
 686 579 l 1,14,15
 678 584 678 584 664 592 c 128,-1,16
 650 600 650 600 630 607.5 c 128,-1,17
 610 615 610 615 584 620 c 128,-1,18
 558 625 558 625 525 625 c 0,19,20
 454 625 454 625 398 592.5 c 128,-1,21
 342 560 342 560 303.5 508.5 c 128,-1,22
 265 457 265 457 245 392.5 c 128,-1,23
 225 328 225 328 225 265 c 0,24,25
 225 166 225 166 267 117.5 c 128,-1,26
 309 69 309 69 400 69 c 0,27,28
 437 69 437 69 467 74 c 128,-1,29
 497 79 497 79 510 84 c 1,30,-1
 570 338 l 1,31,-1
 665 338 l 1,32,-1
 589 22 l 1,33,34
 577 15 577 15 556 8.5 c 128,-1,35
 535 2 535 2 507 -3 c 128,-1,36
 479 -8 479 -8 446.5 -11 c 128,-1,37
 414 -14 414 -14 380 -14 c 0,0,1
EndSplineSet
EndChar

StartChar: H
Encoding: 72 72 43
Width: 681
Flags: W
LayerCount: 2
Fore
SplineSet
596 0 m 1,0,-1
 499 0 l 1,1,-1
 576 322 l 1,2,-1
 255 322 l 1,3,-1
 178 0 l 1,4,-1
 81 0 l 1,5,-1
 247 693 l 1,6,-1
 344 693 l 1,7,-1
 274 403 l 1,8,-1
 595 403 l 1,9,-1
 665 693 l 1,10,-1
 762 693 l 1,11,-1
 596 0 l 1,0,-1
EndSplineSet
EndChar

StartChar: I
Encoding: 73 73 44
Width: 263
Flags: W
LayerCount: 2
Fore
SplineSet
247 693 m 1,0,-1
 344 693 l 1,1,-1
 178 0 l 1,2,-1
 81 0 l 1,3,-1
 247 693 l 1,0,-1
EndSplineSet
EndChar

StartChar: J
Encoding: 74 74 45
Width: 482
Flags: W
LayerCount: 2
Fore
SplineSet
455 223 m 2,0,1
 443 175 443 175 428 131.5 c 128,-1,2
 413 88 413 88 385.5 55.5 c 128,-1,3
 358 23 358 23 313.5 4 c 128,-1,4
 269 -15 269 -15 199 -15 c 0,5,6
 164 -15 164 -15 135.5 -8.5 c 128,-1,7
 107 -2 107 -2 85 8 c 128,-1,8
 63 18 63 18 47.5 28.5 c 128,-1,9
 32 39 32 39 24 48 c 1,10,-1
 72 121 l 1,11,12
 88 105 88 105 120 87 c 128,-1,13
 152 69 152 69 201 69 c 0,14,15
 237 69 237 69 262 78 c 128,-1,16
 287 87 287 87 305 106.5 c 128,-1,17
 323 126 323 126 335.5 157 c 128,-1,18
 348 188 348 188 359 232 c 2,19,-1
 470 693 l 1,20,-1
 567 693 l 1,21,-1
 455 223 l 2,0,1
EndSplineSet
EndChar

StartChar: K
Encoding: 75 75 46
Width: 614
Flags: W
LayerCount: 2
Fore
SplineSet
750 693 m 1,0,1
 712 659 712 659 664.5 616.5 c 128,-1,2
 617 574 617 574 565.5 530 c 128,-1,3
 514 486 514 486 462 442 c 128,-1,4
 410 398 410 398 363 361 c 1,5,6
 394 332 394 332 428.5 289 c 128,-1,7
 463 246 463 246 496.5 197 c 128,-1,8
 530 148 530 148 560.5 97 c 128,-1,9
 591 46 591 46 614 0 c 1,10,-1
 506 0 l 1,11,12
 480 46 480 46 450 94 c 128,-1,13
 420 142 420 142 388.5 186 c 128,-1,14
 357 230 357 230 324 268.5 c 128,-1,15
 291 307 291 307 258 334 c 1,16,-1
 178 0 l 1,17,-1
 81 0 l 1,18,-1
 247 693 l 1,19,-1
 344 693 l 1,20,-1
 271 390 l 1,21,22
 315 423 315 423 366 465 c 128,-1,23
 417 507 417 507 466 549 c 128,-1,24
 515 591 515 591 557.5 629 c 128,-1,25
 600 667 600 667 628 693 c 1,26,-1
 750 693 l 1,0,1
EndSplineSet
EndChar

StartChar: L
Encoding: 76 76 47
Width: 507
Flags: W
LayerCount: 2
Fore
SplineSet
504 81 m 1,0,-1
 485 0 l 1,1,-1
 81 0 l 1,2,-1
 247 693 l 1,3,-1
 344 693 l 1,4,-1
 197 81 l 1,5,-1
 504 81 l 1,0,-1
EndSplineSet
EndChar

StartChar: M
Encoding: 77 77 48
Width: 847
Flags: W
LayerCount: 2
Fore
SplineSet
783 544 m 1,0,1
 767 522 767 522 743 487 c 128,-1,2
 719 452 719 452 691 410 c 128,-1,3
 663 368 663 368 633 322.5 c 128,-1,4
 603 277 603 277 575 234.5 c 128,-1,5
 547 192 547 192 523 155.5 c 128,-1,6
 499 119 499 119 484 96 c 1,7,-1
 406 96 l 1,8,9
 402 120 402 120 395.5 156.5 c 128,-1,10
 389 193 389 193 381 235.5 c 128,-1,11
 373 278 373 278 364.5 323.5 c 128,-1,12
 356 369 356 369 347.5 411 c 128,-1,13
 339 453 339 453 332 487.5 c 128,-1,14
 325 522 325 522 320 544 c 1,15,16
 278 415 278 415 238 278 c 128,-1,17
 198 141 198 141 160 0 c 1,18,-1
 64 0 l 1,19,20
 88 90 88 90 114.5 181.5 c 128,-1,21
 141 273 141 273 168.5 361.5 c 128,-1,22
 196 450 196 450 223.5 534 c 128,-1,23
 251 618 251 618 277 693 c 1,24,-1
 372 693 l 1,25,26
 384 649 384 649 397.5 589 c 128,-1,27
 411 529 411 529 424.5 463.5 c 128,-1,28
 438 398 438 398 449.5 333 c 128,-1,29
 461 268 461 268 469 215 c 1,30,31
 505 269 505 269 548.5 334 c 128,-1,32
 592 399 592 399 636 464.5 c 128,-1,33
 680 530 680 530 721.5 589.5 c 128,-1,34
 763 649 763 649 796 693 c 1,35,-1
 889 693 l 1,36,37
 872 524 872 524 843.5 349.5 c 128,-1,38
 815 175 815 175 781 0 c 1,39,-1
 684 0 l 1,40,41
 714 144 714 144 739 279.5 c 128,-1,42
 764 415 764 415 783 544 c 1,0,1
EndSplineSet
EndChar

StartChar: N
Encoding: 78 78 49
Width: 698
Flags: W
LayerCount: 2
Fore
SplineSet
528 0 m 1,0,1
 510 58 510 58 485 132 c 128,-1,2
 460 206 460 206 430.5 282 c 128,-1,3
 401 358 401 358 370 429.5 c 128,-1,4
 339 501 339 501 309 554 c 1,5,-1
 176 0 l 1,6,-1
 81 0 l 1,7,-1
 247 693 l 1,8,-1
 330 693 l 1,9,10
 362 639 362 639 395.5 570.5 c 128,-1,11
 429 502 429 502 459.5 430 c 128,-1,12
 490 358 490 358 516 289 c 128,-1,13
 542 220 542 220 559 165 c 1,14,-1
 683 693 l 1,15,-1
 778 693 l 1,16,-1
 613 0 l 1,17,-1
 528 0 l 1,0,1
EndSplineSet
EndChar

StartChar: O
Encoding: 79 79 50
Width: 739
Flags: W
LayerCount: 2
Fore
SplineSet
525 709 m 0,0,1
 580 709 580 709 626.5 692.5 c 128,-1,2
 673 676 673 676 706.5 643 c 128,-1,3
 740 610 740 610 758.5 560.5 c 128,-1,4
 777 511 777 511 777 445 c 0,5,6
 777 362 777 362 751.5 280 c 128,-1,7
 726 198 726 198 676 132.5 c 128,-1,8
 626 67 626 67 551 26 c 128,-1,9
 476 -15 476 -15 376 -15 c 0,10,11
 320 -15 320 -15 274 1.5 c 128,-1,12
 228 18 228 18 194.5 51 c 128,-1,13
 161 84 161 84 142.5 133.5 c 128,-1,14
 124 183 124 183 124 249 c 0,15,16
 124 331 124 331 149 413.5 c 128,-1,17
 174 496 174 496 224.5 561.5 c 128,-1,18
 275 627 275 627 350 668 c 128,-1,19
 425 709 425 709 525 709 c 0,0,1
386 69 m 0,20,21
 453 69 453 69 507 101.5 c 128,-1,22
 561 134 561 134 598.5 186 c 128,-1,23
 636 238 636 238 656 303 c 128,-1,24
 676 368 676 368 676 433 c 0,25,26
 676 522 676 522 637.5 573.5 c 128,-1,27
 599 625 599 625 515 625 c 0,28,29
 447 625 447 625 393.5 592.5 c 128,-1,30
 340 560 340 560 302.5 508 c 128,-1,31
 265 456 265 456 245 391 c 128,-1,32
 225 326 225 326 225 261 c 0,33,34
 225 172 225 172 263.5 120.5 c 128,-1,35
 302 69 302 69 386 69 c 0,20,21
EndSplineSet
EndChar

StartChar: P
Encoding: 80 80 51
Width: 590
Flags: W
LayerCount: 2
Fore
SplineSet
423 700 m 0,0,1
 544 700 544 700 605.5 654 c 128,-1,2
 667 608 667 608 667 520 c 0,3,4
 667 452 667 452 641.5 402.5 c 128,-1,5
 616 353 616 353 569 321 c 128,-1,6
 522 289 522 289 456 273.5 c 128,-1,7
 390 258 390 258 309 258 c 2,8,-1
 240 258 l 1,9,-1
 178 0 l 1,10,-1
 81 0 l 1,11,-1
 245 684 l 1,12,13
 287 694 287 694 334 697 c 128,-1,14
 381 700 381 700 423 700 c 0,0,1
411 618 m 0,15,16
 340 618 340 618 325 614 c 1,17,-1
 259 339 l 1,18,-1
 322 339 l 2,19,20
 364 339 364 339 408 346.5 c 128,-1,21
 452 354 452 354 487 373 c 128,-1,22
 522 392 522 392 544.5 425.5 c 128,-1,23
 567 459 567 459 567 512 c 0,24,25
 567 569 567 569 525 593.5 c 128,-1,26
 483 618 483 618 411 618 c 0,15,16
EndSplineSet
EndChar

StartChar: Q
Encoding: 81 81 52
Width: 739
Flags: W
LayerCount: 2
Fore
SplineSet
433 -11 m 1,0,1
 432 -14 432 -14 432 -18 c 128,-1,2
 432 -22 432 -22 432 -24 c 0,3,4
 432 -44 432 -44 447.5 -58 c 128,-1,5
 463 -72 463 -72 488.5 -82 c 128,-1,6
 514 -92 514 -92 547.5 -98.5 c 128,-1,7
 581 -105 581 -105 617 -109 c 1,8,-1
 583 -185 l 1,9,10
 548 -181 548 -181 505 -173 c 128,-1,11
 462 -165 462 -165 424.5 -147.5 c 128,-1,12
 387 -130 387 -130 362 -101 c 128,-1,13
 337 -72 337 -72 337 -26 c 0,14,15
 337 -24 337 -24 337 -21 c 128,-1,16
 337 -18 337 -18 338 -13 c 1,17,18
 242 -3 242 -3 183 63 c 128,-1,19
 124 129 124 129 124 249 c 0,20,21
 124 331 124 331 149 413.5 c 128,-1,22
 174 496 174 496 224.5 561.5 c 128,-1,23
 275 627 275 627 350 668 c 128,-1,24
 425 709 425 709 525 709 c 0,25,26
 580 709 580 709 626.5 692.5 c 128,-1,27
 673 676 673 676 706.5 643 c 128,-1,28
 740 610 740 610 758.5 560.5 c 128,-1,29
 777 511 777 511 777 445 c 0,30,31
 777 368 777 368 755.5 292 c 128,-1,32
 734 216 734 216 690.5 152.5 c 128,-1,33
 647 89 647 89 582.5 45 c 128,-1,34
 518 1 518 1 433 -11 c 1,0,1
386 69 m 0,35,36
 453 69 453 69 507 101.5 c 128,-1,37
 561 134 561 134 598.5 186 c 128,-1,38
 636 238 636 238 656 303 c 128,-1,39
 676 368 676 368 676 433 c 0,40,41
 676 522 676 522 637.5 573.5 c 128,-1,42
 599 625 599 625 515 625 c 0,43,44
 447 625 447 625 393.5 592.5 c 128,-1,45
 340 560 340 560 302.5 508 c 128,-1,46
 265 456 265 456 245 391 c 128,-1,47
 225 326 225 326 225 261 c 0,48,49
 225 172 225 172 263.5 120.5 c 128,-1,50
 302 69 302 69 386 69 c 0,35,36
EndSplineSet
EndChar

StartChar: R
Encoding: 82 82 53
Width: 609
Flags: W
LayerCount: 2
Fore
SplineSet
423 700 m 0,0,1
 534 700 534 700 599 655 c 128,-1,2
 664 610 664 610 664 523 c 0,3,4
 664 435 664 435 612.5 375.5 c 128,-1,5
 561 316 561 316 468 290 c 1,6,7
 480 269 480 269 496 236.5 c 128,-1,8
 512 204 512 204 529 164.5 c 128,-1,9
 546 125 546 125 562 82.5 c 128,-1,10
 578 40 578 40 590 0 c 1,11,-1
 491 0 l 1,12,13
 477 38 477 38 462 77 c 128,-1,14
 447 116 447 116 431.5 152 c 128,-1,15
 416 188 416 188 400.5 219.5 c 128,-1,16
 385 251 385 251 372 275 c 1,17,18
 359 274 359 274 346 273.5 c 128,-1,19
 333 273 333 273 320 273 c 2,20,-1
 243 273 l 1,21,-1
 178 0 l 1,22,-1
 81 0 l 1,23,-1
 245 684 l 1,24,25
 287 694 287 694 334 697 c 128,-1,26
 381 700 381 700 423 700 c 0,0,1
411 618 m 0,27,28
 340 618 340 618 325 614 c 1,29,-1
 262 352 l 1,30,-1
 321 352 l 2,31,32
 362 352 362 352 405 358 c 128,-1,33
 448 364 448 364 483.5 381.5 c 128,-1,34
 519 399 519 399 541.5 430.5 c 128,-1,35
 564 462 564 462 564 514 c 0,36,37
 564 570 564 570 521.5 594 c 128,-1,38
 479 618 479 618 411 618 c 0,27,28
EndSplineSet
EndChar

StartChar: S
Encoding: 83 83 54
Width: 517
Flags: W
LayerCount: 2
Fore
SplineSet
246 69 m 0,0,1
 277 69 277 69 307.5 75.5 c 128,-1,2
 338 82 338 82 362 97 c 128,-1,3
 386 112 386 112 401 136.5 c 128,-1,4
 416 161 416 161 416 197 c 0,5,6
 416 222 416 222 406.5 240.5 c 128,-1,7
 397 259 397 259 380.5 273.5 c 128,-1,8
 364 288 364 288 341.5 300.5 c 128,-1,9
 319 313 319 313 292 327 c 0,10,11
 269 339 269 339 245.5 353 c 128,-1,12
 222 367 222 367 203.5 387.5 c 128,-1,13
 185 408 185 408 173.5 436 c 128,-1,14
 162 464 162 464 162 503 c 0,15,16
 162 548 162 548 179.5 586 c 128,-1,17
 197 624 197 624 231 651.5 c 128,-1,18
 265 679 265 679 314.5 694 c 128,-1,19
 364 709 364 709 428 709 c 0,20,21
 458 709 458 709 485 704.5 c 128,-1,22
 512 700 512 700 534.5 693 c 128,-1,23
 557 686 557 686 574 678.5 c 128,-1,24
 591 671 591 671 599 665 c 1,25,-1
 554 589 l 1,26,27
 537 603 537 603 499.5 614.5 c 128,-1,28
 462 626 462 626 411 626 c 0,29,30
 379 626 379 626 351.5 619.5 c 128,-1,31
 324 613 324 613 304 599 c 128,-1,32
 284 585 284 585 272 563.5 c 128,-1,33
 260 542 260 542 260 512 c 0,34,35
 260 486 260 486 268 468.5 c 128,-1,36
 276 451 276 451 290 437.5 c 128,-1,37
 304 424 304 424 324.5 413 c 128,-1,38
 345 402 345 402 369 390 c 0,39,40
 399 375 399 375 425.5 359.5 c 128,-1,41
 452 344 452 344 472 323 c 128,-1,42
 492 302 492 302 503.5 274 c 128,-1,43
 515 246 515 246 515 206 c 0,44,45
 515 151 515 151 493.5 109.5 c 128,-1,46
 472 68 472 68 434.5 40.5 c 128,-1,47
 397 13 397 13 345.5 -1 c 128,-1,48
 294 -15 294 -15 234 -15 c 0,49,50
 194 -15 194 -15 161.5 -9.5 c 128,-1,51
 129 -4 129 -4 104.5 4 c 128,-1,52
 80 12 80 12 63 20.5 c 128,-1,53
 46 29 46 29 37 36 c 1,54,-1
 82 115 l 1,55,56
 101 102 101 102 142 85.5 c 128,-1,57
 183 69 183 69 246 69 c 0,0,1
EndSplineSet
EndChar

StartChar: T
Encoding: 84 84 55
Width: 555
Flags: W
LayerCount: 2
Fore
SplineSet
699 693 m 1,0,-1
 680 612 l 1,1,-1
 471 612 l 1,2,-1
 324 0 l 1,3,-1
 227 0 l 1,4,-1
 374 612 l 1,5,-1
 165 612 l 1,6,-1
 184 693 l 1,7,-1
 699 693 l 1,0,-1
EndSplineSet
EndChar

StartChar: U
Encoding: 85 85 56
Width: 666
Flags: W
LayerCount: 2
Fore
SplineSet
334 -15 m 0,0,1
 282 -15 282 -15 244 0.5 c 128,-1,2
 206 16 206 16 181 42.5 c 128,-1,3
 156 69 156 69 144 105.5 c 128,-1,4
 132 142 132 142 132 184 c 0,5,6
 132 206 132 206 136 233 c 128,-1,7
 140 260 140 260 145 283 c 2,8,-1
 243 693 l 1,9,-1
 340 693 l 1,10,-1
 240 277 l 2,11,12
 235 258 235 258 232 235 c 128,-1,13
 229 212 229 212 229 192 c 0,14,15
 229 166 229 166 235 144 c 128,-1,16
 241 122 241 122 255.5 105.5 c 128,-1,17
 270 89 270 89 293 79.5 c 128,-1,18
 316 70 316 70 349 70 c 0,19,20
 434 70 434 70 481 117.5 c 128,-1,21
 528 165 528 165 552 269 c 2,22,-1
 654 693 l 1,23,-1
 751 693 l 1,24,-1
 647 258 l 2,25,26
 633 201 633 201 614.5 151 c 128,-1,27
 596 101 596 101 562 64.5 c 128,-1,28
 528 28 528 28 473.5 6.5 c 128,-1,29
 419 -15 419 -15 334 -15 c 0,0,1
EndSplineSet
EndChar

StartChar: V
Encoding: 86 86 57
Width: 623
Flags: W
LayerCount: 2
Fore
SplineSet
331 115 m 1,0,1
 373 175 373 175 416.5 244 c 128,-1,2
 460 313 460 313 503.5 387.5 c 128,-1,3
 547 462 547 462 588.5 539 c 128,-1,4
 630 616 630 616 668 693 c 1,5,-1
 775 693 l 1,6,7
 720 589 720 589 667.5 495.5 c 128,-1,8
 615 402 615 402 563.5 316.5 c 128,-1,9
 512 231 512 231 460.5 152.5 c 128,-1,10
 409 74 409 74 355 0 c 1,11,-1
 260 0 l 1,12,13
 245 75 245 75 232 151.5 c 128,-1,14
 219 228 219 228 208 312 c 128,-1,15
 197 396 197 396 186.5 489.5 c 128,-1,16
 176 583 176 583 166 693 c 1,17,-1
 266 693 l 1,18,19
 282 515 282 515 296.5 374 c 128,-1,20
 311 233 311 233 331 115 c 1,0,1
EndSplineSet
EndChar

StartChar: W
Encoding: 87 87 58
Width: 916
Flags: W
LayerCount: 2
Fore
SplineSet
637 609 m 1,0,1
 645 475 645 475 659.5 349 c 128,-1,2
 674 223 674 223 688 124 c 1,3,4
 718 180 718 180 750.5 247 c 128,-1,5
 783 314 783 314 815.5 387.5 c 128,-1,6
 848 461 848 461 880.5 538.5 c 128,-1,7
 913 616 913 616 943 693 c 1,8,-1
 1046 693 l 1,9,10
 966 495 966 495 886.5 324 c 128,-1,11
 807 153 807 153 719 0 c 1,12,-1
 621 0 l 1,13,14
 604 106 604 106 588 218.5 c 128,-1,15
 572 331 572 331 562 464 c 1,16,17
 494 340 494 340 428.5 227.5 c 128,-1,18
 363 115 363 115 289 0 c 1,19,-1
 191 0 l 1,20,21
 183 81 183 81 180 162 c 128,-1,22
 177 243 177 243 177 330 c 256,23,24
 177 417 177 417 180 505.5 c 128,-1,25
 183 594 183 594 189 693 c 1,26,-1
 285 693 l 1,27,28
 278 588 278 588 274 485.5 c 128,-1,29
 270 383 270 383 270 277 c 0,30,31
 270 200 270 200 273 124 c 1,32,33
 342 230 342 230 410.5 353 c 128,-1,34
 479 476 479 476 548 609 c 1,35,-1
 637 609 l 1,0,1
EndSplineSet
EndChar

StartChar: X
Encoding: 88 88 59
Width: 605
Flags: W
LayerCount: 2
Fore
SplineSet
484 0 m 1,0,1
 461 70 461 70 433.5 142.5 c 128,-1,2
 406 215 406 215 372 290 c 1,3,-1
 127 0 l 1,4,-1
 13 0 l 1,5,-1
 332 370 l 1,6,-1
 191 693 l 1,7,-1
 298 693 l 1,8,-1
 403 438 l 1,9,10
 457 501 457 501 509 565 c 128,-1,11
 561 629 561 629 606 693 c 1,12,-1
 717 693 l 1,13,14
 657 611 657 611 585 526.5 c 128,-1,15
 513 442 513 442 443 364 c 1,16,17
 481 274 481 274 518.5 181 c 128,-1,18
 556 88 556 88 585 0 c 1,19,-1
 484 0 l 1,0,1
EndSplineSet
EndChar

StartChar: Y
Encoding: 89 89 60
Width: 572
Flags: W
LayerCount: 2
Fore
SplineSet
232 0 m 1,0,-1
 298 278 l 1,1,2
 259 383 259 383 225.5 488.5 c 128,-1,3
 192 594 192 594 164 693 c 1,4,-1
 269 693 l 1,5,6
 288 612 288 612 311.5 528 c 128,-1,7
 335 444 335 444 364 366 c 1,8,9
 430 443 430 443 497.5 528 c 128,-1,10
 565 613 565 613 617 693 c 1,11,-1
 728 693 l 1,12,13
 653 591 653 591 571 488.5 c 128,-1,14
 489 386 489 386 395 278 c 1,15,-1
 329 0 l 1,16,-1
 232 0 l 1,0,-1
EndSplineSet
EndChar

StartChar: Z
Encoding: 90 90 61
Width: 561
Flags: W
LayerCount: 2
Fore
SplineSet
666 616 m 1,0,1
 638 591 638 591 600 554 c 128,-1,2
 562 517 562 517 518 472.5 c 128,-1,3
 474 428 474 428 427.5 378.5 c 128,-1,4
 381 329 381 329 335 277.5 c 128,-1,5
 289 226 289 226 247 176 c 128,-1,6
 205 126 205 126 171 81 c 1,7,-1
 545 81 l 1,8,-1
 526 0 l 1,9,-1
 35 0 l 1,10,-1
 50 65 l 1,11,12
 79 104 79 104 117 150.5 c 128,-1,13
 155 197 155 197 198 247.5 c 128,-1,14
 241 298 241 298 287 349 c 128,-1,15
 333 400 333 400 378 448 c 128,-1,16
 423 496 423 496 465 538 c 128,-1,17
 507 580 507 580 542 612 c 1,18,-1
 199 612 l 1,19,-1
 218 693 l 1,20,-1
 684 693 l 1,21,-1
 666 616 l 1,0,1
EndSplineSet
EndChar

StartChar: bracketleft
Encoding: 91 91 62
Width: 322
Flags: W
LayerCount: 2
Fore
SplineSet
281 783 m 1,0,-1
 502 783 l 1,1,-1
 485 710 l 1,2,-1
 351 710 l 1,3,-1
 153 -112 l 1,4,-1
 287 -112 l 1,5,-1
 269 -185 l 1,6,-1
 48 -185 l 1,7,-1
 281 783 l 1,0,-1
EndSplineSet
Substitution2: "'case' Case-Sensitive Forms lookup 18 subtable" Bracketleft
EndChar

StartChar: backslash
Encoding: 92 92 63
Width: 376
Flags: W
LayerCount: 2
Fore
SplineSet
165 783 m 1,0,-1
 250 783 l 1,1,-1
 356 -185 l 1,2,-1
 269 -185 l 1,3,-1
 165 783 l 1,0,-1
EndSplineSet
Substitution2: "'case' Case-Sensitive Forms lookup 18 subtable" Backslash
EndChar

StartChar: bracketright
Encoding: 93 93 64
Width: 322
Flags: W
LayerCount: 2
Fore
SplineSet
180 -185 m 1,0,-1
 -41 -185 l 1,1,-1
 -24 -112 l 1,2,-1
 110 -112 l 1,3,-1
 308 710 l 1,4,-1
 174 710 l 1,5,-1
 192 783 l 1,6,-1
 413 783 l 1,7,-1
 180 -185 l 1,0,-1
EndSplineSet
Substitution2: "'case' Case-Sensitive Forms lookup 18 subtable" Bracketright
EndChar

StartChar: asciicircum
Encoding: 94 94 65
Width: 564
Flags: W
LayerCount: 2
Fore
SplineSet
421 600 m 1,0,-1
 198 321 l 1,1,-1
 130 362 l 1,2,-1
 398 696 l 1,3,-1
 477 696 l 1,4,-1
 586 353 l 1,5,-1
 510 320 l 1,6,-1
 421 600 l 1,0,-1
EndSplineSet
EndChar

StartChar: underscore
Encoding: 95 95 66
Width: 496
Flags: W
LayerCount: 2
Fore
SplineSet
-27 -106 m 1,0,-1
 473 -106 l 1,1,-1
 454 -185 l 1,2,-1
 -46 -185 l 1,3,-1
 -27 -106 l 1,0,-1
EndSplineSet
EndChar

StartChar: grave
Encoding: 96 96 67
Width: 376
Flags: W
LayerCount: 2
Fore
SplineSet
298 779 m 1,0,-1
 425 619 l 1,1,-1
 376 576 l 1,2,-1
 230 722 l 1,3,-1
 298 779 l 1,0,-1
EndSplineSet
EndChar

StartChar: a
Encoding: 97 97 68
Width: 544
Flags: W
LayerCount: 2
Fore
SplineSet
432 -6 m 1,0,1
 427 5 427 5 422 18.5 c 128,-1,2
 417 32 417 32 414 47 c 1,3,4
 392 27 392 27 355 7 c 128,-1,5
 318 -13 318 -13 264 -13 c 0,6,7
 220 -13 220 -13 188.5 1 c 128,-1,8
 157 15 157 15 137 40 c 128,-1,9
 117 65 117 65 107.5 99 c 128,-1,10
 98 133 98 133 98 174 c 0,11,12
 98 241 98 241 120.5 305 c 128,-1,13
 143 369 143 369 188 419 c 128,-1,14
 233 469 233 469 301 500 c 128,-1,15
 369 531 369 531 460 531 c 0,16,17
 487 531 487 531 523 525 c 128,-1,18
 559 519 559 519 585 505 c 1,19,-1
 508 191 l 2,20,21
 503 168 503 168 499.5 147 c 128,-1,22
 496 126 496 126 496 103 c 256,23,24
 496 80 496 80 500 56.5 c 128,-1,25
 504 33 504 33 514 6 c 1,26,-1
 432 -6 l 1,0,1
283 66 m 0,27,28
 325 66 325 66 355 84 c 128,-1,29
 385 102 385 102 407 126 c 1,30,31
 408 143 408 143 410.5 161.5 c 128,-1,32
 413 180 413 180 417 199 c 2,33,-1
 477 447 l 1,34,35
 472 449 472 449 460.5 450 c 128,-1,36
 449 451 449 451 440 451 c 0,37,38
 383 451 383 451 337 429 c 128,-1,39
 291 407 291 407 258.5 370.5 c 128,-1,40
 226 334 226 334 208.5 285.5 c 128,-1,41
 191 237 191 237 191 184 c 0,42,43
 191 163 191 163 195 141.5 c 128,-1,44
 199 120 199 120 209.5 103.5 c 128,-1,45
 220 87 220 87 237.5 76.5 c 128,-1,46
 255 66 255 66 283 66 c 0,27,28
EndSplineSet
Substitution2: "'case' Case-Sensitive Forms lookup 19 subtable" A
Substitution2: "'ordn' Ordinals in Latin lookup 9 subtable" ordfeminine
EndChar

StartChar: b
Encoding: 98 98 69
Width: 555
Flags: W
LayerCount: 2
Fore
SplineSet
289 499 m 1,0,1
 312 513 312 513 342 523 c 128,-1,2
 372 533 372 533 406 533 c 0,3,4
 449 533 449 533 481.5 519 c 128,-1,5
 514 505 514 505 535 480.5 c 128,-1,6
 556 456 556 456 566.5 422 c 128,-1,7
 577 388 577 388 577 349 c 0,8,9
 577 280 577 280 555 215.5 c 128,-1,10
 533 151 533 151 488 100.5 c 128,-1,11
 443 50 443 50 375.5 19.5 c 128,-1,12
 308 -11 308 -11 217 -11 c 0,13,14
 202 -11 202 -11 184 -9.5 c 128,-1,15
 166 -8 166 -8 147.5 -4 c 128,-1,16
 129 0 129 0 111.5 6 c 128,-1,17
 94 12 94 12 81 20 c 1,18,-1
 258 760 l 1,19,-1
 355 776 l 1,20,-1
 289 499 l 1,0,1
383 454 m 256,21,22
 353 454 353 454 323.5 443.5 c 128,-1,23
 294 433 294 433 268 414 c 1,24,-1
 187 75 l 1,25,26
 197 73 197 73 210 71 c 128,-1,27
 223 69 223 69 236 69 c 0,28,29
 293 69 293 69 339 91.5 c 128,-1,30
 385 114 385 114 417 151.5 c 128,-1,31
 449 189 449 189 466.5 237.5 c 128,-1,32
 484 286 484 286 484 339 c 0,33,34
 484 361 484 361 479.5 382 c 128,-1,35
 475 403 475 403 463.5 419 c 128,-1,36
 452 435 452 435 432.5 444.5 c 128,-1,37
 413 454 413 454 383 454 c 256,21,22
EndSplineSet
Substitution2: "'case' Case-Sensitive Forms lookup 19 subtable" B
EndChar

StartChar: c
Encoding: 99 99 70
Width: 451
Flags: W
LayerCount: 2
Fore
SplineSet
100 186 m 0,0,1
 100 254 100 254 120.5 317 c 128,-1,2
 141 380 141 380 181 428 c 128,-1,3
 221 476 221 476 279 504.5 c 128,-1,4
 337 533 337 533 412 533 c 0,5,6
 445 533 445 533 475 528.5 c 128,-1,7
 505 524 505 524 532 511 c 1,8,-1
 497 433 l 1,9,10
 481 442 481 442 459.5 447 c 128,-1,11
 438 452 438 452 404 452 c 0,12,13
 355 452 355 452 316 430.5 c 128,-1,14
 277 409 277 409 249.5 373.5 c 128,-1,15
 222 338 222 338 207.5 291.5 c 128,-1,16
 193 245 193 245 193 195 c 0,17,18
 193 169 193 169 198.5 146 c 128,-1,19
 204 123 204 123 218 105.5 c 128,-1,20
 232 88 232 88 255.5 78 c 128,-1,21
 279 68 279 68 315 68 c 0,22,23
 333 68 333 68 353 71.5 c 128,-1,24
 373 75 373 75 390 80 c 128,-1,25
 407 85 407 85 420.5 90.5 c 128,-1,26
 434 96 434 96 440 101 c 1,27,-1
 448 22 l 1,28,29
 429 10 429 10 389 -1.5 c 128,-1,30
 349 -13 349 -13 298 -13 c 0,31,32
 250 -13 250 -13 213 1.5 c 128,-1,33
 176 16 176 16 151 42.5 c 128,-1,34
 126 69 126 69 113 105.5 c 128,-1,35
 100 142 100 142 100 186 c 0,0,1
EndSplineSet
Substitution2: "'case' Case-Sensitive Forms lookup 19 subtable" C
EndChar

StartChar: d
Encoding: 100 100 71
Width: 547
Flags: W
LayerCount: 2
Fore
SplineSet
499 103 m 256,0,1
 499 80 499 80 503 56.5 c 128,-1,2
 507 33 507 33 517 6 c 1,3,-1
 435 -6 l 1,4,5
 424 16 424 16 418 47 c 1,6,7
 396 27 396 27 359 7 c 128,-1,8
 322 -13 322 -13 268 -13 c 0,9,10
 224 -13 224 -13 192 0.5 c 128,-1,11
 160 14 160 14 139 39 c 128,-1,12
 118 64 118 64 108 98.5 c 128,-1,13
 98 133 98 133 98 174 c 0,14,15
 98 241 98 241 120.5 305 c 128,-1,16
 143 369 143 369 187.5 419 c 128,-1,17
 232 469 232 469 299 499.5 c 128,-1,18
 366 530 366 530 455 530 c 0,19,20
 466 530 466 530 477 529 c 128,-1,21
 488 528 488 528 500 526 c 1,22,-1
 556 760 l 1,23,-1
 653 776 l 1,24,-1
 512 191 l 2,25,26
 507 168 507 168 503 147 c 128,-1,27
 499 126 499 126 499 103 c 256,0,1
287 66 m 0,28,29
 329 66 329 66 358.5 83.5 c 128,-1,30
 388 101 388 101 410 124 c 1,31,32
 411 140 411 140 413.5 158.5 c 128,-1,33
 416 177 416 177 421 199 c 2,34,-1
 481 449 l 1,35,36
 472 451 472 451 461 451.5 c 128,-1,37
 450 452 450 452 440 452 c 0,38,39
 383 452 383 452 337 430 c 128,-1,40
 291 408 291 408 258.5 371 c 128,-1,41
 226 334 226 334 208.5 285.5 c 128,-1,42
 191 237 191 237 191 184 c 0,43,44
 191 161 191 161 196 140 c 128,-1,45
 201 119 201 119 212 102.5 c 128,-1,46
 223 86 223 86 241.5 76 c 128,-1,47
 260 66 260 66 287 66 c 0,28,29
EndSplineSet
Substitution2: "'case' Case-Sensitive Forms lookup 19 subtable" D
EndChar

StartChar: e
Encoding: 101 101 72
Width: 518
Flags: W
LayerCount: 2
Fore
SplineSet
204 273 m 1,0,1
 262 275 262 275 310 280.5 c 128,-1,2
 358 286 358 286 393 299.5 c 128,-1,3
 428 313 428 313 447.5 336 c 128,-1,4
 467 359 467 359 467 396 c 0,5,6
 467 405 467 405 463.5 415 c 128,-1,7
 460 425 460 425 451.5 433.5 c 128,-1,8
 443 442 443 442 428 447.5 c 128,-1,9
 413 453 413 453 391 453 c 0,10,11
 356 453 356 453 325.5 438 c 128,-1,12
 295 423 295 423 271 398.5 c 128,-1,13
 247 374 247 374 230 341.5 c 128,-1,14
 213 309 213 309 204 273 c 1,0,1
299 -13 m 0,15,16
 248 -13 248 -13 211 1.5 c 128,-1,17
 174 16 174 16 149 41.5 c 128,-1,18
 124 67 124 67 112 101 c 128,-1,19
 100 135 100 135 100 173 c 0,20,21
 100 243 100 243 121 308 c 128,-1,22
 142 373 142 373 181 423 c 128,-1,23
 220 473 220 473 276 502.5 c 128,-1,24
 332 532 332 532 403 532 c 0,25,26
 444 532 444 532 473.5 521.5 c 128,-1,27
 503 511 503 511 521.5 493 c 128,-1,28
 540 475 540 475 549 451.5 c 128,-1,29
 558 428 558 428 558 403 c 0,30,31
 558 356 558 356 541 323.5 c 128,-1,32
 524 291 524 291 496 269 c 128,-1,33
 468 247 468 247 430.5 235 c 128,-1,34
 393 223 393 223 352.5 216 c 128,-1,35
 312 209 312 209 270.5 206.5 c 128,-1,36
 229 204 229 204 192 202 c 1,37,38
 191 194 191 194 191 189 c 128,-1,39
 191 184 191 184 191 181 c 0,40,41
 191 158 191 158 196.5 137.5 c 128,-1,42
 202 117 202 117 217 101.5 c 128,-1,43
 232 86 232 86 258.5 77 c 128,-1,44
 285 68 285 68 328 68 c 0,45,46
 347 68 347 68 367.5 71.5 c 128,-1,47
 388 75 388 75 406.5 80.5 c 128,-1,48
 425 86 425 86 439.5 91.5 c 128,-1,49
 454 97 454 97 460 102 c 1,50,-1
 468 23 l 1,51,52
 448 12 448 12 403.5 -0.5 c 128,-1,53
 359 -13 359 -13 299 -13 c 0,15,16
EndSplineSet
Substitution2: "'case' Case-Sensitive Forms lookup 19 subtable" E
EndChar

StartChar: f
Encoding: 102 102 73
Width: 368
Flags: W
LayerCount: 2
Fore
SplineSet
294 520 m 1,0,-1
 468 520 l 1,1,-1
 450 442 l 1,2,-1
 276 442 l 1,3,-1
 196 112 l 2,4,5
 184 61 184 61 175 21 c 128,-1,6
 166 -19 166 -19 153.5 -54 c 128,-1,7
 141 -89 141 -89 120.5 -121.5 c 128,-1,8
 100 -154 100 -154 65 -189 c 1,9,-1
 -17 -177 l 1,10,11
 13 -138 13 -138 30 -111 c 128,-1,12
 47 -84 47 -84 58.5 -56 c 128,-1,13
 70 -28 70 -28 78.5 8.5 c 128,-1,14
 87 45 87 45 101 103 c 2,15,-1
 212 567 l 2,16,17
 224 617 224 617 242.5 656 c 128,-1,18
 261 695 261 695 289.5 721.5 c 128,-1,19
 318 748 318 748 357 762 c 128,-1,20
 396 776 396 776 450 776 c 0,21,22
 485 776 485 776 516.5 769 c 128,-1,23
 548 762 548 762 564 754 c 1,24,-1
 527 680 l 1,25,26
 519 684 519 684 499.5 690 c 128,-1,27
 480 696 480 696 442 696 c 0,28,29
 409 696 409 696 386 686.5 c 128,-1,30
 363 677 363 677 347 660 c 128,-1,31
 331 643 331 643 321.5 619 c 128,-1,32
 312 595 312 595 305 565 c 2,33,-1
 294 520 l 1,0,-1
EndSplineSet
Substitution2: "'case' Case-Sensitive Forms lookup 19 subtable" F
EndChar

StartChar: g
Encoding: 103 103 74
Width: 550
Flags: W
LayerCount: 2
Fore
SplineSet
202 -108 m 0,0,1
 243 -108 243 -108 274 -98 c 128,-1,2
 305 -88 305 -88 327.5 -69 c 128,-1,3
 350 -50 350 -50 364 -24 c 128,-1,4
 378 2 378 2 386 35 c 1,5,-1
 390 54 l 1,6,7
 370 43 370 43 336 32 c 128,-1,8
 302 21 302 21 266 21 c 0,9,10
 185 21 185 21 141.5 61.5 c 128,-1,11
 98 102 98 102 98 175 c 0,12,13
 98 242 98 242 120 306 c 128,-1,14
 142 370 142 370 187 420 c 128,-1,15
 232 470 232 470 299 500.5 c 128,-1,16
 366 531 366 531 456 531 c 0,17,18
 470 531 470 531 487.5 529 c 128,-1,19
 505 527 505 527 523.5 523.5 c 128,-1,20
 542 520 542 520 559.5 514 c 128,-1,21
 577 508 577 508 590 500 c 1,22,-1
 481 45 l 2,23,24
 468 -9 468 -9 449 -52 c 128,-1,25
 430 -95 430 -95 397 -125 c 128,-1,26
 364 -155 364 -155 312 -171.5 c 128,-1,27
 260 -188 260 -188 182 -188 c 0,28,29
 139 -188 139 -188 97 -176.5 c 128,-1,30
 55 -165 55 -165 26 -148 c 1,31,-1
 61 -70 l 1,32,33
 84 -87 84 -87 122 -97.5 c 128,-1,34
 160 -108 160 -108 202 -108 c 0,0,1
286 99 m 0,35,36
 326 99 326 99 359.5 113.5 c 128,-1,37
 393 128 393 128 411 141 c 1,38,-1
 484 445 l 1,39,40
 474 447 474 447 461 449 c 128,-1,41
 448 451 448 451 436 451 c 0,42,43
 382 451 382 451 337 430.5 c 128,-1,44
 292 410 292 410 259.5 375.5 c 128,-1,45
 227 341 227 341 209 295.5 c 128,-1,46
 191 250 191 250 191 201 c 0,47,48
 191 147 191 147 214.5 123 c 128,-1,49
 238 99 238 99 286 99 c 0,35,36
EndSplineSet
Substitution2: "'case' Case-Sensitive Forms lookup 19 subtable" G
EndChar

StartChar: h
Encoding: 104 104 75
Width: 552
Flags: W
LayerCount: 2
Fore
SplineSet
76 0 m 1,0,-1
 259 760 l 1,1,-1
 356 776 l 1,2,-1
 292 513 l 1,3,4
 315 521 315 521 340.5 526 c 128,-1,5
 366 531 366 531 392 531 c 0,6,7
 437 531 437 531 469.5 518.5 c 128,-1,8
 502 506 502 506 522 484.5 c 128,-1,9
 542 463 542 463 551.5 432.5 c 128,-1,10
 561 402 561 402 561 366 c 0,11,12
 561 322 561 322 547 266 c 2,13,-1
 483 0 l 1,14,-1
 390 0 l 1,15,-1
 449 246 l 2,16,17
 456 274 456 274 462.5 303 c 128,-1,18
 469 332 469 332 469 358 c 0,19,20
 469 398 469 398 447 424.5 c 128,-1,21
 425 451 425 451 365 451 c 0,22,23
 341 451 341 451 315.5 446.5 c 128,-1,24
 290 442 290 442 273 434 c 1,25,-1
 169 0 l 1,26,-1
 76 0 l 1,0,-1
EndSplineSet
Substitution2: "'case' Case-Sensitive Forms lookup 19 subtable" H
EndChar

StartChar: i
Encoding: 105 105 76
Width: 249
Flags: W
LayerCount: 2
Fore
SplineSet
169 0 m 1,0,-1
 76 0 l 1,1,-1
 201 520 l 1,2,-1
 294 520 l 1,3,-1
 169 0 l 1,0,-1
277 614 m 0,4,5
 254 614 254 614 238.5 628 c 128,-1,6
 223 642 223 642 223 667 c 0,7,8
 223 699 223 699 243 717.5 c 128,-1,9
 263 736 263 736 288 736 c 0,10,11
 311 736 311 736 327 721.5 c 128,-1,12
 343 707 343 707 343 681 c 0,13,14
 343 651 343 651 322 632.5 c 128,-1,15
 301 614 301 614 277 614 c 0,4,5
EndSplineSet
Substitution2: "'case' Case-Sensitive Forms lookup 19 subtable" I
Substitution2: "'locl' Localized Forms in Latin lookup 2 subtable" i.locl
Substitution2: "'locl' Localized Forms in Latin lookup 1 subtable" i.locl
Substitution2: "'locl' Localized Forms in Latin lookup 0 subtable" i.locl
EndChar

StartChar: j
Encoding: 106 106 77
Width: 249
Flags: W
LayerCount: 2
Fore
SplineSet
174 20 m 2,0,1
 160 -36 160 -36 143.5 -75.5 c 128,-1,2
 127 -115 127 -115 102.5 -140 c 128,-1,3
 78 -165 78 -165 44 -176.5 c 128,-1,4
 10 -188 10 -188 -39 -188 c 0,5,6
 -56 -188 -56 -188 -77.5 -183 c 128,-1,7
 -99 -178 -99 -178 -111 -170 c 1,8,-1
 -90 -93 l 1,9,10
 -79 -100 -79 -100 -62 -104 c 128,-1,11
 -45 -108 -45 -108 -25 -108 c 0,12,13
 20 -108 20 -108 43.5 -73 c 128,-1,14
 67 -38 67 -38 81 19 c 2,15,-1
 201 520 l 1,16,-1
 294 520 l 1,17,-1
 174 20 l 2,0,1
278 614 m 0,18,19
 255 614 255 614 239.5 628 c 128,-1,20
 224 642 224 642 224 667 c 0,21,22
 224 699 224 699 244 717.5 c 128,-1,23
 264 736 264 736 289 736 c 0,24,25
 312 736 312 736 328 721.5 c 128,-1,26
 344 707 344 707 344 681 c 0,27,28
 344 651 344 651 323 632.5 c 128,-1,29
 302 614 302 614 278 614 c 0,18,19
EndSplineSet
Substitution2: "'case' Case-Sensitive Forms lookup 19 subtable" J
EndChar

StartChar: k
Encoding: 107 107 78
Width: 517
Flags: W
LayerCount: 2
Fore
SplineSet
76 0 m 1,0,-1
 259 760 l 1,1,-1
 356 776 l 1,2,-1
 244 313 l 1,3,4
 277 337 277 337 312 365.5 c 128,-1,5
 347 394 347 394 378.5 422 c 128,-1,6
 410 450 410 450 436.5 475.5 c 128,-1,7
 463 501 463 501 480 520 c 1,8,-1
 590 520 l 1,9,10
 569 494 569 494 536.5 462 c 128,-1,11
 504 430 504 430 468 397.5 c 128,-1,12
 432 365 432 365 395.5 335 c 128,-1,13
 359 305 359 305 330 284 c 1,14,15
 357 259 357 259 384.5 224.5 c 128,-1,16
 412 190 412 190 437.5 151.5 c 128,-1,17
 463 113 463 113 484 73.5 c 128,-1,18
 505 34 505 34 519 0 c 1,19,-1
 418 0 l 1,20,21
 383 81 383 81 334.5 149 c 128,-1,22
 286 217 286 217 232 260 c 1,23,-1
 169 0 l 1,24,-1
 76 0 l 1,0,-1
EndSplineSet
Substitution2: "'case' Case-Sensitive Forms lookup 19 subtable" K
EndChar

StartChar: l
Encoding: 108 108 79
Width: 276
Flags: W
LayerCount: 2
Fore
SplineSet
215 229 m 2,0,1
 210 207 210 207 205 186 c 128,-1,2
 200 165 200 165 200 146 c 0,3,4
 200 112 200 112 216.5 92 c 128,-1,5
 233 72 233 72 278 67 c 1,6,-1
 257 -9 l 1,7,8
 216 -8 216 -8 187.5 3.5 c 128,-1,9
 159 15 159 15 141.5 34 c 128,-1,10
 124 53 124 53 116 79 c 128,-1,11
 108 105 108 105 108 136 c 0,12,13
 108 159 108 159 112 184 c 128,-1,14
 116 209 116 209 123 236 c 2,15,-1
 249 760 l 1,16,-1
 346 776 l 1,17,-1
 215 229 l 2,0,1
EndSplineSet
Substitution2: "'case' Case-Sensitive Forms lookup 19 subtable" L
EndChar

StartChar: m
Encoding: 109 109 80
Width: 828
Flags: W
LayerCount: 2
Fore
SplineSet
678 531 m 0,0,1
 722 531 722 531 752.5 517.5 c 128,-1,2
 783 504 783 504 801.5 481 c 128,-1,3
 820 458 820 458 828 427.5 c 128,-1,4
 836 397 836 397 836 363 c 0,5,6
 836 341 836 341 832.5 315.5 c 128,-1,7
 829 290 829 290 823 266 c 2,8,-1
 759 0 l 1,9,-1
 666 0 l 1,10,-1
 725 246 l 2,11,12
 730 269 730 269 736.5 297.5 c 128,-1,13
 743 326 743 326 743 354 c 0,14,15
 743 373 743 373 738.5 391 c 128,-1,16
 734 409 734 409 723.5 422 c 128,-1,17
 713 435 713 435 694 443 c 128,-1,18
 675 451 675 451 647 451 c 0,19,20
 615 451 615 451 585 438.5 c 128,-1,21
 555 426 555 426 535 413 c 1,22,23
 537 399 537 399 538.5 385.5 c 128,-1,24
 540 372 540 372 540 359 c 0,25,26
 540 336 540 336 536.5 312.5 c 128,-1,27
 533 289 533 289 528 266 c 2,28,-1
 464 0 l 1,29,-1
 371 0 l 1,30,-1
 430 246 l 2,31,32
 435 269 435 269 441 298 c 128,-1,33
 447 327 447 327 447 356 c 0,34,35
 447 375 447 375 443 392.5 c 128,-1,36
 439 410 439 410 429.5 423 c 128,-1,37
 420 436 420 436 404 443.5 c 128,-1,38
 388 451 388 451 363 451 c 256,39,40
 338 451 338 451 314.5 448 c 128,-1,41
 291 445 291 445 275 440 c 1,42,-1
 169 0 l 1,43,-1
 76 0 l 1,44,-1
 196 500 l 1,45,46
 241 514 241 514 294.5 522.5 c 128,-1,47
 348 531 348 531 390 531 c 256,48,49
 432 531 432 531 461 516.5 c 128,-1,50
 490 502 490 502 507 478 c 1,51,52
 517 485 517 485 534.5 494 c 128,-1,53
 552 503 552 503 574.5 511 c 128,-1,54
 597 519 597 519 623.5 525 c 128,-1,55
 650 531 650 531 678 531 c 0,0,1
EndSplineSet
Substitution2: "'case' Case-Sensitive Forms lookup 19 subtable" M
EndChar

StartChar: n
Encoding: 110 110 81
Width: 551
Flags: W
LayerCount: 2
Fore
SplineSet
169 0 m 1,0,-1
 76 0 l 1,1,-1
 196 500 l 1,2,3
 242 514 242 514 295.5 522.5 c 128,-1,4
 349 531 349 531 391 531 c 0,5,6
 436 531 436 531 468.5 518.5 c 128,-1,7
 501 506 501 506 521 484.5 c 128,-1,8
 541 463 541 463 550.5 432.5 c 128,-1,9
 560 402 560 402 560 366 c 0,10,11
 560 343 560 343 556 317.5 c 128,-1,12
 552 292 552 292 546 266 c 2,13,-1
 482 0 l 1,14,-1
 389 0 l 1,15,-1
 448 246 l 2,16,17
 455 274 455 274 461.5 303 c 128,-1,18
 468 332 468 332 468 358 c 0,19,20
 468 398 468 398 446 424.5 c 128,-1,21
 424 451 424 451 364 451 c 0,22,23
 339 451 339 451 315 448 c 128,-1,24
 291 445 291 445 275 440 c 1,25,-1
 169 0 l 1,0,-1
EndSplineSet
Substitution2: "'case' Case-Sensitive Forms lookup 19 subtable" N
EndChar

StartChar: o
Encoding: 111 111 82
Width: 555
Flags: W
LayerCount: 2
Fore
SplineSet
275 -13 m 0,0,1
 193 -13 193 -13 146.5 35.5 c 128,-1,2
 100 84 100 84 100 169 c 0,3,4
 100 227 100 227 116.5 291 c 128,-1,5
 133 355 133 355 169 409 c 128,-1,6
 205 463 205 463 262 498 c 128,-1,7
 319 533 319 533 400 533 c 0,8,9
 482 533 482 533 528.5 484.5 c 128,-1,10
 575 436 575 436 575 351 c 0,11,12
 575 293 575 293 558.5 229 c 128,-1,13
 542 165 542 165 506 111 c 128,-1,14
 470 57 470 57 413 22 c 128,-1,15
 356 -13 356 -13 275 -13 c 0,0,1
291 66 m 0,16,17
 336 66 336 66 371.5 92 c 128,-1,18
 407 118 407 118 431.5 158.5 c 128,-1,19
 456 199 456 199 469 248 c 128,-1,20
 482 297 482 297 482 343 c 0,21,22
 482 394 482 394 460 424 c 128,-1,23
 438 454 438 454 384 454 c 0,24,25
 339 454 339 454 303.5 428 c 128,-1,26
 268 402 268 402 243.5 361.5 c 128,-1,27
 219 321 219 321 206 272 c 128,-1,28
 193 223 193 223 193 177 c 0,29,30
 193 126 193 126 215 96 c 128,-1,31
 237 66 237 66 291 66 c 0,16,17
EndSplineSet
Substitution2: "'case' Case-Sensitive Forms lookup 19 subtable" O
Substitution2: "'ordn' Ordinals in Latin lookup 9 subtable" ordmasculine
EndChar

StartChar: p
Encoding: 112 112 83
Width: 546
Flags: W
LayerCount: 2
Fore
SplineSet
379 533 m 0,0,1
 428 533 428 533 463.5 519 c 128,-1,2
 499 505 499 505 522 480.5 c 128,-1,3
 545 456 545 456 556.5 422.5 c 128,-1,4
 568 389 568 389 568 349 c 0,5,6
 568 280 568 280 547 215.5 c 128,-1,7
 526 151 526 151 482.5 101 c 128,-1,8
 439 51 439 51 372.5 21 c 128,-1,9
 306 -9 306 -9 215 -9 c 0,10,11
 204 -9 204 -9 191 -8 c 128,-1,12
 178 -7 178 -7 168 -5 c 1,13,-1
 125 -185 l 1,14,-1
 32 -185 l 1,15,-1
 196 498 l 1,16,17
 238 515 238 515 287.5 524 c 128,-1,18
 337 533 337 533 379 533 c 0,0,1
187 73 m 1,19,20
 197 71 197 71 208.5 70.5 c 128,-1,21
 220 70 220 70 231 70 c 0,22,23
 288 70 288 70 333 92 c 128,-1,24
 378 114 378 114 409.5 151.5 c 128,-1,25
 441 189 441 189 458 237.5 c 128,-1,26
 475 286 475 286 475 339 c 0,27,28
 475 361 475 361 470 382 c 128,-1,29
 465 403 465 403 451.5 419 c 128,-1,30
 438 435 438 435 415 444.5 c 128,-1,31
 392 454 392 454 356 454 c 0,32,33
 331 454 331 454 310 449.5 c 128,-1,34
 289 445 289 445 275 441 c 1,35,-1
 187 73 l 1,19,20
EndSplineSet
Substitution2: "'case' Case-Sensitive Forms lookup 19 subtable" P
EndChar

StartChar: q
Encoding: 113 113 84
Width: 551
Flags: W
LayerCount: 2
Fore
SplineSet
333 -185 m 1,0,-1
 381 16 l 1,1,2
 358 4 358 4 329 -4.5 c 128,-1,3
 300 -13 300 -13 268 -13 c 0,4,5
 224 -13 224 -13 192 0.5 c 128,-1,6
 160 14 160 14 139 39 c 128,-1,7
 118 64 118 64 108 98.5 c 128,-1,8
 98 133 98 133 98 174 c 0,9,10
 98 241 98 241 120.5 305 c 128,-1,11
 143 369 143 369 188 419 c 128,-1,12
 233 469 233 469 301 500 c 128,-1,13
 369 531 369 531 460 531 c 0,14,15
 488 531 488 531 524.5 524.5 c 128,-1,16
 561 518 561 518 591 502 c 1,17,-1
 426 -185 l 1,18,-1
 333 -185 l 1,0,-1
291 66 m 0,19,20
 320 66 320 66 349 75.5 c 128,-1,21
 378 85 378 85 402 103 c 1,22,-1
 485 446 l 1,23,24
 457 451 457 451 440 451 c 0,25,26
 383 451 383 451 337 429 c 128,-1,27
 291 407 291 407 258.5 370.5 c 128,-1,28
 226 334 226 334 208.5 285.5 c 128,-1,29
 191 237 191 237 191 184 c 0,30,31
 191 161 191 161 195.5 140 c 128,-1,32
 200 119 200 119 211 102.5 c 128,-1,33
 222 86 222 86 241.5 76 c 128,-1,34
 261 66 261 66 291 66 c 0,19,20
EndSplineSet
Substitution2: "'case' Case-Sensitive Forms lookup 19 subtable" Q
EndChar

StartChar: r
Encoding: 114 114 85
Width: 372
Flags: W
LayerCount: 2
Fore
SplineSet
374 531 m 0,0,1
 386 531 386 531 401 530 c 128,-1,2
 416 529 416 529 430.5 526.5 c 128,-1,3
 445 524 445 524 457 521.5 c 128,-1,4
 469 519 469 519 475 516 c 1,5,-1
 448 435 l 1,6,7
 428 443 428 443 402 447 c 128,-1,8
 376 451 376 451 352 451 c 0,9,10
 331 451 331 451 310.5 448 c 128,-1,11
 290 445 290 445 275 440 c 1,12,-1
 169 0 l 1,13,-1
 76 0 l 1,14,-1
 196 500 l 1,15,16
 236 514 236 514 282 522.5 c 128,-1,17
 328 531 328 531 374 531 c 0,0,1
EndSplineSet
Substitution2: "'case' Case-Sensitive Forms lookup 19 subtable" R
EndChar

StartChar: s
Encoding: 115 115 86
Width: 412
Flags: W
LayerCount: 2
Fore
SplineSet
206 65 m 0,0,1
 227 65 227 65 248.5 69 c 128,-1,2
 270 73 270 73 286.5 82 c 128,-1,3
 303 91 303 91 313.5 106.5 c 128,-1,4
 324 122 324 122 324 145 c 0,5,6
 324 160 324 160 319 171.5 c 128,-1,7
 314 183 314 183 303 193 c 128,-1,8
 292 203 292 203 275.5 212.5 c 128,-1,9
 259 222 259 222 236 234 c 0,10,11
 213 245 213 245 194 256 c 128,-1,12
 175 267 175 267 160.5 282 c 128,-1,13
 146 297 146 297 138 317.5 c 128,-1,14
 130 338 130 338 130 367 c 0,15,16
 130 442 130 442 184 487.5 c 128,-1,17
 238 533 238 533 341 533 c 0,18,19
 389 533 389 533 425.5 523.5 c 128,-1,20
 462 514 462 514 476 506 c 1,21,-1
 441 430 l 1,22,23
 427 438 427 438 396 447 c 128,-1,24
 365 456 365 456 327 456 c 0,25,26
 308 456 308 456 289 452 c 128,-1,27
 270 448 270 448 254.5 438.5 c 128,-1,28
 239 429 239 429 229.5 413.5 c 128,-1,29
 220 398 220 398 220 376 c 0,30,31
 220 349 220 349 241 331.5 c 128,-1,32
 262 314 262 314 304 295 c 0,33,34
 330 283 330 283 350.5 270.5 c 128,-1,35
 371 258 371 258 385.5 242.5 c 128,-1,36
 400 227 400 227 407.5 206 c 128,-1,37
 415 185 415 185 415 156 c 0,38,39
 415 114 415 114 399 82 c 128,-1,40
 383 50 383 50 354.5 29 c 128,-1,41
 326 8 326 8 287 -2.5 c 128,-1,42
 248 -13 248 -13 202 -13 c 0,43,44
 168 -13 168 -13 140.5 -8.5 c 128,-1,45
 113 -4 113 -4 92.5 2 c 128,-1,46
 72 8 72 8 58.5 14.5 c 128,-1,47
 45 21 45 21 38 25 c 1,48,-1
 74 101 l 1,49,50
 81 97 81 97 93.5 91 c 128,-1,51
 106 85 106 85 123.5 79 c 128,-1,52
 141 73 141 73 162 69 c 128,-1,53
 183 65 183 65 206 65 c 0,0,1
EndSplineSet
Substitution2: "'case' Case-Sensitive Forms lookup 19 subtable" S
EndChar

StartChar: t
Encoding: 116 116 87
Width: 389
Flags: W
LayerCount: 2
Fore
SplineSet
254 -14 m 0,0,1
 179 -14 179 -14 144 19 c 128,-1,2
 109 52 109 52 109 115 c 0,3,4
 109 156 109 156 123 220 c 1,5,-1
 230 665 l 1,6,-1
 327 681 l 1,7,-1
 288 520 l 1,8,-1
 465 520 l 1,9,-1
 446 442 l 1,10,-1
 269 442 l 1,11,-1
 214 212 l 2,12,13
 202 165 202 165 202 130 c 0,14,15
 202 97 202 97 220 82.5 c 128,-1,16
 238 68 238 68 280 68 c 0,17,18
 309 68 309 68 337 77.5 c 128,-1,19
 365 87 365 87 380 95 c 1,20,-1
 387 16 l 1,21,22
 372 7 372 7 336 -3.5 c 128,-1,23
 300 -14 300 -14 254 -14 c 0,0,1
EndSplineSet
Substitution2: "'case' Case-Sensitive Forms lookup 19 subtable" T
EndChar

StartChar: u
Encoding: 117 117 88
Width: 550
Flags: W
LayerCount: 2
Fore
SplineSet
266 -13 m 0,0,1
 222 -13 222 -13 192.5 0 c 128,-1,2
 163 13 163 13 144.5 35 c 128,-1,3
 126 57 126 57 118 87 c 128,-1,4
 110 117 110 117 110 151 c 0,5,6
 110 177 110 177 114.5 202.5 c 128,-1,7
 119 228 119 228 125 254 c 2,8,-1
 189 520 l 1,9,-1
 282 520 l 1,10,-1
 223 274 l 2,11,12
 218 251 218 251 210 220 c 128,-1,13
 202 189 202 189 202 158 c 0,14,15
 202 140 202 140 205.5 123.5 c 128,-1,16
 209 107 209 107 218.5 94.5 c 128,-1,17
 228 82 228 82 244 74.5 c 128,-1,18
 260 67 260 67 284 67 c 0,19,20
 327 67 327 67 359.5 85.5 c 128,-1,21
 392 104 392 104 414 129 c 1,22,23
 415 145 415 145 417 162 c 128,-1,24
 419 179 419 179 424 199 c 2,25,-1
 501 520 l 1,26,-1
 594 520 l 1,27,-1
 515 191 l 2,28,29
 510 168 510 168 506.5 146.5 c 128,-1,30
 503 125 503 125 503 102 c 256,31,32
 503 79 503 79 507 56 c 128,-1,33
 511 33 511 33 521 6 c 1,34,-1
 439 -6 l 1,35,36
 434 5 434 5 429 19 c 128,-1,37
 424 33 424 33 421 49 c 1,38,39
 410 39 410 39 395 28 c 128,-1,40
 380 17 380 17 360.5 8 c 128,-1,41
 341 -1 341 -1 317.5 -7 c 128,-1,42
 294 -13 294 -13 266 -13 c 0,0,1
EndSplineSet
Substitution2: "'case' Case-Sensitive Forms lookup 19 subtable" U
EndChar

StartChar: v
Encoding: 118 118 89
Width: 481
Flags: W
LayerCount: 2
Fore
SplineSet
193 0 m 1,0,1
 181 51 181 51 170 112 c 128,-1,2
 159 173 159 173 150 239.5 c 128,-1,3
 141 306 141 306 135 377 c 128,-1,4
 129 448 129 448 127 520 c 1,5,-1
 221 520 l 1,6,7
 222 471 222 471 225.5 415.5 c 128,-1,8
 229 360 229 360 234 304.5 c 128,-1,9
 239 249 239 249 246 197.5 c 128,-1,10
 253 146 253 146 261 104 c 1,11,12
 291 142 291 142 323.5 193.5 c 128,-1,13
 356 245 356 245 386 301.5 c 128,-1,14
 416 358 416 358 441 415 c 128,-1,15
 466 472 466 472 481 520 c 1,16,-1
 575 520 l 1,17,18
 553 454 553 454 519 383 c 128,-1,19
 485 312 485 312 445.5 243.5 c 128,-1,20
 406 175 406 175 362.5 112 c 128,-1,21
 319 49 319 49 278 0 c 1,22,-1
 193 0 l 1,0,1
EndSplineSet
Substitution2: "'case' Case-Sensitive Forms lookup 19 subtable" V
EndChar

StartChar: w
Encoding: 119 119 90
Width: 787
Flags: W
LayerCount: 2
Fore
SplineSet
573 108 m 1,0,1
 598 139 598 139 629 189.5 c 128,-1,2
 660 240 660 240 690 297.5 c 128,-1,3
 720 355 720 355 746 413.5 c 128,-1,4
 772 472 772 472 786 520 c 1,5,-1
 881 520 l 1,6,7
 859 451 859 451 825 378 c 128,-1,8
 791 305 791 305 751.5 236.5 c 128,-1,9
 712 168 712 168 669.5 107 c 128,-1,10
 627 46 627 46 588 0 c 1,11,-1
 505 0 l 1,12,13
 494 87 494 87 485.5 175 c 128,-1,14
 477 263 477 263 475 354 c 1,15,16
 455 309 455 309 430 261 c 128,-1,17
 405 213 405 213 377 166.5 c 128,-1,18
 349 120 349 120 321 77 c 128,-1,19
 293 34 293 34 267 0 c 1,20,-1
 184 0 l 1,21,22
 163 103 163 103 150 234.5 c 128,-1,23
 137 366 137 366 135 520 c 1,24,-1
 228 520 l 1,25,26
 229 473 229 473 231 418 c 128,-1,27
 233 363 233 363 236 307.5 c 128,-1,28
 239 252 239 252 243 200 c 128,-1,29
 247 148 247 148 253 108 c 1,30,31
 284 151 284 151 314.5 203 c 128,-1,32
 345 255 345 255 372.5 309 c 128,-1,33
 400 363 400 363 423.5 417 c 128,-1,34
 447 471 447 471 464 520 c 1,35,-1
 548 520 l 1,36,37
 548 475 548 475 549.5 423.5 c 128,-1,38
 551 372 551 372 554.5 318 c 128,-1,39
 558 264 558 264 562.5 210.5 c 128,-1,40
 567 157 567 157 573 108 c 1,0,1
EndSplineSet
Substitution2: "'case' Case-Sensitive Forms lookup 19 subtable" W
EndChar

StartChar: x
Encoding: 120 120 91
Width: 473
Flags: W
LayerCount: 2
Fore
SplineSet
316 333 m 1,0,1
 358 384 358 384 393.5 431 c 128,-1,2
 429 478 429 478 455 520 c 1,3,-1
 556 520 l 1,4,5
 513 457 513 457 461.5 392.5 c 128,-1,6
 410 328 410 328 356 265 c 1,7,8
 388 202 388 202 420 134.5 c 128,-1,9
 452 67 452 67 475 0 c 1,10,-1
 378 0 l 1,11,12
 363 45 363 45 339.5 97 c 128,-1,13
 316 149 316 149 293 197 c 1,14,-1
 120 0 l 1,15,-1
 12 0 l 1,16,-1
 252 268 l 1,17,-1
 123 520 l 1,18,-1
 226 520 l 1,19,-1
 316 333 l 1,0,1
EndSplineSet
Substitution2: "'case' Case-Sensitive Forms lookup 19 subtable" X
EndChar

StartChar: y
Encoding: 121 121 92
Width: 478
Flags: W
LayerCount: 2
Fore
SplineSet
281 84 m 1,0,1
 319 144 319 144 350 208.5 c 128,-1,2
 381 273 381 273 404.5 332 c 128,-1,3
 428 391 428 391 444 440.5 c 128,-1,4
 460 490 460 490 467 520 c 1,5,-1
 564 520 l 1,6,7
 553 482 553 482 533 425.5 c 128,-1,8
 513 369 513 369 484.5 303.5 c 128,-1,9
 456 238 456 238 420.5 169.5 c 128,-1,10
 385 101 385 101 343 38 c 0,11,12
 311 -9 311 -9 279 -50.5 c 128,-1,13
 247 -92 247 -92 210.5 -122.5 c 128,-1,14
 174 -153 174 -153 130 -170.5 c 128,-1,15
 86 -188 86 -188 31 -188 c 0,16,17
 3 -188 3 -188 -21 -181 c 128,-1,18
 -45 -174 -45 -174 -56 -166 c 1,19,-1
 -24 -90 l 1,20,21
 -14 -98 -14 -98 3 -103.5 c 128,-1,22
 20 -109 20 -109 41 -109 c 0,23,24
 99 -109 99 -109 139.5 -81 c 128,-1,25
 180 -53 180 -53 216 -7 c 1,26,27
 179 114 179 114 155.5 248 c 128,-1,28
 132 382 132 382 127 520 c 1,29,-1
 222 520 l 1,30,31
 223 475 223 475 227 421.5 c 128,-1,32
 231 368 231 368 238.5 310.5 c 128,-1,33
 246 253 246 253 256.5 195 c 128,-1,34
 267 137 267 137 281 84 c 1,0,1
EndSplineSet
Substitution2: "'case' Case-Sensitive Forms lookup 19 subtable" Y
EndChar

StartChar: z
Encoding: 122 122 93
Width: 454
Flags: W
LayerCount: 2
Fore
SplineSet
524 453 m 1,0,1
 495 427 495 427 445.5 379.5 c 128,-1,2
 396 332 396 332 342 277.5 c 128,-1,3
 288 223 288 223 238.5 169.5 c 128,-1,4
 189 116 189 116 160 78 c 1,5,-1
 439 78 l 1,6,-1
 421 0 l 1,7,-1
 33 0 l 1,8,-1
 47 60 l 1,9,10
 77 104 77 104 123 157.5 c 128,-1,11
 169 211 169 211 218.5 264 c 128,-1,12
 268 317 268 317 316 364 c 128,-1,13
 364 411 364 411 400 442 c 1,14,-1
 151 442 l 1,15,-1
 169 520 l 1,16,-1
 540 520 l 1,17,-1
 524 453 l 1,0,1
EndSplineSet
Substitution2: "'case' Case-Sensitive Forms lookup 19 subtable" Z
EndChar

StartChar: braceleft
Encoding: 123 123 94
Width: 326
Flags: W
LayerCount: 2
Fore
SplineSet
120 335 m 1,0,1
 142 335 142 335 161 343.5 c 128,-1,2
 180 352 180 352 194.5 365.5 c 128,-1,3
 209 379 209 379 218.5 396.5 c 128,-1,4
 228 414 228 414 232 432 c 2,5,-1
 275 612 l 2,6,7
 286 658 286 658 302.5 690.5 c 128,-1,8
 319 723 319 723 345.5 743.5 c 128,-1,9
 372 764 372 764 410.5 773.5 c 128,-1,10
 449 783 449 783 503 783 c 2,11,-1
 507 783 l 1,12,-1
 489 710 l 1,13,14
 462 710 462 710 441 706.5 c 128,-1,15
 420 703 420 703 404.5 692 c 128,-1,16
 389 681 389 681 378 661.5 c 128,-1,17
 367 642 367 642 360 611 c 2,18,-1
 323 457 l 2,19,20
 307 391 307 391 284.5 354 c 128,-1,21
 262 317 262 317 220 299 c 1,22,23
 241 282 241 282 249.5 258.5 c 128,-1,24
 258 235 258 235 258 209 c 0,25,26
 258 192 258 192 255 175 c 128,-1,27
 252 158 252 158 248 141 c 2,28,-1
 211 -13 l 2,29,30
 208 -27 208 -27 206 -38 c 128,-1,31
 204 -49 204 -49 204 -58 c 0,32,33
 204 -90 204 -90 225 -100 c 128,-1,34
 246 -110 246 -110 291 -112 c 1,35,-1
 272 -185 l 1,36,-1
 268 -185 l 2,37,38
 196 -185 196 -185 157 -159.5 c 128,-1,39
 118 -134 118 -134 118 -74 c 0,40,41
 118 -51 118 -51 126 -14 c 2,42,-1
 169 166 l 2,43,44
 173 181 173 181 173 195 c 0,45,46
 173 223 173 223 156.5 242 c 128,-1,47
 140 261 140 261 102 263 c 1,48,-1
 120 335 l 1,0,1
EndSplineSet
Substitution2: "'case' Case-Sensitive Forms lookup 18 subtable" Braceleft
EndChar

StartChar: bar
Encoding: 124 124 95
Width: 275
Flags: W
LayerCount: 2
Fore
SplineSet
281 783 m 1,0,-1
 366 783 l 1,1,-1
 133 -185 l 1,2,-1
 48 -185 l 1,3,-1
 281 783 l 1,0,-1
EndSplineSet
EndChar

StartChar: braceright
Encoding: 125 125 96
Width: 326
Flags: W
LayerCount: 2
Fore
SplineSet
345 263 m 1,0,1
 322 263 322 263 303 254.5 c 128,-1,2
 284 246 284 246 270 232.5 c 128,-1,3
 256 219 256 219 246.5 201.5 c 128,-1,4
 237 184 237 184 233 166 c 2,5,-1
 190 -14 l 2,6,7
 179 -60 179 -60 162.5 -92.5 c 128,-1,8
 146 -125 146 -125 119.5 -145.5 c 128,-1,9
 93 -166 93 -166 54.5 -175.5 c 128,-1,10
 16 -185 16 -185 -38 -185 c 2,11,-1
 -42 -185 l 1,12,-1
 -24 -112 l 1,13,14
 4 -112 4 -112 24.5 -108.5 c 128,-1,15
 45 -105 45 -105 60.5 -94 c 128,-1,16
 76 -83 76 -83 86.5 -64 c 128,-1,17
 97 -45 97 -45 105 -13 c 2,18,-1
 142 141 l 2,19,20
 158 207 158 207 180.5 244 c 128,-1,21
 203 281 203 281 245 299 c 1,22,23
 224 316 224 316 215.5 339.5 c 128,-1,24
 207 363 207 363 207 389 c 0,25,26
 207 406 207 406 210 423 c 128,-1,27
 213 440 213 440 217 457 c 2,28,-1
 254 611 l 2,29,30
 257 625 257 625 259 636 c 128,-1,31
 261 647 261 647 261 656 c 0,32,33
 261 688 261 688 240 698 c 128,-1,34
 219 708 219 708 174 710 c 1,35,-1
 193 783 l 1,36,-1
 197 783 l 2,37,38
 269 783 269 783 308 757.5 c 128,-1,39
 347 732 347 732 347 672 c 0,40,41
 347 649 347 649 339 612 c 2,42,-1
 296 432 l 2,43,44
 292 417 292 417 292 403 c 0,45,46
 292 375 292 375 308.5 356 c 128,-1,47
 325 337 325 337 363 335 c 1,48,-1
 345 263 l 1,0,1
EndSplineSet
Substitution2: "'case' Case-Sensitive Forms lookup 18 subtable" Braceright
EndChar

StartChar: asciitilde
Encoding: 126 126 97
Width: 564
Flags: W
LayerCount: 2
Fore
SplineSet
367 339 m 0,0,1
 390 323 390 323 408 309.5 c 128,-1,2
 426 296 426 296 453 296 c 0,3,4
 469 296 469 296 482.5 304 c 128,-1,5
 496 312 496 312 506 323.5 c 128,-1,6
 516 335 516 335 524 349 c 128,-1,7
 532 363 532 363 538 375 c 1,8,-1
 602 355 l 1,9,10
 594 333 594 333 580.5 308.5 c 128,-1,11
 567 284 567 284 547 263 c 128,-1,12
 527 242 527 242 500.5 228.5 c 128,-1,13
 474 215 474 215 440 215 c 0,14,15
 405 215 405 215 382.5 228.5 c 128,-1,16
 360 242 360 242 341 256 c 0,17,18
 318 272 318 272 300 285.5 c 128,-1,19
 282 299 282 299 255 299 c 0,20,21
 238 299 238 299 225 291 c 128,-1,22
 212 283 212 283 201.5 271.5 c 128,-1,23
 191 260 191 260 183.5 246 c 128,-1,24
 176 232 176 232 170 220 c 1,25,-1
 106 240 l 1,26,27
 114 262 114 262 127.5 286.5 c 128,-1,28
 141 311 141 311 161 332 c 128,-1,29
 181 353 181 353 207.5 366.5 c 128,-1,30
 234 380 234 380 268 380 c 0,31,32
 303 380 303 380 325.5 366.5 c 128,-1,33
 348 353 348 353 367 339 c 0,0,1
EndSplineSet
EndChar

StartChar: Euro
Encoding: 8364 8364 98
Width: 564
Flags: W
LayerCount: 2
Fore
SplineSet
288 227 m 1,0,-1
 288 209 l 2,1,2
 288 167 288 167 298.5 139.5 c 128,-1,3
 309 112 309 112 327 96 c 128,-1,4
 345 80 345 80 369.5 73.5 c 128,-1,5
 394 67 394 67 422 67 c 0,6,7
 467 67 467 67 499 75.5 c 128,-1,8
 531 84 531 84 555 95 c 1,9,-1
 558 16 l 1,10,11
 551 12 551 12 536 7 c 128,-1,12
 521 2 521 2 500.5 -2.5 c 128,-1,13
 480 -7 480 -7 457 -10 c 128,-1,14
 434 -13 434 -13 411 -13 c 0,15,16
 306 -13 306 -13 251 41.5 c 128,-1,17
 196 96 196 96 196 204 c 2,18,-1
 196 227 l 1,19,-1
 104 227 l 1,20,-1
 121 299 l 1,21,-1
 201 299 l 1,22,23
 204 324 204 324 209 349 c 128,-1,24
 214 374 214 374 221 400 c 1,25,-1
 144 400 l 1,26,-1
 161 472 l 1,27,-1
 245 472 l 1,28,29
 265 521 265 521 294 563.5 c 128,-1,30
 323 606 323 606 363 637.5 c 128,-1,31
 403 669 403 669 453.5 687.5 c 128,-1,32
 504 706 504 706 566 706 c 0,33,34
 605 706 605 706 632.5 700 c 128,-1,35
 660 694 660 694 686 683 c 1,36,-1
 649 608 l 1,37,38
 633 616 633 616 612.5 621.5 c 128,-1,39
 592 627 592 627 554 627 c 0,40,41
 515 627 515 627 483 615 c 128,-1,42
 451 603 451 603 424.5 582.5 c 128,-1,43
 398 562 398 562 377.5 533.5 c 128,-1,44
 357 505 357 505 342 472 c 1,45,-1
 579 472 l 1,46,-1
 549 400 l 1,47,-1
 315 400 l 1,48,49
 307 375 307 375 302 349.5 c 128,-1,50
 297 324 297 324 294 299 c 1,51,-1
 505 299 l 1,52,-1
 475 227 l 1,53,-1
 288 227 l 1,0,-1
EndSplineSet
EndChar

StartChar: quotesinglbase
Encoding: 8218 8218 99
Width: 235
Flags: W
LayerCount: 2
Fore
SplineSet
202 114 m 1,0,1
 197 82 197 82 184 48.5 c 128,-1,2
 171 15 171 15 153.5 -16.5 c 128,-1,3
 136 -48 136 -48 115.5 -76 c 128,-1,4
 95 -104 95 -104 74 -126 c 1,5,-1
 11 -100 l 1,6,7
 46 -46 46 -46 69 5 c 128,-1,8
 92 56 92 56 100 114 c 1,9,-1
 202 114 l 1,0,1
EndSplineSet
EndChar

StartChar: florin
Encoding: 402 402 100
Width: 368
Flags: W
LayerCount: 2
Fore
SplineSet
294 520 m 1,0,-1
 468 520 l 1,1,-1
 450 442 l 1,2,-1
 276 442 l 1,3,-1
 174 20 l 2,4,5
 160 -36 160 -36 143.5 -75.5 c 128,-1,6
 127 -115 127 -115 102.5 -140 c 128,-1,7
 78 -165 78 -165 44 -176.5 c 128,-1,8
 10 -188 10 -188 -39 -188 c 0,9,10
 -56 -188 -56 -188 -77.5 -183 c 128,-1,11
 -99 -178 -99 -178 -111 -170 c 1,12,-1
 -90 -93 l 1,13,14
 -79 -100 -79 -100 -62 -104 c 128,-1,15
 -45 -108 -45 -108 -25 -108 c 0,16,17
 20 -108 20 -108 43.5 -73 c 128,-1,18
 67 -38 67 -38 81 19 c 2,19,-1
 212 567 l 2,20,21
 224 617 224 617 242.5 656 c 128,-1,22
 261 695 261 695 289.5 721.5 c 128,-1,23
 318 748 318 748 357 762 c 128,-1,24
 396 776 396 776 450 776 c 0,25,26
 485 776 485 776 516.5 769 c 128,-1,27
 548 762 548 762 564 754 c 1,28,-1
 527 680 l 1,29,30
 519 684 519 684 499.5 690 c 128,-1,31
 480 696 480 696 442 696 c 0,32,33
 409 696 409 696 386 686.5 c 128,-1,34
 363 677 363 677 347 660 c 128,-1,35
 331 643 331 643 321.5 619 c 128,-1,36
 312 595 312 595 305 565 c 2,37,-1
 294 520 l 1,0,-1
EndSplineSet
EndChar

StartChar: dagger
Encoding: 8224 8224 103
Width: 476
Flags: W
LayerCount: 2
Fore
SplineSet
374 400 m 1,0,-1
 313 145 l 2,1,2
 293 61 293 61 272.5 -7.5 c 128,-1,3
 252 -76 252 -76 227 -144 c 1,4,-1
 179 -144 l 1,5,6
 186 -76 186 -76 198.5 -7.5 c 128,-1,7
 211 61 211 61 231 145 c 2,8,-1
 292 400 l 1,9,-1
 139 400 l 1,10,-1
 158 477 l 1,11,-1
 311 477 l 1,12,-1
 363 693 l 1,13,-1
 445 693 l 1,14,-1
 393 477 l 1,15,-1
 546 477 l 1,16,-1
 527 400 l 1,17,-1
 374 400 l 1,0,-1
EndSplineSet
EndChar

StartChar: daggerdbl
Encoding: 8225 8225 104
Width: 476
Flags: W
LayerCount: 2
Fore
SplineSet
311 135 m 1,0,1
 291 54 291 54 271.5 -12 c 128,-1,2
 252 -78 252 -78 227 -145 c 1,3,-1
 179 -145 l 1,4,5
 186 -78 186 -78 197.5 -12 c 128,-1,6
 209 54 209 54 229 135 c 1,7,-1
 76 135 l 1,8,-1
 94 211 l 1,9,-1
 247 211 l 1,10,-1
 292 400 l 1,11,-1
 139 400 l 1,12,-1
 158 476 l 1,13,-1
 311 476 l 1,14,-1
 363 693 l 1,15,-1
 445 693 l 1,16,-1
 393 476 l 1,17,-1
 546 476 l 1,18,-1
 527 400 l 1,19,-1
 374 400 l 1,20,-1
 329 211 l 1,21,-1
 482 211 l 1,22,-1
 464 135 l 1,23,-1
 311 135 l 1,0,1
EndSplineSet
EndChar

StartChar: circumflex
Encoding: 710 710 105
Width: 376
Flags: W
LayerCount: 2
Fore
SplineSet
355 667 m 1,0,-1
 243 585 l 1,1,-1
 210 630 l 1,2,-1
 372 769 l 1,3,-1
 478 621 l 1,4,-1
 434 580 l 1,5,-1
 355 667 l 1,0,-1
EndSplineSet
EndChar

StartChar: perthousand
Encoding: 8240 8240 106
Width: 1197
Flags: W
LayerCount: 2
Fore
SplineSet
269 0 m 1,0,-1
 174 0 l 1,1,-1
 723 693 l 1,2,-1
 818 693 l 1,3,-1
 269 0 l 1,0,-1
158 476 m 0,4,5
 158 518 158 518 171.5 559.5 c 128,-1,6
 185 601 185 601 209.5 634 c 128,-1,7
 234 667 234 667 270 687.5 c 128,-1,8
 306 708 306 708 351 708 c 0,9,10
 411 708 411 708 444.5 673.5 c 128,-1,11
 478 639 478 639 478 572 c 0,12,13
 478 530 478 530 464.5 488.5 c 128,-1,14
 451 447 451 447 426.5 414 c 128,-1,15
 402 381 402 381 366 360.5 c 128,-1,16
 330 340 330 340 285 340 c 0,17,18
 225 340 225 340 191.5 374.5 c 128,-1,19
 158 409 158 409 158 476 c 0,4,5
404 565 m 0,20,21
 404 599 404 599 392.5 620.5 c 128,-1,22
 381 642 381 642 346 642 c 0,23,24
 317 642 317 642 295.5 626 c 128,-1,25
 274 610 274 610 260 586.5 c 128,-1,26
 246 563 246 563 239 535 c 128,-1,27
 232 507 232 507 232 483 c 0,28,29
 232 449 232 449 243.5 427.5 c 128,-1,30
 255 406 255 406 290 406 c 0,31,32
 319 406 319 406 340.5 422 c 128,-1,33
 362 438 362 438 376 461.5 c 128,-1,34
 390 485 390 485 397 513 c 128,-1,35
 404 541 404 541 404 565 c 0,20,21
514 121 m 0,36,37
 514 163 514 163 527.5 204.5 c 128,-1,38
 541 246 541 246 565.5 279 c 128,-1,39
 590 312 590 312 626 332.5 c 128,-1,40
 662 353 662 353 707 353 c 0,41,42
 767 353 767 353 800.5 318.5 c 128,-1,43
 834 284 834 284 834 217 c 0,44,45
 834 175 834 175 820.5 133.5 c 128,-1,46
 807 92 807 92 782.5 59 c 128,-1,47
 758 26 758 26 722 5.5 c 128,-1,48
 686 -15 686 -15 641 -15 c 0,49,50
 581 -15 581 -15 547.5 19.5 c 128,-1,51
 514 54 514 54 514 121 c 0,36,37
760 210 m 0,52,53
 760 244 760 244 748.5 265.5 c 128,-1,54
 737 287 737 287 702 287 c 0,55,56
 673 287 673 287 651.5 271 c 128,-1,57
 630 255 630 255 616 231.5 c 128,-1,58
 602 208 602 208 595 180 c 128,-1,59
 588 152 588 152 588 128 c 0,60,61
 588 94 588 94 599.5 72.5 c 128,-1,62
 611 51 611 51 646 51 c 0,63,64
 675 51 675 51 696.5 67 c 128,-1,65
 718 83 718 83 732 106.5 c 128,-1,66
 746 130 746 130 753 158 c 128,-1,67
 760 186 760 186 760 210 c 0,52,53
875 121 m 0,68,69
 875 163 875 163 888.5 204.5 c 128,-1,70
 902 246 902 246 926.5 279 c 128,-1,71
 951 312 951 312 987 332.5 c 128,-1,72
 1023 353 1023 353 1068 353 c 0,73,74
 1128 353 1128 353 1161.5 318.5 c 128,-1,75
 1195 284 1195 284 1195 217 c 0,76,77
 1195 175 1195 175 1181.5 133.5 c 128,-1,78
 1168 92 1168 92 1143.5 59 c 128,-1,79
 1119 26 1119 26 1083 5.5 c 128,-1,80
 1047 -15 1047 -15 1002 -15 c 0,81,82
 942 -15 942 -15 908.5 19.5 c 128,-1,83
 875 54 875 54 875 121 c 0,68,69
1121 210 m 0,84,85
 1121 244 1121 244 1109.5 265.5 c 128,-1,86
 1098 287 1098 287 1063 287 c 0,87,88
 1034 287 1034 287 1012.5 271 c 128,-1,89
 991 255 991 255 977 231.5 c 128,-1,90
 963 208 963 208 956 180 c 128,-1,91
 949 152 949 152 949 128 c 0,92,93
 949 94 949 94 960.5 72.5 c 128,-1,94
 972 51 972 51 1007 51 c 0,95,96
 1036 51 1036 51 1057.5 67 c 128,-1,97
 1079 83 1079 83 1093 106.5 c 128,-1,98
 1107 130 1107 130 1114 158 c 128,-1,99
 1121 186 1121 186 1121 210 c 0,84,85
EndSplineSet
EndChar

StartChar: guilsinglleft
Encoding: 8249 8249 108
Width: 291
Flags: W
LayerCount: 2
Fore
SplineSet
276 92 m 1,0,-1
 214 63 l 1,1,-1
 96 290 l 1,2,-1
 299 505 l 1,3,-1
 357 470 l 1,4,-1
 200 280 l 1,5,-1
 276 92 l 1,0,-1
EndSplineSet
Substitution2: "'case' Case-Sensitive Forms lookup 18 subtable" Guilsinglleft
EndChar

StartChar: OE
Encoding: 338 338 109
Width: 960
Flags: W
LayerCount: 2
Fore
SplineSet
430 -7 m 0,0,1
 353 -7 353 -7 295.5 12 c 128,-1,2
 238 31 238 31 200 66 c 128,-1,3
 162 101 162 101 143 150.5 c 128,-1,4
 124 200 124 200 124 262 c 0,5,6
 124 348 124 348 151 427.5 c 128,-1,7
 178 507 178 507 235 567.5 c 128,-1,8
 292 628 292 628 380.5 664 c 128,-1,9
 469 700 469 700 592 700 c 0,10,11
 618 700 618 700 642.5 698 c 128,-1,12
 667 696 667 696 687 693 c 1,13,-1
 1059 693 l 1,14,-1
 1040 612 l 1,15,-1
 742 612 l 1,16,-1
 692 403 l 1,17,-1
 955 403 l 1,18,-1
 936 324 l 1,19,-1
 674 324 l 1,20,-1
 615 81 l 1,21,-1
 936 81 l 1,22,-1
 917 0 l 1,23,-1
 534 0 l 1,24,25
 506 -3 506 -3 478 -5 c 128,-1,26
 450 -7 450 -7 430 -7 c 0,0,1
567 618 m 0,27,28
 488 618 488 618 424.5 591.5 c 128,-1,29
 361 565 361 565 317 518 c 128,-1,30
 273 471 273 471 249 405.5 c 128,-1,31
 225 340 225 340 225 262 c 0,32,33
 225 174 225 174 276 124.5 c 128,-1,34
 327 75 327 75 438 75 c 0,35,36
 462 75 462 75 483.5 76.5 c 128,-1,37
 505 78 505 78 519 80 c 1,38,-1
 646 613 l 1,39,40
 635 615 635 615 617 616.5 c 128,-1,41
 599 618 599 618 567 618 c 0,27,28
EndSplineSet
EndChar

StartChar: quoteleft
Encoding: 8216 8216 110
Width: 235
Flags: W
LayerCount: 2
Fore
SplineSet
182 520 m 1,0,1
 187 552 187 552 200 585.5 c 128,-1,2
 213 619 213 619 230.5 650.5 c 128,-1,3
 248 682 248 682 268.5 710 c 128,-1,4
 289 738 289 738 310 760 c 1,5,-1
 373 734 l 1,6,7
 338 680 338 680 315 629 c 128,-1,8
 292 578 292 578 284 520 c 1,9,-1
 182 520 l 1,0,1
EndSplineSet
EndChar

StartChar: quoteright
Encoding: 8217 8217 111
Width: 235
Flags: W
LayerCount: 2
Fore
SplineSet
355 750 m 1,0,1
 350 718 350 718 337 684.5 c 128,-1,2
 324 651 324 651 306.5 619.5 c 128,-1,3
 289 588 289 588 268.5 560 c 128,-1,4
 248 532 248 532 227 510 c 1,5,-1
 164 536 l 1,6,7
 199 590 199 590 222 641 c 128,-1,8
 245 692 245 692 253 750 c 1,9,-1
 355 750 l 1,0,1
EndSplineSet
EndChar

StartChar: bullet
Encoding: 8226 8226 114
Width: 360
Flags: W
LayerCount: 2
Fore
SplineSet
390 353 m 0,0,1
 390 327 390 327 381 304 c 128,-1,2
 372 281 372 281 355.5 264 c 128,-1,3
 339 247 339 247 315.5 236.5 c 128,-1,4
 292 226 292 226 262 226 c 256,5,6
 232 226 232 226 208.5 236.5 c 128,-1,7
 185 247 185 247 168.5 264 c 128,-1,8
 152 281 152 281 143 304 c 128,-1,9
 134 327 134 327 134 353 c 0,10,11
 134 378 134 378 143 401.5 c 128,-1,12
 152 425 152 425 168.5 442 c 128,-1,13
 185 459 185 459 208.5 469.5 c 128,-1,14
 232 480 232 480 262 480 c 256,15,16
 292 480 292 480 315.5 469.5 c 128,-1,17
 339 459 339 459 355.5 442 c 128,-1,18
 372 425 372 425 381 401.5 c 128,-1,19
 390 378 390 378 390 353 c 0,0,1
EndSplineSet
Substitution2: "'case' Case-Sensitive Forms lookup 18 subtable" Bullet
EndChar

StartChar: endash
Encoding: 8211 8211 115
Width: 496
Flags: W
LayerCount: 2
Fore
SplineSet
80 339 m 1,0,-1
 580 339 l 1,1,-1
 561 260 l 1,2,-1
 61 260 l 1,3,-1
 80 339 l 1,0,-1
EndSplineSet
Substitution2: "'case' Case-Sensitive Forms lookup 18 subtable" Endash
EndChar

StartChar: emdash
Encoding: 8212 8212 116
Width: 996
Flags: W
LayerCount: 2
Fore
SplineSet
80 339 m 1,0,-1
 1080 339 l 1,1,-1
 1061 260 l 1,2,-1
 61 260 l 1,3,-1
 80 339 l 1,0,-1
EndSplineSet
Substitution2: "'case' Case-Sensitive Forms lookup 18 subtable" Emdash
EndChar

StartChar: tilde
Encoding: 732 732 117
Width: 376
Flags: W
LayerCount: 2
Fore
SplineSet
365 707 m 0,0,1
 380 699 380 699 392 694 c 128,-1,2
 404 689 404 689 416 689 c 0,3,4
 437 689 437 689 451 704.5 c 128,-1,5
 465 720 465 720 476 737 c 1,6,-1
 523 708 l 1,7,8
 503 666 503 666 475.5 643.5 c 128,-1,9
 448 621 448 621 403 621 c 0,10,11
 383 621 383 621 367.5 628 c 128,-1,12
 352 635 352 635 338 643 c 0,13,14
 323 651 323 651 311 656 c 128,-1,15
 299 661 299 661 287 661 c 0,16,17
 266 661 266 661 252 645.5 c 128,-1,18
 238 630 238 630 227 613 c 1,19,-1
 180 642 l 1,20,21
 200 684 200 684 227.5 706.5 c 128,-1,22
 255 729 255 729 300 729 c 0,23,24
 320 729 320 729 335.5 722 c 128,-1,25
 351 715 351 715 365 707 c 0,0,1
EndSplineSet
EndChar

StartChar: trademark
Encoding: 8482 8482 118
Width: 759
Flags: W
LayerCount: 2
Fore
SplineSet
411 693 m 1,0,-1
 411 632 l 1,1,-1
 306 632 l 1,2,-1
 306 360 l 1,3,-1
 237 360 l 1,4,-1
 237 632 l 1,5,-1
 132 632 l 1,6,-1
 132 693 l 1,7,-1
 411 693 l 1,0,-1
791 693 m 1,8,9
 799 642 799 642 805 562.5 c 128,-1,10
 811 483 811 483 819 360 c 1,11,-1
 749 360 l 1,12,13
 747 411 747 411 744 470.5 c 128,-1,14
 741 530 741 530 737 579 c 1,15,16
 726 560 726 560 712.5 535 c 128,-1,17
 699 510 699 510 686.5 484.5 c 128,-1,18
 674 459 674 459 663 437 c 128,-1,19
 652 415 652 415 646 402 c 1,20,-1
 597 402 l 1,21,22
 591 415 591 415 580 437 c 128,-1,23
 569 459 569 459 556 484 c 128,-1,24
 543 509 543 509 529.5 534 c 128,-1,25
 516 559 516 559 506 579 c 1,26,27
 502 530 502 530 499 470.5 c 128,-1,28
 496 411 496 411 494 360 c 1,29,-1
 425 360 l 1,30,31
 433 483 433 483 439 562.5 c 128,-1,32
 445 642 445 642 453 693 c 1,33,-1
 519 693 l 1,34,35
 527 676 527 676 539 651.5 c 128,-1,36
 551 627 551 627 564.5 599.5 c 128,-1,37
 578 572 578 572 593 543 c 128,-1,38
 608 514 608 514 622 487 c 1,39,40
 635 514 635 514 650 543 c 128,-1,41
 665 572 665 572 679 600 c 128,-1,42
 693 628 693 628 705 652 c 128,-1,43
 717 676 717 676 725 693 c 1,44,-1
 791 693 l 1,8,9
EndSplineSet
EndChar

StartChar: guilsinglright
Encoding: 8250 8250 120
Width: 291
Flags: W
LayerCount: 2
Fore
SplineSet
151 476 m 1,0,-1
 213 505 l 1,1,-1
 331 278 l 1,2,-1
 128 63 l 1,3,-1
 70 98 l 1,4,-1
 227 288 l 1,5,-1
 151 476 l 1,0,-1
EndSplineSet
Substitution2: "'case' Case-Sensitive Forms lookup 18 subtable" Guilsinglright
EndChar

StartChar: oe
Encoding: 339 339 121
Width: 881
Flags: W
LayerCount: 2
Fore
SplineSet
291 66 m 0,0,1
 336 66 336 66 371.5 92 c 128,-1,2
 407 118 407 118 431.5 158.5 c 128,-1,3
 456 199 456 199 469 248 c 128,-1,4
 482 297 482 297 482 343 c 0,5,6
 482 394 482 394 460 424 c 128,-1,7
 438 454 438 454 384 454 c 0,8,9
 339 454 339 454 303.5 428 c 128,-1,10
 268 402 268 402 243.5 361.5 c 128,-1,11
 219 321 219 321 206 272 c 128,-1,12
 193 223 193 223 193 177 c 0,13,14
 193 126 193 126 215 96 c 128,-1,15
 237 66 237 66 291 66 c 0,0,1
567 273 m 1,16,17
 625 275 625 275 673 280.5 c 128,-1,18
 721 286 721 286 756 299.5 c 128,-1,19
 791 313 791 313 810.5 336 c 128,-1,20
 830 359 830 359 830 396 c 0,21,22
 830 405 830 405 826.5 415 c 128,-1,23
 823 425 823 425 814.5 433.5 c 128,-1,24
 806 442 806 442 791 447.5 c 128,-1,25
 776 453 776 453 754 453 c 0,26,27
 719 453 719 453 688.5 438 c 128,-1,28
 658 423 658 423 634 398.5 c 128,-1,29
 610 374 610 374 593 341.5 c 128,-1,30
 576 309 576 309 567 273 c 1,16,17
667 -13 m 0,31,32
 598 -13 598 -13 550.5 16 c 128,-1,33
 503 45 503 45 488 97 c 1,34,35
 456 52 456 52 403 19.5 c 128,-1,36
 350 -13 350 -13 275 -13 c 0,37,38
 193 -13 193 -13 146.5 35.5 c 128,-1,39
 100 84 100 84 100 169 c 0,40,41
 100 227 100 227 116.5 291 c 128,-1,42
 133 355 133 355 169 409 c 128,-1,43
 205 463 205 463 262 498 c 128,-1,44
 319 533 319 533 400 533 c 0,45,46
 463 533 463 533 503 503 c 128,-1,47
 543 473 543 473 553 422 c 1,48,49
 588 470 588 470 641 501 c 128,-1,50
 694 532 694 532 766 532 c 0,51,52
 807 532 807 532 836.5 521.5 c 128,-1,53
 866 511 866 511 884.5 493 c 128,-1,54
 903 475 903 475 912 451.5 c 128,-1,55
 921 428 921 428 921 403 c 0,56,57
 921 356 921 356 904 323.5 c 128,-1,58
 887 291 887 291 859 269 c 128,-1,59
 831 247 831 247 793.5 235 c 128,-1,60
 756 223 756 223 715.5 216 c 128,-1,61
 675 209 675 209 633.5 206.5 c 128,-1,62
 592 204 592 204 555 202 c 1,63,64
 555 197 555 197 554.5 193 c 128,-1,65
 554 189 554 189 554 184 c 0,66,67
 554 149 554 149 564 127 c 128,-1,68
 574 105 574 105 592.5 91.5 c 128,-1,69
 611 78 611 78 637.5 73 c 128,-1,70
 664 68 664 68 697 68 c 0,71,72
 716 68 716 68 735.5 72 c 128,-1,73
 755 76 755 76 772.5 81 c 128,-1,74
 790 86 790 86 803.5 92 c 128,-1,75
 817 98 817 98 823 102 c 1,76,-1
 831 23 l 1,77,78
 822 17 822 17 805 11 c 128,-1,79
 788 5 788 5 766 -0.5 c 128,-1,80
 744 -6 744 -6 719 -9.5 c 128,-1,81
 694 -13 694 -13 667 -13 c 0,31,32
EndSplineSet
Substitution2: "'case' Case-Sensitive Forms lookup 19 subtable" OE
EndChar

StartChar: exclamdown
Encoding: 161 161 124
Width: 250
Flags: W
LayerCount: 2
Fore
SplineSet
29 -185 m 1,0,-1
 74 3 l 2,1,2
 80 27 80 27 90.5 65.5 c 128,-1,3
 101 104 101 104 113.5 145 c 128,-1,4
 126 186 126 186 139.5 225.5 c 128,-1,5
 153 265 153 265 164 291 c 1,6,-1
 221 291 l 1,7,8
 213 223 213 223 202.5 154.5 c 128,-1,9
 192 86 192 86 172 2 c 2,10,-1
 127 -185 l 1,11,-1
 29 -185 l 1,0,-1
222 386 m 0,12,13
 194 386 194 386 178 401 c 128,-1,14
 162 416 162 416 162 445 c 0,15,16
 162 481 162 481 183.5 500.5 c 128,-1,17
 205 520 205 520 233 520 c 256,18,19
 261 520 261 520 277.5 504.5 c 128,-1,20
 294 489 294 489 294 459 c 0,21,22
 294 442 294 442 287.5 428.5 c 128,-1,23
 281 415 281 415 271 405.5 c 128,-1,24
 261 396 261 396 248 391 c 128,-1,25
 235 386 235 386 222 386 c 0,12,13
EndSplineSet
Substitution2: "'case' Case-Sensitive Forms lookup 18 subtable" Exclamdown
EndChar

StartChar: cent
Encoding: 162 162 125
Width: 564
Flags: W
LayerCount: 2
Fore
SplineSet
458 475 m 0,0,1
 411 475 411 475 372.5 453.5 c 128,-1,2
 334 432 334 432 307 397 c 128,-1,3
 280 362 280 362 265 318 c 128,-1,4
 250 274 250 274 250 228 c 0,5,6
 250 204 250 204 255.5 182.5 c 128,-1,7
 261 161 261 161 274.5 145 c 128,-1,8
 288 129 288 129 310.5 119.5 c 128,-1,9
 333 110 333 110 368 110 c 0,10,11
 386 110 386 110 405.5 113 c 128,-1,12
 425 116 425 116 442 121 c 128,-1,13
 459 126 459 126 472 131.5 c 128,-1,14
 485 137 485 137 491 142 c 1,15,-1
 498 65 l 1,16,17
 482 54 482 54 446.5 43.5 c 128,-1,18
 411 33 411 33 366 31 c 1,19,-1
 333 -109 l 1,20,-1
 252 -109 l 1,21,-1
 286 36 l 1,22,23
 159 64 159 64 159 225 c 0,24,25
 159 279 159 279 175 332 c 128,-1,26
 191 385 191 385 223 429.5 c 128,-1,27
 255 474 255 474 302 506 c 128,-1,28
 349 538 349 538 411 549 c 1,29,-1
 445 693 l 1,30,-1
 526 693 l 1,31,-1
 493 554 l 1,32,33
 517 552 517 552 540 546.5 c 128,-1,34
 563 541 563 541 584 530 c 1,35,-1
 550 456 l 1,36,37
 534 465 534 465 512.5 470 c 128,-1,38
 491 475 491 475 458 475 c 0,0,1
EndSplineSet
EndChar

StartChar: sterling
Encoding: 163 163 126
Width: 564
Flags: W
LayerCount: 2
Fore
SplineSet
337 373 m 1,0,-1
 526 373 l 1,1,-1
 508 298 l 1,2,-1
 319 298 l 1,3,-1
 317 290 l 2,4,5
 305 239 305 239 287.5 185 c 128,-1,6
 270 131 270 131 250 80 c 1,7,-1
 540 80 l 1,8,-1
 521 0 l 1,9,-1
 127 0 l 1,10,11
 155 72 155 72 180 141.5 c 128,-1,12
 205 211 205 211 222 283 c 1,13,-1
 226 298 l 1,14,-1
 133 298 l 1,15,-1
 151 373 l 1,16,-1
 244 373 l 1,17,-1
 264 456 l 2,18,19
 282 531 282 531 306 579.5 c 128,-1,20
 330 628 330 628 362.5 656 c 128,-1,21
 395 684 395 684 436 695 c 128,-1,22
 477 706 477 706 528 706 c 0,23,24
 580 706 580 706 609 696.5 c 128,-1,25
 638 687 638 687 661 674 c 1,26,-1
 619 599 l 1,27,28
 596 611 596 611 571.5 618 c 128,-1,29
 547 625 547 625 516 625 c 0,30,31
 487 625 487 625 463 617 c 128,-1,32
 439 609 439 609 419.5 589.5 c 128,-1,33
 400 570 400 570 384.5 538 c 128,-1,34
 369 506 369 506 357 458 c 2,35,-1
 337 373 l 1,0,-1
EndSplineSet
EndChar

StartChar: currency
Encoding: 164 164 127
Width: 564
Flags: W
LayerCount: 2
Fore
SplineSet
166 347 m 0,0,1
 166 409 166 409 194 453 c 1,2,-1
 121 527 l 1,3,-1
 179 585 l 1,4,-1
 253 510 l 1,5,6
 300 539 300 539 359 539 c 0,7,8
 417 539 417 539 464 510 c 1,9,-1
 539 585 l 1,10,-1
 597 527 l 1,11,-1
 523 453 l 1,12,13
 552 409 552 409 552 347 c 256,14,15
 552 285 552 285 523 241 c 1,16,-1
 597 167 l 1,17,-1
 539 109 l 1,18,-1
 464 183 l 1,19,20
 417 155 417 155 359 155 c 0,21,22
 299 155 299 155 253 183 c 1,23,-1
 179 109 l 1,24,-1
 121 167 l 1,25,-1
 194 240 l 1,26,27
 166 284 166 284 166 347 c 0,0,1
477 347 m 0,28,29
 477 375 477 375 467.5 398 c 128,-1,30
 458 421 458 421 442 437.5 c 128,-1,31
 426 454 426 454 404.5 462.5 c 128,-1,32
 383 471 383 471 359 471 c 256,33,34
 335 471 335 471 313.5 462.5 c 128,-1,35
 292 454 292 454 276 437.5 c 128,-1,36
 260 421 260 421 250.5 398 c 128,-1,37
 241 375 241 375 241 347 c 0,38,39
 241 318 241 318 250.5 295.5 c 128,-1,40
 260 273 260 273 276 256.5 c 128,-1,41
 292 240 292 240 313.5 231.5 c 128,-1,42
 335 223 335 223 359 223 c 256,43,44
 383 223 383 223 404.5 231.5 c 128,-1,45
 426 240 426 240 442 256.5 c 128,-1,46
 458 273 458 273 467.5 295.5 c 128,-1,47
 477 318 477 318 477 347 c 0,28,29
EndSplineSet
EndChar

StartChar: yen
Encoding: 165 165 128
Width: 564
Flags: W
LayerCount: 2
Fore
SplineSet
514 106 m 1,0,-1
 351 106 l 1,1,-1
 326 0 l 1,2,-1
 236 0 l 1,3,-1
 261 106 l 1,4,-1
 99 106 l 1,5,-1
 116 177 l 1,6,-1
 278 177 l 1,7,-1
 302 279 l 1,8,-1
 141 279 l 1,9,-1
 158 350 l 1,10,-1
 294 350 l 1,11,12
 223 526 223 526 183 693 c 1,13,-1
 279 693 l 1,14,15
 286 658 286 658 296 619 c 128,-1,16
 306 580 306 580 317.5 540 c 128,-1,17
 329 500 329 500 342.5 460.5 c 128,-1,18
 356 421 356 421 371 386 c 1,19,20
 399 419 399 419 430 457.5 c 128,-1,21
 461 496 461 496 491.5 536 c 128,-1,22
 522 576 522 576 550.5 616 c 128,-1,23
 579 656 579 656 602 693 c 1,24,-1
 707 693 l 1,25,26
 647 606 647 606 576 516.5 c 128,-1,27
 505 427 505 427 436 350 c 1,28,-1
 572 350 l 1,29,-1
 555 279 l 1,30,-1
 392 279 l 1,31,-1
 368 177 l 1,32,-1
 531 177 l 1,33,-1
 514 106 l 1,0,-1
EndSplineSet
EndChar

StartChar: brokenbar
Encoding: 166 166 129
Width: 275
Flags: W
LayerCount: 2
Fore
SplineSet
189 400 m 1,0,-1
 281 783 l 1,1,-1
 366 783 l 1,2,-1
 274 400 l 1,3,-1
 189 400 l 1,0,-1
225 198 m 1,4,-1
 133 -185 l 1,5,-1
 48 -185 l 1,6,-1
 140 198 l 1,7,-1
 225 198 l 1,4,-1
EndSplineSet
EndChar

StartChar: section
Encoding: 167 167 130
Width: 486
Flags: W
LayerCount: 2
Fore
SplineSet
249 135 m 0,0,1
 221 145 221 145 196.5 156 c 128,-1,2
 172 167 172 167 153.5 183.5 c 128,-1,3
 135 200 135 200 124 224.5 c 128,-1,4
 113 249 113 249 113 285 c 0,5,6
 113 339 113 339 148.5 383.5 c 128,-1,7
 184 428 184 428 235 456 c 1,8,9
 206 485 206 485 206 537 c 0,10,11
 206 578 206 578 222 610 c 128,-1,12
 238 642 238 642 267 664 c 128,-1,13
 296 686 296 686 336.5 697.5 c 128,-1,14
 377 709 377 709 425 709 c 0,15,16
 476 709 476 709 512.5 698.5 c 128,-1,17
 549 688 549 688 572 677 c 1,18,-1
 537 605 l 1,19,20
 520 613 520 613 491.5 623.5 c 128,-1,21
 463 634 463 634 418 634 c 0,22,23
 365 634 365 634 331 614.5 c 128,-1,24
 297 595 297 595 297 551 c 0,25,26
 297 522 297 522 316 506 c 128,-1,27
 335 490 335 490 380 474 c 0,28,29
 408 463 408 463 432.5 452 c 128,-1,30
 457 441 457 441 475 425 c 128,-1,31
 493 409 493 409 503.5 385 c 128,-1,32
 514 361 514 361 514 324 c 0,33,34
 514 267 514 267 479 224.5 c 128,-1,35
 444 182 444 182 392 153 c 1,36,37
 406 140 406 140 418.5 118.5 c 128,-1,38
 431 97 431 97 431 59 c 0,39,40
 431 23 431 23 416 -8 c 128,-1,41
 401 -39 401 -39 371.5 -61.5 c 128,-1,42
 342 -84 342 -84 299 -96.5 c 128,-1,43
 256 -109 256 -109 200 -109 c 0,44,45
 146 -109 146 -109 103.5 -99.5 c 128,-1,46
 61 -90 61 -90 32 -74 c 1,47,-1
 68 -1 l 1,48,49
 87 -12 87 -12 123 -23 c 128,-1,50
 159 -34 159 -34 207 -34 c 0,51,52
 273 -34 273 -34 306.5 -11 c 128,-1,53
 340 12 340 12 340 50 c 0,54,55
 340 69 340 69 333.5 82 c 128,-1,56
 327 95 327 95 315.5 104 c 128,-1,57
 304 113 304 113 287 120 c 128,-1,58
 270 127 270 127 249 135 c 0,0,1
335 191 m 1,59,60
 352 199 352 199 368.5 211 c 128,-1,61
 385 223 385 223 398 239 c 128,-1,62
 411 255 411 255 419 273.5 c 128,-1,63
 427 292 427 292 427 313 c 0,64,65
 427 332 427 332 418 346.5 c 128,-1,66
 409 361 409 361 393.5 372 c 128,-1,67
 378 383 378 383 356.5 392 c 128,-1,68
 335 401 335 401 311 410 c 0,69,70
 298 415 298 415 294 418 c 1,71,72
 277 410 277 410 260.5 397.5 c 128,-1,73
 244 385 244 385 230.5 369.5 c 128,-1,74
 217 354 217 354 208.5 335.5 c 128,-1,75
 200 317 200 317 200 296 c 0,76,77
 200 276 200 276 209.5 262 c 128,-1,78
 219 248 219 248 234.5 237 c 128,-1,79
 250 226 250 226 271 217 c 128,-1,80
 292 208 292 208 316 199 c 0,81,82
 322 197 322 197 326.5 195 c 128,-1,83
 331 193 331 193 335 191 c 1,59,60
EndSplineSet
EndChar

StartChar: dieresis
Encoding: 168 168 131
Width: 376
Flags: W
LayerCount: 2
Fore
SplineSet
249 616 m 0,0,1
 227 616 227 616 212 630 c 128,-1,2
 197 644 197 644 197 667 c 0,3,4
 197 697 197 697 217 715.5 c 128,-1,5
 237 734 237 734 260 734 c 0,6,7
 282 734 282 734 297.5 719.5 c 128,-1,8
 313 705 313 705 313 681 c 0,9,10
 313 652 313 652 292.5 634 c 128,-1,11
 272 616 272 616 249 616 c 0,0,1
439 616 m 0,12,13
 417 616 417 616 402 630 c 128,-1,14
 387 644 387 644 387 667 c 0,15,16
 387 697 387 697 407 715.5 c 128,-1,17
 427 734 427 734 450 734 c 0,18,19
 472 734 472 734 487.5 719.5 c 128,-1,20
 503 705 503 705 503 681 c 0,21,22
 503 652 503 652 482.5 634 c 128,-1,23
 462 616 462 616 439 616 c 0,12,13
EndSplineSet
EndChar

StartChar: copyright
Encoding: 169 169 132
Width: 814
Flags: W
LayerCount: 2
Fore
SplineSet
826 347 m 0,0,1
 826 261 826 261 798 194 c 128,-1,2
 770 127 770 127 723 80.5 c 128,-1,3
 676 34 676 34 614 9.5 c 128,-1,4
 552 -15 552 -15 484 -15 c 256,5,6
 416 -15 416 -15 354 9.5 c 128,-1,7
 292 34 292 34 245 80.5 c 128,-1,8
 198 127 198 127 170 194 c 128,-1,9
 142 261 142 261 142 347 c 0,10,11
 142 432 142 432 170 499.5 c 128,-1,12
 198 567 198 567 245 613.5 c 128,-1,13
 292 660 292 660 354 684.5 c 128,-1,14
 416 709 416 709 484 709 c 256,15,16
 552 709 552 709 614 684.5 c 128,-1,17
 676 660 676 660 723 613.5 c 128,-1,18
 770 567 770 567 798 499.5 c 128,-1,19
 826 432 826 432 826 347 c 0,0,1
753 347 m 256,20,21
 753 413 753 413 733 467.5 c 128,-1,22
 713 522 713 522 677.5 561 c 128,-1,23
 642 600 642 600 592.5 621 c 128,-1,24
 543 642 543 642 484 642 c 256,25,26
 425 642 425 642 375.5 621 c 128,-1,27
 326 600 326 600 290.5 561 c 128,-1,28
 255 522 255 522 235 467.5 c 128,-1,29
 215 413 215 413 215 347 c 256,30,31
 215 281 215 281 235 226.5 c 128,-1,32
 255 172 255 172 290.5 133 c 128,-1,33
 326 94 326 94 375.5 73 c 128,-1,34
 425 52 425 52 484 52 c 256,35,36
 543 52 543 52 592.5 73 c 128,-1,37
 642 94 642 94 677.5 133 c 128,-1,38
 713 172 713 172 733 226.5 c 128,-1,39
 753 281 753 281 753 347 c 256,20,21
496 140 m 0,40,41
 453 140 453 140 418 154 c 128,-1,42
 383 168 383 168 357.5 194 c 128,-1,43
 332 220 332 220 318 258.5 c 128,-1,44
 304 297 304 297 304 347 c 0,45,46
 304 396 304 396 319.5 434 c 128,-1,47
 335 472 335 472 361 498.5 c 128,-1,48
 387 525 387 525 422 539 c 128,-1,49
 457 553 457 553 496 553 c 0,50,51
 522 553 522 553 543.5 549 c 128,-1,52
 565 545 565 545 581 539.5 c 128,-1,53
 597 534 597 534 607.5 528.5 c 128,-1,54
 618 523 618 523 622 520 c 1,55,-1
 599 460 l 1,56,57
 587 467 587 467 560.5 476.5 c 128,-1,58
 534 486 534 486 499 486 c 0,59,60
 448 486 448 486 414 451 c 128,-1,61
 380 416 380 416 380 347 c 0,62,63
 380 284 380 284 411 245 c 128,-1,64
 442 206 442 206 502 206 c 0,65,66
 541 206 541 206 566.5 214.5 c 128,-1,67
 592 223 592 223 606 230 c 1,68,-1
 625 170 l 1,69,70
 614 164 614 164 579.5 152 c 128,-1,71
 545 140 545 140 496 140 c 0,40,41
EndSplineSet
EndChar

StartChar: ordfeminine
Encoding: 170 170 133
Width: 415
Flags: W
LayerCount: 2
Fore
SplineSet
281 330 m 0,0,1
 216 330 216 330 187 366.5 c 128,-1,2
 158 403 158 403 158 462 c 0,3,4
 158 508 158 508 174 552 c 128,-1,5
 190 596 190 596 222 630.5 c 128,-1,6
 254 665 254 665 302 686.5 c 128,-1,7
 350 708 350 708 415 708 c 0,8,9
 433 708 433 708 459.5 703.5 c 128,-1,10
 486 699 486 699 508 690 c 1,11,-1
 453 487 l 2,12,13
 444 455 444 455 444 425 c 0,14,15
 444 400 444 400 449 382.5 c 128,-1,16
 454 365 454 365 462 344 c 1,17,-1
 393 332 l 1,18,19
 389 337 389 337 384.5 347 c 128,-1,20
 380 357 380 357 378 367 c 1,21,22
 364 353 364 353 339.5 341.5 c 128,-1,23
 315 330 315 330 281 330 c 0,0,1
422 644 m 1,24,25
 420 645 420 645 414.5 646 c 128,-1,26
 409 647 409 647 401 647 c 0,27,28
 363 647 363 647 331.5 632.5 c 128,-1,29
 300 618 300 618 277.5 593 c 128,-1,30
 255 568 255 568 243 536 c 128,-1,31
 231 504 231 504 231 469 c 0,32,33
 231 454 231 454 233.5 440 c 128,-1,34
 236 426 236 426 243.5 415 c 128,-1,35
 251 404 251 404 264 397.5 c 128,-1,36
 277 391 277 391 297 391 c 0,37,38
 319 391 319 391 338 402 c 128,-1,39
 357 413 357 413 372 429 c 1,40,41
 372 444 372 444 375.5 461.5 c 128,-1,42
 379 479 379 479 382 492 c 2,43,-1
 422 644 l 1,24,25
EndSplineSet
EndChar

StartChar: logicalnot
Encoding: 172 172 135
Width: 564
Flags: W
LayerCount: 2
Fore
SplineSet
600 392 m 1,0,-1
 518 51 l 1,1,-1
 434 51 l 1,2,-1
 497 313 l 1,3,-1
 132 313 l 1,4,-1
 151 392 l 1,5,-1
 600 392 l 1,0,-1
EndSplineSet
EndChar

StartChar: registered
Encoding: 174 174 137
Width: 814
Flags: W
LayerCount: 2
Fore
SplineSet
826 347 m 0,0,1
 826 261 826 261 798 194 c 128,-1,2
 770 127 770 127 723 80.5 c 128,-1,3
 676 34 676 34 614 9.5 c 128,-1,4
 552 -15 552 -15 484 -15 c 256,5,6
 416 -15 416 -15 354 9.5 c 128,-1,7
 292 34 292 34 245 80.5 c 128,-1,8
 198 127 198 127 170 194 c 128,-1,9
 142 261 142 261 142 347 c 0,10,11
 142 432 142 432 170 499.5 c 128,-1,12
 198 567 198 567 245 613.5 c 128,-1,13
 292 660 292 660 354 684.5 c 128,-1,14
 416 709 416 709 484 709 c 256,15,16
 552 709 552 709 614 684.5 c 128,-1,17
 676 660 676 660 723 613.5 c 128,-1,18
 770 567 770 567 798 499.5 c 128,-1,19
 826 432 826 432 826 347 c 0,0,1
753 347 m 256,20,21
 753 413 753 413 733 467.5 c 128,-1,22
 713 522 713 522 677.5 561 c 128,-1,23
 642 600 642 600 592.5 621 c 128,-1,24
 543 642 543 642 484 642 c 256,25,26
 425 642 425 642 375.5 621 c 128,-1,27
 326 600 326 600 290.5 561 c 128,-1,28
 255 522 255 522 235 467.5 c 128,-1,29
 215 413 215 413 215 347 c 256,30,31
 215 281 215 281 235 226.5 c 128,-1,32
 255 172 255 172 290.5 133 c 128,-1,33
 326 94 326 94 375.5 73 c 128,-1,34
 425 52 425 52 484 52 c 256,35,36
 543 52 543 52 592.5 73 c 128,-1,37
 642 94 642 94 677.5 133 c 128,-1,38
 713 172 713 172 733 226.5 c 128,-1,39
 753 281 753 281 753 347 c 256,20,21
583 148 m 1,40,41
 560 193 560 193 531.5 233.5 c 128,-1,42
 503 274 503 274 482 298 c 1,43,-1
 415 298 l 1,44,-1
 415 148 l 1,45,-1
 344 148 l 1,46,-1
 344 536 l 1,47,48
 371 542 371 542 401 545 c 128,-1,49
 431 548 431 548 456 548 c 0,50,51
 543 548 543 548 587.5 516.5 c 128,-1,52
 632 485 632 485 632 419 c 0,53,54
 632 382 632 382 612.5 354.5 c 128,-1,55
 593 327 593 327 557 312 c 1,56,57
 567 300 567 300 580 282 c 128,-1,58
 593 264 593 264 607.5 242.5 c 128,-1,59
 622 221 622 221 635.5 196.5 c 128,-1,60
 649 172 649 172 660 148 c 1,61,-1
 583 148 l 1,40,41
415 356 m 1,62,-1
 453 356 l 2,63,64
 498 356 498 356 528 368.5 c 128,-1,65
 558 381 558 381 558 420 c 0,66,67
 558 457 558 457 529.5 471.5 c 128,-1,68
 501 486 501 486 461 486 c 0,69,70
 450 486 450 486 438 485.5 c 128,-1,71
 426 485 426 485 415 484 c 1,72,-1
 415 356 l 1,62,-1
EndSplineSet
EndChar

StartChar: macron
Encoding: 175 175 138
Width: 376
Flags: W
LayerCount: 2
Fore
SplineSet
218 711 m 1,0,-1
 498 711 l 1,1,-1
 481 639 l 1,2,-1
 201 639 l 1,3,-1
 218 711 l 1,0,-1
EndSplineSet
EndChar

StartChar: degree
Encoding: 176 176 139
Width: 332
Flags: W
LayerCount: 2
Fore
SplineSet
432 637 m 256,0,1
 432 605 432 605 420.5 579 c 128,-1,2
 409 553 409 553 390 535 c 128,-1,3
 371 517 371 517 345.5 507.5 c 128,-1,4
 320 498 320 498 292 498 c 256,5,6
 264 498 264 498 238.5 507.5 c 128,-1,7
 213 517 213 517 194 535 c 128,-1,8
 175 553 175 553 163.5 579 c 128,-1,9
 152 605 152 605 152 637 c 256,10,11
 152 669 152 669 163.5 695 c 128,-1,12
 175 721 175 721 194 739 c 128,-1,13
 213 757 213 757 238.5 766.5 c 128,-1,14
 264 776 264 776 292 776 c 256,15,16
 320 776 320 776 345.5 766.5 c 128,-1,17
 371 757 371 757 390 739 c 128,-1,18
 409 721 409 721 420.5 695 c 128,-1,19
 432 669 432 669 432 637 c 256,0,1
365 637 m 256,20,21
 365 672 365 672 343.5 692.5 c 128,-1,22
 322 713 322 713 292 713 c 256,23,24
 262 713 262 713 240.5 692.5 c 128,-1,25
 219 672 219 672 219 637 c 256,26,27
 219 602 219 602 240.5 581.5 c 128,-1,28
 262 561 262 561 292 561 c 256,29,30
 322 561 322 561 343.5 581.5 c 128,-1,31
 365 602 365 602 365 637 c 256,20,21
EndSplineSet
EndChar

StartChar: plusminus
Encoding: 177 177 140
Width: 564
Flags: W
LayerCount: 2
Fore
SplineSet
472 620 m 1,0,-1
 422 414 l 1,1,-1
 604 414 l 1,2,-1
 585 335 l 1,3,-1
 403 335 l 1,4,-1
 356 139 l 1,5,-1
 272 139 l 1,6,-1
 318 335 l 1,7,-1
 136 335 l 1,8,-1
 155 414 l 1,9,-1
 337 414 l 1,10,-1
 387 620 l 1,11,-1
 472 620 l 1,0,-1
523 79 m 1,12,-1
 504 0 l 1,13,-1
 55 0 l 1,14,-1
 74 79 l 1,15,-1
 523 79 l 1,12,-1
EndSplineSet
EndChar

StartChar: twosuperior
Encoding: 178 178 141
Width: 359
Flags: W
LayerCount: 2
Fore
SplineSet
402 378 m 1,0,-1
 387 315 l 1,1,-1
 124 315 l 1,2,3
 128 351 128 351 140 377.5 c 128,-1,4
 152 404 152 404 170 425 c 128,-1,5
 188 446 188 446 211 463 c 128,-1,6
 234 480 234 480 260 496 c 256,7,8
 286 512 286 512 305.5 525 c 128,-1,9
 325 538 325 538 338 550 c 128,-1,10
 351 562 351 562 357.5 575.5 c 128,-1,11
 364 589 364 589 364 606 c 0,12,13
 364 627 364 627 349.5 637 c 128,-1,14
 335 647 335 647 315 647 c 0,15,16
 273 647 273 647 248.5 632.5 c 128,-1,17
 224 618 224 618 211 607 c 1,18,-1
 187 656 l 1,19,20
 207 675 207 675 242 692 c 128,-1,21
 277 709 277 709 323 709 c 0,22,23
 380 709 380 709 407.5 682.5 c 128,-1,24
 435 656 435 656 435 611 c 0,25,26
 435 582 435 582 421.5 558 c 128,-1,27
 408 534 408 534 387 514 c 128,-1,28
 366 494 366 494 341 477.5 c 128,-1,29
 316 461 316 461 293 447 c 1,30,31
 272 433 272 433 247 417 c 128,-1,32
 222 401 222 401 213 378 c 1,33,-1
 402 378 l 1,0,-1
EndSplineSet
Substitution2: "Single Substitution lookup 26 subtable" twoinferior
Substitution2: "'sinf' Scientific Inferiors lookup 13 subtable" two.sinf
Substitution2: "'subs' Subscript lookup 12 subtable" two.sinf
Substitution2: "'sups' Superscript lookup 11 subtable" two.sups
Substitution2: "'dnom' Denominators lookup 10 subtable" twoinferior
EndChar

StartChar: threesuperior
Encoding: 179 179 142
Width: 359
Flags: W
LayerCount: 2
Fore
SplineSet
232 368 m 0,0,1
 253 368 253 368 272.5 371 c 128,-1,2
 292 374 292 374 307 382.5 c 128,-1,3
 322 391 322 391 331.5 405 c 128,-1,4
 341 419 341 419 341 440 c 0,5,6
 341 468 341 468 315 480 c 128,-1,7
 289 492 289 492 246 492 c 2,8,-1
 225 492 l 1,9,-1
 239 548 l 1,10,-1
 264 548 l 2,11,12
 278 548 278 548 295.5 551 c 128,-1,13
 313 554 313 554 328 561 c 128,-1,14
 343 568 343 568 353.5 579 c 128,-1,15
 364 590 364 590 364 607 c 0,16,17
 364 630 364 630 350.5 639 c 128,-1,18
 337 648 337 648 308 648 c 0,19,20
 281 648 281 648 255.5 640 c 128,-1,21
 230 632 230 632 214 624 c 1,22,-1
 200 676 l 1,23,24
 209 682 209 682 223.5 687.5 c 128,-1,25
 238 693 238 693 255.5 698 c 128,-1,26
 273 703 273 703 291 706 c 128,-1,27
 309 709 309 709 325 709 c 0,28,29
 384 709 384 709 408.5 685 c 128,-1,30
 433 661 433 661 433 627 c 0,31,32
 433 587 433 587 412.5 563 c 128,-1,33
 392 539 392 539 356 522 c 1,34,35
 380 512 380 512 395.5 493 c 128,-1,36
 411 474 411 474 411 442 c 0,37,38
 411 376 411 376 361 341.5 c 128,-1,39
 311 307 311 307 230 307 c 0,40,41
 190 307 190 307 161.5 315 c 128,-1,42
 133 323 133 323 113 334 c 1,43,-1
 140 390 l 1,44,45
 157 382 157 382 181.5 375 c 128,-1,46
 206 368 206 368 232 368 c 0,0,1
EndSplineSet
Substitution2: "Single Substitution lookup 26 subtable" threeinferior
Substitution2: "'sinf' Scientific Inferiors lookup 13 subtable" three.sinf
Substitution2: "'subs' Subscript lookup 12 subtable" three.sinf
Substitution2: "'sups' Superscript lookup 11 subtable" three.sups
Substitution2: "'dnom' Denominators lookup 10 subtable" threeinferior
EndChar

StartChar: acute
Encoding: 180 180 143
Width: 376
Flags: W
LayerCount: 2
Fore
SplineSet
471 708 m 1,0,-1
 302 580 l 1,1,-1
 262 629 l 1,2,-1
 420 780 l 1,3,-1
 471 708 l 1,0,-1
EndSplineSet
EndChar

StartChar: mu
Encoding: 181 181 144
Width: 572
Flags: W
LayerCount: 2
Fore
SplineSet
427 115 m 1,0,1
 427 141 427 141 429.5 166 c 128,-1,2
 432 191 432 191 439 219 c 2,3,-1
 511 520 l 1,4,-1
 604 520 l 1,5,-1
 530 211 l 2,6,7
 525 188 525 188 521 168 c 128,-1,8
 517 148 517 148 517 131 c 0,9,10
 517 105 517 105 529.5 88 c 128,-1,11
 542 71 542 71 574 66 c 1,12,-1
 553 -9 l 1,13,14
 511 -8 511 -8 486 5.5 c 128,-1,15
 461 19 461 19 446 44 c 1,16,17
 410 16 410 16 366 3 c 128,-1,18
 322 -10 322 -10 273 -10 c 0,19,20
 242 -10 242 -10 215 2.5 c 128,-1,21
 188 15 188 15 174 38 c 1,22,23
 170 12 170 12 163.5 -19.5 c 128,-1,24
 157 -51 157 -51 149 -82 c 2,25,-1
 124 -185 l 1,26,-1
 32 -185 l 1,27,-1
 201 520 l 1,28,-1
 294 520 l 1,29,-1
 235 274 l 2,30,31
 230 251 230 251 222 220 c 128,-1,32
 214 189 214 189 214 158 c 0,33,34
 214 140 214 140 217.5 123.5 c 128,-1,35
 221 107 221 107 231 94.5 c 128,-1,36
 241 82 241 82 257 74.5 c 128,-1,37
 273 67 273 67 299 67 c 0,38,39
 337 67 337 67 368.5 79.5 c 128,-1,40
 400 92 400 92 427 115 c 1,0,1
EndSplineSet
EndChar

StartChar: paragraph
Encoding: 182 182 145
Width: 650
Flags: W
LayerCount: 2
Fore
SplineSet
538 623 m 0,0,1
 530 623 530 623 520.5 623 c 128,-1,2
 511 623 511 623 505 622 c 1,3,-1
 311 -185 l 1,4,-1
 233 -185 l 1,5,-1
 340 262 l 1,6,7
 239 269 239 269 196 311 c 128,-1,8
 153 353 153 353 153 424 c 0,9,10
 153 499 153 499 187 551.5 c 128,-1,11
 221 604 221 604 275.5 637 c 128,-1,12
 330 670 330 670 398 685 c 128,-1,13
 466 700 466 700 534 700 c 0,14,15
 576 700 576 700 623 696.5 c 128,-1,16
 670 693 670 693 708 683 c 1,17,-1
 500 -185 l 1,18,-1
 422 -185 l 1,19,-1
 615 618 l 1,20,21
 590 623 590 623 538 623 c 0,0,1
EndSplineSet
EndChar

StartChar: cedilla
Encoding: 184 184 147
Width: 376
Flags: W
LayerCount: 2
Fore
SplineSet
189 -38 m 1,0,1
 209 -49 209 -49 219 -62 c 128,-1,2
 229 -75 229 -75 229 -98 c 0,3,4
 229 -143 229 -143 198 -166 c 128,-1,5
 167 -189 167 -189 113 -189 c 0,6,7
 84 -189 84 -189 64.5 -184.5 c 128,-1,8
 45 -180 45 -180 32 -174 c 1,9,-1
 55 -119 l 1,10,11
 63 -123 63 -123 76 -126.5 c 128,-1,12
 89 -130 89 -130 108 -130 c 0,13,14
 125 -130 125 -130 136 -124.5 c 128,-1,15
 147 -119 147 -119 147 -105 c 0,16,17
 147 -93 147 -93 139 -87 c 128,-1,18
 131 -81 131 -81 112 -72 c 2,19,-1
 106 -69 l 1,20,21
 112 -59 112 -59 121 -45.5 c 128,-1,22
 130 -32 130 -32 139 -19 c 128,-1,23
 148 -6 148 -6 156 4.5 c 128,-1,24
 164 15 164 15 168 20 c 1,25,-1
 232 20 l 1,26,27
 224 9 224 9 210.5 -8.5 c 128,-1,28
 197 -26 197 -26 189 -38 c 1,0,1
EndSplineSet
EndChar

StartChar: onesuperior
Encoding: 185 185 148
Width: 359
Flags: W
LayerCount: 2
Fore
SplineSet
199 621 m 1,0,1
 245 635 245 635 285.5 655.5 c 128,-1,2
 326 676 326 676 357 701 c 1,3,-1
 407 701 l 1,4,-1
 314 315 l 1,5,-1
 243 315 l 1,6,-1
 313 605 l 1,7,8
 287 591 287 591 257.5 580.5 c 128,-1,9
 228 570 228 570 208 564 c 1,10,-1
 199 621 l 1,0,1
EndSplineSet
Substitution2: "Single Substitution lookup 26 subtable" oneinferior
Substitution2: "'sinf' Scientific Inferiors lookup 13 subtable" one.sinf
Substitution2: "'subs' Subscript lookup 12 subtable" one.sinf
Substitution2: "'sups' Superscript lookup 11 subtable" one.sups
Substitution2: "'dnom' Denominators lookup 10 subtable" oneinferior
EndChar

StartChar: ordmasculine
Encoding: 186 186 149
Width: 446
Flags: W
LayerCount: 2
Fore
SplineSet
386 709 m 0,0,1
 446 709 446 709 480.5 675.5 c 128,-1,2
 515 642 515 642 515 581 c 0,3,4
 515 541 515 541 503 496.5 c 128,-1,5
 491 452 491 452 464.5 414.5 c 128,-1,6
 438 377 438 377 395.5 352.5 c 128,-1,7
 353 328 353 328 292 328 c 0,8,9
 232 328 232 328 197.5 361.5 c 128,-1,10
 163 395 163 395 163 456 c 0,11,12
 163 496 163 496 175 540.5 c 128,-1,13
 187 585 187 585 213.5 622.5 c 128,-1,14
 240 660 240 660 282.5 684.5 c 128,-1,15
 325 709 325 709 386 709 c 0,0,1
305 390 m 0,16,17
 337 390 337 390 362 407.5 c 128,-1,18
 387 425 387 425 404.5 452 c 128,-1,19
 422 479 422 479 431 512 c 128,-1,20
 440 545 440 545 440 575 c 0,21,22
 440 607 440 607 424 627 c 128,-1,23
 408 647 408 647 373 647 c 0,24,25
 341 647 341 647 316 629.5 c 128,-1,26
 291 612 291 612 273.5 585 c 128,-1,27
 256 558 256 558 247 525 c 128,-1,28
 238 492 238 492 238 462 c 0,29,30
 238 430 238 430 254 410 c 128,-1,31
 270 390 270 390 305 390 c 0,16,17
EndSplineSet
EndChar

StartChar: questiondown
Encoding: 191 191 154
Width: 384
Flags: W
LayerCount: 2
Fore
SplineSet
207 -188 m 0,0,1
 160 -188 160 -188 128 -177 c 128,-1,2
 96 -166 96 -166 76 -147.5 c 128,-1,3
 56 -129 56 -129 47.5 -104 c 128,-1,4
 39 -79 39 -79 39 -52 c 0,5,6
 39 -19 39 -19 48.5 7.5 c 128,-1,7
 58 34 58 34 75 56.5 c 128,-1,8
 92 79 92 79 115 99.5 c 128,-1,9
 138 120 138 120 165 141 c 0,10,11
 198 167 198 167 228 198 c 128,-1,12
 258 229 258 229 269 273 c 0,13,14
 271 279 271 279 271.5 284 c 128,-1,15
 272 289 272 289 272 291 c 1,16,-1
 353 291 l 1,17,18
 352 279 352 279 351 269.5 c 128,-1,19
 350 260 350 260 348 250 c 0,20,21
 336 199 336 199 301.5 162.5 c 128,-1,22
 267 126 267 126 229 97 c 0,23,24
 211 83 211 83 194 68.5 c 128,-1,25
 177 54 177 54 163 37.5 c 128,-1,26
 149 21 149 21 140.5 2 c 128,-1,27
 132 -17 132 -17 132 -40 c 0,28,29
 132 -51 132 -51 135 -64 c 128,-1,30
 138 -77 138 -77 147.5 -87.5 c 128,-1,31
 157 -98 157 -98 174 -105 c 128,-1,32
 191 -112 191 -112 219 -112 c 0,33,34
 267 -112 267 -112 299 -101 c 128,-1,35
 331 -90 331 -90 349 -81 c 1,36,-1
 359 -153 l 1,37,38
 335 -167 335 -167 293.5 -177.5 c 128,-1,39
 252 -188 252 -188 207 -188 c 0,0,1
323 386 m 0,40,41
 295 386 295 386 279 401 c 128,-1,42
 263 416 263 416 263 445 c 0,43,44
 263 481 263 481 284.5 500.5 c 128,-1,45
 306 520 306 520 334 520 c 256,46,47
 362 520 362 520 378.5 504.5 c 128,-1,48
 395 489 395 489 395 459 c 0,49,50
 395 442 395 442 388.5 428.5 c 128,-1,51
 382 415 382 415 372 405.5 c 128,-1,52
 362 396 362 396 349 391 c 128,-1,53
 336 386 336 386 323 386 c 0,40,41
EndSplineSet
Substitution2: "'case' Case-Sensitive Forms lookup 18 subtable" Questiondown
EndChar

StartChar: Aring
Encoding: 197 197 160
Width: 636
Flags: W
LayerCount: 2
Fore
SplineSet
534 0 m 1,0,1
 529 45 529 45 525 90.5 c 128,-1,2
 521 136 521 136 516 178 c 1,3,-1
 214 178 l 1,4,-1
 116 0 l 1,5,-1
 10 0 l 1,6,7
 116 191 116 191 217 354 c 128,-1,8
 318 517 318 517 417 662 c 1,9,10
 403 675 403 675 394.5 694 c 128,-1,11
 386 713 386 713 386 737 c 256,12,13
 386 761 386 761 394.5 779.5 c 128,-1,14
 403 798 403 798 417 811.5 c 128,-1,15
 431 825 431 825 449.5 832 c 128,-1,16
 468 839 468 839 489 839 c 256,17,18
 510 839 510 839 528.5 832 c 128,-1,19
 547 825 547 825 561 811.5 c 128,-1,20
 575 798 575 798 583.5 779.5 c 128,-1,21
 592 761 592 761 592 737 c 0,22,23
 592 706 592 706 578.5 683.5 c 128,-1,24
 565 661 565 661 543 648 c 1,25,26
 556 578 556 578 567 506.5 c 128,-1,27
 578 435 578 435 588.5 356 c 128,-1,28
 599 277 599 277 609.5 189.5 c 128,-1,29
 620 102 620 102 632 0 c 1,30,-1
 534 0 l 1,0,1
542 737 m 256,31,32
 542 763 542 763 526.5 777.5 c 128,-1,33
 511 792 511 792 489 792 c 256,34,35
 467 792 467 792 451.5 777.5 c 128,-1,36
 436 763 436 763 436 737 c 256,37,38
 436 711 436 711 451.5 696.5 c 128,-1,39
 467 682 467 682 489 682 c 256,40,41
 511 682 511 682 526.5 696.5 c 128,-1,42
 542 711 542 711 542 737 c 256,31,32
464 582 m 1,43,44
 429 531 429 531 377 450.5 c 128,-1,45
 325 370 325 370 259 256 c 1,46,-1
 507 256 l 1,47,48
 499 337 499 337 488.5 417 c 128,-1,49
 478 497 478 497 464 582 c 1,43,44
EndSplineSet
EndChar

StartChar: AE
Encoding: 198 198 161
Width: 928
Flags: W
LayerCount: 2
Fore
SplineSet
510 178 m 1,0,-1
 245 178 l 1,1,2
 211 133 211 133 178.5 89 c 128,-1,3
 146 45 146 45 114 0 c 1,4,-1
 3 0 l 1,5,6
 82 108 82 108 156.5 203.5 c 128,-1,7
 231 299 231 299 302.5 384 c 128,-1,8
 374 469 374 469 443.5 545.5 c 128,-1,9
 513 622 513 622 582 693 c 1,10,-1
 1027 693 l 1,11,-1
 1008 612 l 1,12,-1
 710 612 l 1,13,-1
 660 403 l 1,14,-1
 923 403 l 1,15,-1
 904 324 l 1,16,-1
 642 324 l 1,17,-1
 583 81 l 1,18,-1
 904 81 l 1,19,-1
 885 0 l 1,20,-1
 468 0 l 1,21,-1
 510 178 l 1,0,-1
615 613 m 1,22,23
 537 531 537 531 459 441.5 c 128,-1,24
 381 352 381 352 306 256 c 1,25,-1
 529 256 l 1,26,-1
 615 613 l 1,22,23
EndSplineSet
EndChar

StartChar: Ccedilla
Encoding: 199 199 162
Width: 600
Flags: W
LayerCount: 2
Fore
SplineSet
382 -15 m 1,0,1
 377 -20 377 -20 373.5 -26 c 128,-1,2
 370 -32 370 -32 366 -38 c 1,3,4
 386 -49 386 -49 396 -62 c 128,-1,5
 406 -75 406 -75 406 -98 c 0,6,7
 406 -143 406 -143 375 -166 c 128,-1,8
 344 -189 344 -189 290 -189 c 0,9,10
 261 -189 261 -189 241.5 -184.5 c 128,-1,11
 222 -180 222 -180 209 -174 c 1,12,-1
 232 -119 l 1,13,14
 240 -123 240 -123 253 -126.5 c 128,-1,15
 266 -130 266 -130 285 -130 c 0,16,17
 302 -130 302 -130 313 -124.5 c 128,-1,18
 324 -119 324 -119 324 -105 c 0,19,20
 324 -93 324 -93 316 -87 c 128,-1,21
 308 -81 308 -81 289 -72 c 2,22,-1
 283 -69 l 1,23,24
 290 -57 290 -57 301 -40 c 128,-1,25
 312 -23 312 -23 323 -9 c 1,26,27
 223 8 223 8 173.5 76.5 c 128,-1,28
 124 145 124 145 124 254 c 0,29,30
 124 344 124 344 152.5 426 c 128,-1,31
 181 508 181 508 233.5 571 c 128,-1,32
 286 634 286 634 360 671.5 c 128,-1,33
 434 709 434 709 525 709 c 0,34,35
 603 709 603 709 649.5 693 c 128,-1,36
 696 677 696 677 716 663 c 1,37,-1
 676 583 l 1,38,39
 653 598 653 598 613.5 611.5 c 128,-1,40
 574 625 574 625 520 625 c 0,41,42
 451 625 451 625 396 592.5 c 128,-1,43
 341 560 341 560 303 508.5 c 128,-1,44
 265 457 265 457 245 392.5 c 128,-1,45
 225 328 225 328 225 265 c 0,46,47
 225 70 225 70 394 70 c 0,48,49
 430 70 430 70 458.5 75 c 128,-1,50
 487 80 487 80 509 86.5 c 128,-1,51
 531 93 531 93 548 101 c 128,-1,52
 565 109 565 109 578 115 c 1,53,-1
 590 31 l 1,54,55
 578 24 578 24 558.5 16 c 128,-1,56
 539 8 539 8 513 1 c 128,-1,57
 487 -6 487 -6 455 -10.5 c 128,-1,58
 423 -15 423 -15 387 -15 c 2,59,-1
 382 -15 l 1,0,1
EndSplineSet
EndChar

StartChar: Eth
Encoding: 208 208 171
Width: 710
Flags: W
LayerCount: 2
Fore
SplineSet
442 700 m 0,0,1
 596 700 596 700 672 627.5 c 128,-1,2
 748 555 748 555 748 432 c 0,3,4
 748 346 748 346 721 266.5 c 128,-1,5
 694 187 694 187 637 126 c 128,-1,6
 580 65 580 65 491.5 29 c 128,-1,7
 403 -7 403 -7 280 -7 c 0,8,9
 238 -7 238 -7 189 -3 c 128,-1,10
 140 1 140 1 103 11 c 1,11,-1
 178 324 l 1,12,-1
 97 324 l 1,13,-1
 115 399 l 1,14,-1
 196 399 l 1,15,-1
 264 684 l 1,16,17
 306 694 306 694 353 697 c 128,-1,18
 400 700 400 700 442 700 c 0,0,1
434 618 m 0,19,20
 359 618 359 618 344 614 c 1,21,-1
 292 399 l 1,22,-1
 422 399 l 1,23,-1
 404 324 l 1,24,-1
 274 324 l 1,25,-1
 216 80 l 1,26,27
 224 78 224 78 243 76.5 c 128,-1,28
 262 75 262 75 305 75 c 0,29,30
 384 75 384 75 447.5 101.5 c 128,-1,31
 511 128 511 128 555 175.5 c 128,-1,32
 599 223 599 223 623 288.5 c 128,-1,33
 647 354 647 354 647 432 c 0,34,35
 647 520 647 520 596 569 c 128,-1,36
 545 618 545 618 434 618 c 0,19,20
EndSplineSet
EndChar

StartChar: multiply
Encoding: 215 215 178
Width: 564
Flags: W
LayerCount: 2
Fore
SplineSet
343 242 m 1,0,-1
 163 95 l 1,1,-1
 116 155 l 1,2,-1
 298 302 l 1,3,-1
 189 446 l 1,4,-1
 252 497 l 1,5,-1
 361 353 l 1,6,-1
 541 500 l 1,7,-1
 588 440 l 1,8,-1
 406 293 l 1,9,-1
 515 149 l 1,10,-1
 452 98 l 1,11,-1
 343 242 l 1,0,-1
EndSplineSet
EndChar

StartChar: Oslash
Encoding: 216 216 179
Width: 739
Flags: W
LayerCount: 2
Fore
SplineSet
525 709 m 0,0,1
 617 709 617 709 681 663 c 1,2,-1
 740 730 l 1,3,-1
 796 687 l 1,4,-1
 731 613 l 1,5,6
 753 581 753 581 765 540 c 128,-1,7
 777 499 777 499 777 445 c 0,8,9
 777 362 777 362 751.5 280 c 128,-1,10
 726 198 726 198 676 132.5 c 128,-1,11
 626 67 626 67 551 26 c 128,-1,12
 476 -15 476 -15 376 -15 c 0,13,14
 282 -15 282 -15 219 30 c 1,15,-1
 161 -36 l 1,16,-1
 104 7 l 1,17,-1
 169 81 l 1,18,19
 124 145 124 145 124 249 c 0,20,21
 124 331 124 331 149 413.5 c 128,-1,22
 174 496 174 496 224.5 561.5 c 128,-1,23
 275 627 275 627 350 668 c 128,-1,24
 425 709 425 709 525 709 c 0,0,1
386 69 m 0,25,26
 453 69 453 69 507 101.5 c 128,-1,27
 561 134 561 134 598.5 186 c 128,-1,28
 636 238 636 238 656 303 c 128,-1,29
 676 368 676 368 676 433 c 0,30,31
 676 462 676 462 673 487 c 128,-1,32
 670 512 670 512 662 534 c 1,33,-1
 281 101 l 1,34,35
 300 84 300 84 326.5 76.5 c 128,-1,36
 353 69 353 69 386 69 c 0,25,26
225 261 m 0,37,38
 225 232 225 232 228 206 c 128,-1,39
 231 180 231 180 239 160 c 1,40,-1
 619 593 l 1,41,42
 581 625 581 625 515 625 c 0,43,44
 447 625 447 625 393.5 592.5 c 128,-1,45
 340 560 340 560 302.5 508 c 128,-1,46
 265 456 265 456 245 391 c 128,-1,47
 225 326 225 326 225 261 c 0,37,38
EndSplineSet
EndChar

StartChar: Thorn
Encoding: 222 222 185
Width: 594
Flags: W
LayerCount: 2
Fore
SplineSet
344 693 m 1,0,-1
 317 579 l 1,1,2
 336 581 336 581 356.5 581.5 c 128,-1,3
 377 582 377 582 396 582 c 0,4,5
 517 582 517 582 577.5 537 c 128,-1,6
 638 492 638 492 638 404 c 0,7,8
 638 336 638 336 612.5 286.5 c 128,-1,9
 587 237 587 237 540 205 c 128,-1,10
 493 173 493 173 427 157.5 c 128,-1,11
 361 142 361 142 280 142 c 2,12,-1
 211 142 l 1,13,-1
 177 0 l 1,14,-1
 80 0 l 1,15,-1
 247 693 l 1,16,-1
 344 693 l 1,0,-1
382 500 m 0,17,18
 345 500 345 500 324 498.5 c 128,-1,19
 303 497 303 497 296 496 c 1,20,-1
 231 223 l 1,21,-1
 293 223 l 2,22,23
 335 223 335 223 379 230.5 c 128,-1,24
 423 238 423 238 458 257 c 128,-1,25
 493 276 493 276 515.5 309.5 c 128,-1,26
 538 343 538 343 538 396 c 0,27,28
 538 453 538 453 496 476.5 c 128,-1,29
 454 500 454 500 382 500 c 0,17,18
EndSplineSet
EndChar

StartChar: germandbls
Encoding: 223 223 186
Width: 600
Flags: W
LayerCount: 2
Fore
SplineSet
194 112 m 2,0,1
 182 61 182 61 173 21 c 128,-1,2
 164 -19 164 -19 151.5 -54 c 128,-1,3
 139 -89 139 -89 118.5 -121.5 c 128,-1,4
 98 -154 98 -154 63 -189 c 1,5,-1
 -19 -177 l 1,6,7
 11 -138 11 -138 28 -111 c 128,-1,8
 45 -84 45 -84 56.5 -56 c 128,-1,9
 68 -28 68 -28 76.5 8.5 c 128,-1,10
 85 45 85 45 99 103 c 2,11,-1
 207 554 l 2,12,13
 235 672 235 672 300 724 c 128,-1,14
 365 776 365 776 471 776 c 0,15,16
 511 776 511 776 541 765 c 128,-1,17
 571 754 571 754 591 735.5 c 128,-1,18
 611 717 611 717 621 692.5 c 128,-1,19
 631 668 631 668 631 641 c 0,20,21
 631 612 631 612 624.5 590.5 c 128,-1,22
 618 569 618 569 604.5 550 c 128,-1,23
 591 531 591 531 571.5 512.5 c 128,-1,24
 552 494 552 494 526 470 c 0,25,26
 509 455 509 455 496.5 444 c 128,-1,27
 484 433 484 433 476 423 c 128,-1,28
 468 413 468 413 464 401.5 c 128,-1,29
 460 390 460 390 460 375 c 0,30,31
 460 354 460 354 476.5 340 c 128,-1,32
 493 326 493 326 522 306 c 0,33,34
 541 293 541 293 557 280 c 128,-1,35
 573 267 573 267 585 251 c 128,-1,36
 597 235 597 235 604 215 c 128,-1,37
 611 195 611 195 611 168 c 0,38,39
 611 123 611 123 594.5 89 c 128,-1,40
 578 55 578 55 549.5 32.5 c 128,-1,41
 521 10 521 10 481 -1 c 128,-1,42
 441 -12 441 -12 395 -12 c 0,43,44
 338 -12 338 -12 299.5 1 c 128,-1,45
 261 14 261 14 251 22 c 1,46,-1
 286 97 l 1,47,48
 297 90 297 90 326.5 78 c 128,-1,49
 356 66 356 66 402 66 c 0,50,51
 453 66 453 66 485.5 90 c 128,-1,52
 518 114 518 114 518 162 c 0,53,54
 518 192 518 192 501.5 212.5 c 128,-1,55
 485 233 485 233 443 259 c 0,56,57
 417 275 417 275 402 288.5 c 128,-1,58
 387 302 387 302 379 315 c 128,-1,59
 371 328 371 328 369 341 c 128,-1,60
 367 354 367 354 367 369 c 0,61,62
 367 412 367 412 394.5 445 c 128,-1,63
 422 478 422 478 460 510 c 0,64,65
 478 525 478 525 492.5 538 c 128,-1,66
 507 551 507 551 517.5 564.5 c 128,-1,67
 528 578 528 578 533.5 594 c 128,-1,68
 539 610 539 610 539 630 c 0,69,70
 539 660 539 660 519 678 c 128,-1,71
 499 696 499 696 459 696 c 0,72,73
 334 696 334 696 300 552 c 2,74,-1
 194 112 l 2,0,1
EndSplineSet
EndChar

StartChar: ae
Encoding: 230 230 193
Width: 836
Flags: W
LayerCount: 2
Fore
SplineSet
786 23 m 1,0,1
 760 9 760 9 716.5 -2 c 128,-1,2
 673 -13 673 -13 625 -13 c 0,3,4
 598 -13 598 -13 571.5 -8 c 128,-1,5
 545 -3 545 -3 522 8.5 c 128,-1,6
 499 20 499 20 480.5 38.5 c 128,-1,7
 462 57 462 57 451 85 c 1,8,9
 416 39 416 39 362 13 c 128,-1,10
 308 -13 308 -13 245 -13 c 0,11,12
 216 -13 216 -13 189 -5.5 c 128,-1,13
 162 2 162 2 142 17.5 c 128,-1,14
 122 33 122 33 110 57 c 128,-1,15
 98 81 98 81 98 114 c 0,16,17
 98 184 98 184 132.5 223.5 c 128,-1,18
 167 263 167 263 219.5 282 c 128,-1,19
 272 301 272 301 334 306.5 c 128,-1,20
 396 312 396 312 452 315 c 1,21,22
 453 323 453 323 453.5 330.5 c 128,-1,23
 454 338 454 338 454 346 c 0,24,25
 454 400 454 400 424 424.5 c 128,-1,26
 394 449 394 449 328 449 c 0,27,28
 308 449 308 449 288 445 c 128,-1,29
 268 441 268 441 250 436 c 128,-1,30
 232 431 232 431 217.5 425 c 128,-1,31
 203 419 203 419 196 415 c 1,32,-1
 188 494 l 1,33,34
 211 506 211 506 254.5 518 c 128,-1,35
 298 530 298 530 346 530 c 0,36,37
 372 530 372 530 398 525 c 128,-1,38
 424 520 424 520 447.5 509 c 128,-1,39
 471 498 471 498 490.5 478.5 c 128,-1,40
 510 459 510 459 523 431 c 1,41,42
 542 456 542 456 566 474.5 c 128,-1,43
 590 493 590 493 617 505.5 c 128,-1,44
 644 518 644 518 672 524 c 128,-1,45
 700 530 700 530 727 530 c 0,46,47
 757 530 757 530 784.5 523 c 128,-1,48
 812 516 812 516 832 500.5 c 128,-1,49
 852 485 852 485 864 461 c 128,-1,50
 876 437 876 437 876 403 c 0,51,52
 876 356 876 356 860 323.5 c 128,-1,53
 844 291 844 291 817 269 c 128,-1,54
 790 247 790 247 754.5 235 c 128,-1,55
 719 223 719 223 679.5 216 c 128,-1,56
 640 209 640 209 599.5 206.5 c 128,-1,57
 559 204 559 204 522 202 c 1,58,59
 521 194 521 194 520.5 186.5 c 128,-1,60
 520 179 520 179 520 172 c 0,61,62
 520 115 520 115 550 91.5 c 128,-1,63
 580 68 580 68 646 68 c 0,64,65
 665 68 665 68 685.5 71.5 c 128,-1,66
 706 75 706 75 724.5 80.5 c 128,-1,67
 743 86 743 86 757.5 91.5 c 128,-1,68
 772 97 772 97 778 102 c 1,69,-1
 786 23 l 1,0,1
441 244 m 1,70,71
 370 242 370 242 322 234 c 128,-1,72
 274 226 274 226 244.5 211 c 128,-1,73
 215 196 215 196 202 175 c 128,-1,74
 189 154 189 154 189 127 c 0,75,76
 189 95 189 95 210 79.5 c 128,-1,77
 231 64 231 64 265 64 c 0,78,79
 331 64 331 64 377.5 110.5 c 128,-1,80
 424 157 424 157 441 244 c 1,70,71
533 273 m 1,81,82
 603 274 603 274 651.5 282.5 c 128,-1,83
 700 291 700 291 729.5 306 c 128,-1,84
 759 321 759 321 772 342 c 128,-1,85
 785 363 785 363 785 390 c 0,86,87
 785 422 785 422 764 437.5 c 128,-1,88
 743 453 743 453 709 453 c 0,89,90
 643 453 643 453 596.5 406.5 c 128,-1,91
 550 360 550 360 533 273 c 1,81,82
EndSplineSet
Substitution2: "'case' Case-Sensitive Forms lookup 19 subtable" AE
EndChar

StartChar: ccedilla
Encoding: 231 231 194
Width: 451
Flags: W
LayerCount: 2
Fore
SplineSet
100 186 m 0,0,1
 100 254 100 254 120.5 317 c 128,-1,2
 141 380 141 380 181 428 c 128,-1,3
 221 476 221 476 279 504.5 c 128,-1,4
 337 533 337 533 412 533 c 0,5,6
 445 533 445 533 475 528.5 c 128,-1,7
 505 524 505 524 532 511 c 1,8,-1
 497 433 l 1,9,10
 481 442 481 442 459.5 447 c 128,-1,11
 438 452 438 452 404 452 c 0,12,13
 355 452 355 452 316 430.5 c 128,-1,14
 277 409 277 409 249.5 373.5 c 128,-1,15
 222 338 222 338 207.5 291.5 c 128,-1,16
 193 245 193 245 193 195 c 0,17,18
 193 169 193 169 198.5 146 c 128,-1,19
 204 123 204 123 218 105.5 c 128,-1,20
 232 88 232 88 255.5 78 c 128,-1,21
 279 68 279 68 315 68 c 0,22,23
 333 68 333 68 353 71.5 c 128,-1,24
 373 75 373 75 390 80 c 128,-1,25
 407 85 407 85 420.5 90.5 c 128,-1,26
 434 96 434 96 440 101 c 1,27,-1
 448 22 l 1,28,29
 429 10 429 10 389 -1 c 128,-1,30
 349 -12 349 -12 300 -13 c 1,31,32
 295 -20 295 -20 291 -26 c 128,-1,33
 287 -32 287 -32 283 -38 c 1,34,35
 303 -49 303 -49 313 -62 c 128,-1,36
 323 -75 323 -75 323 -98 c 0,37,38
 323 -143 323 -143 292 -166 c 128,-1,39
 261 -189 261 -189 207 -189 c 0,40,41
 178 -189 178 -189 158.5 -184.5 c 128,-1,42
 139 -180 139 -180 126 -174 c 1,43,-1
 149 -119 l 1,44,45
 157 -123 157 -123 170 -126.5 c 128,-1,46
 183 -130 183 -130 202 -130 c 0,47,48
 219 -130 219 -130 230 -124.5 c 128,-1,49
 241 -119 241 -119 241 -105 c 0,50,51
 241 -93 241 -93 233 -87 c 128,-1,52
 225 -81 225 -81 206 -72 c 2,53,-1
 200 -69 l 1,54,55
 207 -56 207 -56 219 -38.5 c 128,-1,56
 231 -21 231 -21 241 -7 c 1,57,58
 172 9 172 9 136 60 c 128,-1,59
 100 111 100 111 100 186 c 0,0,1
EndSplineSet
Substitution2: "'case' Case-Sensitive Forms lookup 19 subtable" Ccedilla
EndChar

StartChar: eth
Encoding: 240 240 203
Width: 569
Flags: W
LayerCount: 2
Fore
SplineSet
589 427 m 0,0,1
 589 397 589 397 585 352.5 c 128,-1,2
 581 308 581 308 569 259.5 c 128,-1,3
 557 211 557 211 535.5 162 c 128,-1,4
 514 113 514 113 480 74.5 c 128,-1,5
 446 36 446 36 397.5 11.5 c 128,-1,6
 349 -13 349 -13 282 -13 c 0,7,8
 243 -13 243 -13 209.5 -0.5 c 128,-1,9
 176 12 176 12 152 35 c 128,-1,10
 128 58 128 58 114 92 c 128,-1,11
 100 126 100 126 100 168 c 0,12,13
 100 237 100 237 118.5 296 c 128,-1,14
 137 355 137 355 173 398 c 128,-1,15
 209 441 209 441 262.5 465.5 c 128,-1,16
 316 490 316 490 386 490 c 0,17,18
 422 490 422 490 450 480.5 c 128,-1,19
 478 471 478 471 496 460 c 1,20,21
 494 492 494 492 487 525.5 c 128,-1,22
 480 559 480 559 466 592 c 1,23,-1
 336 551 l 1,24,-1
 328 614 l 1,25,-1
 438 649 l 1,26,27
 422 675 422 675 404.5 692.5 c 128,-1,28
 387 710 387 710 367 729 c 1,29,-1
 437 776 l 1,30,31
 456 762 456 762 479 737 c 128,-1,32
 502 712 502 712 524 676 c 1,33,-1
 655 718 l 1,34,-1
 663 655 l 1,35,-1
 553 620 l 1,36,37
 569 581 569 581 579 533 c 128,-1,38
 589 485 589 485 589 427 c 0,0,1
295 67 m 0,39,40
 341 67 341 67 376 93.5 c 128,-1,41
 411 120 411 120 435.5 162.5 c 128,-1,42
 460 205 460 205 474.5 259.5 c 128,-1,43
 489 314 489 314 494 370 c 1,44,45
 468 392 468 392 438 400.5 c 128,-1,46
 408 409 408 409 379 409 c 0,47,48
 288 409 288 409 240.5 347.5 c 128,-1,49
 193 286 193 286 193 177 c 0,50,51
 193 123 193 123 219.5 95 c 128,-1,52
 246 67 246 67 295 67 c 0,39,40
EndSplineSet
Substitution2: "'case' Case-Sensitive Forms lookup 19 subtable" Eth
EndChar

StartChar: divide
Encoding: 247 247 210
Width: 564
Flags: W
LayerCount: 2
Fore
SplineSet
368 120 m 0,0,1
 368 105 368 105 362.5 91.5 c 128,-1,2
 357 78 357 78 347 67 c 128,-1,3
 337 56 337 56 323 49.5 c 128,-1,4
 309 43 309 43 293 43 c 0,5,6
 271 43 271 43 257.5 56 c 128,-1,7
 244 69 244 69 244 90 c 0,8,9
 244 105 244 105 249.5 118.5 c 128,-1,10
 255 132 255 132 265 143 c 128,-1,11
 275 154 275 154 288.5 160.5 c 128,-1,12
 302 167 302 167 319 167 c 0,13,14
 341 167 341 167 354.5 154 c 128,-1,15
 368 141 368 141 368 120 c 0,0,1
460 504 m 0,16,17
 460 489 460 489 454.5 475.5 c 128,-1,18
 449 462 449 462 439 451 c 128,-1,19
 429 440 429 440 415 433.5 c 128,-1,20
 401 427 401 427 385 427 c 0,21,22
 363 427 363 427 349.5 440 c 128,-1,23
 336 453 336 453 336 474 c 0,24,25
 336 489 336 489 341.5 502.5 c 128,-1,26
 347 516 347 516 357 527 c 128,-1,27
 367 538 367 538 380.5 544.5 c 128,-1,28
 394 551 394 551 411 551 c 0,29,30
 433 551 433 551 446.5 538 c 128,-1,31
 460 525 460 525 460 504 c 0,16,17
584 337 m 1,32,-1
 565 258 l 1,33,-1
 116 258 l 1,34,-1
 135 337 l 1,35,-1
 584 337 l 1,32,-1
EndSplineSet
EndChar

StartChar: oslash
Encoding: 248 248 211
Width: 555
Flags: W
LayerCount: 2
Fore
SplineSet
575 351 m 0,0,1
 575 293 575 293 558.5 229 c 128,-1,2
 542 165 542 165 506 111 c 128,-1,3
 470 57 470 57 413 22 c 128,-1,4
 356 -13 356 -13 275 -13 c 0,5,6
 209 -13 209 -13 166 18 c 1,7,-1
 119 -36 l 1,8,-1
 69 1 l 1,9,-1
 124 64 l 1,10,11
 100 106 100 106 100 169 c 0,12,13
 100 227 100 227 116.5 291 c 128,-1,14
 133 355 133 355 169.5 409 c 128,-1,15
 206 463 206 463 263 498 c 128,-1,16
 320 533 320 533 401 533 c 0,17,18
 466 533 466 533 509 502 c 1,19,-1
 555 554 l 1,20,-1
 606 517 l 1,21,-1
 551 454 l 1,22,23
 562 433 562 433 568.5 407.5 c 128,-1,24
 575 382 575 382 575 351 c 0,0,1
191 176 m 0,25,26
 191 167 191 167 191 159 c 128,-1,27
 191 151 191 151 193 143 c 1,28,-1
 450 435 l 1,29,30
 424 455 424 455 384 455 c 0,31,32
 339 455 339 455 303 428.5 c 128,-1,33
 267 402 267 402 242 361.5 c 128,-1,34
 217 321 217 321 204 271.5 c 128,-1,35
 191 222 191 222 191 176 c 0,25,26
291 65 m 0,36,37
 336 65 336 65 372 91.5 c 128,-1,38
 408 118 408 118 433 158.5 c 128,-1,39
 458 199 458 199 471 248.5 c 128,-1,40
 484 298 484 298 484 344 c 0,41,42
 484 352 484 352 484 360 c 128,-1,43
 484 368 484 368 482 376 c 1,44,-1
 225 84 l 1,45,46
 247 65 247 65 291 65 c 0,36,37
EndSplineSet
Substitution2: "'case' Case-Sensitive Forms lookup 19 subtable" Oslash
EndChar

StartChar: thorn
Encoding: 254 254 217
Width: 546
Flags: W
LayerCount: 2
Fore
SplineSet
379 533 m 0,0,1
 428 533 428 533 463.5 519 c 128,-1,2
 499 505 499 505 522 480.5 c 128,-1,3
 545 456 545 456 556.5 422.5 c 128,-1,4
 568 389 568 389 568 349 c 0,5,6
 568 280 568 280 547 215.5 c 128,-1,7
 526 151 526 151 482.5 101 c 128,-1,8
 439 51 439 51 372.5 21 c 128,-1,9
 306 -9 306 -9 215 -9 c 0,10,11
 204 -9 204 -9 191 -8 c 128,-1,12
 178 -7 178 -7 168 -5 c 1,13,-1
 125 -185 l 1,14,-1
 32 -185 l 1,15,-1
 259 760 l 1,16,-1
 356 776 l 1,17,-1
 295 521 l 1,18,19
 344 533 344 533 379 533 c 0,0,1
356 454 m 0,20,21
 331 454 331 454 310 449.5 c 128,-1,22
 289 445 289 445 275 441 c 1,23,-1
 187 73 l 1,24,25
 197 71 197 71 208.5 70.5 c 128,-1,26
 220 70 220 70 231 70 c 0,27,28
 288 70 288 70 333 92 c 128,-1,29
 378 114 378 114 409.5 151.5 c 128,-1,30
 441 189 441 189 458 237.5 c 128,-1,31
 475 286 475 286 475 339 c 0,32,33
 475 361 475 361 470 382 c 128,-1,34
 465 403 465 403 451.5 419 c 128,-1,35
 438 435 438 435 415 444.5 c 128,-1,36
 392 454 392 454 356 454 c 0,20,21
EndSplineSet
Substitution2: "'case' Case-Sensitive Forms lookup 19 subtable" Thorn
EndChar

StartChar: Aogonek
Encoding: 260 260 223
Width: 636
Flags: W
LayerCount: 2
Fore
SplineSet
632 4 m 1,0,1
 620 -4 620 -4 605.5 -14.5 c 128,-1,2
 591 -25 591 -25 574 -39 c 0,3,4
 568 -44 568 -44 560 -50.5 c 128,-1,5
 552 -57 552 -57 545 -65 c 128,-1,6
 538 -73 538 -73 533 -82 c 128,-1,7
 528 -91 528 -91 528 -101 c 256,8,9
 528 -111 528 -111 536.5 -117 c 128,-1,10
 545 -123 545 -123 565 -123 c 0,11,12
 575 -123 575 -123 585.5 -121 c 128,-1,13
 596 -119 596 -119 605 -116 c 1,14,-1
 597 -176 l 1,15,16
 573 -187 573 -187 539 -187 c 0,17,18
 484 -187 484 -187 462 -169.5 c 128,-1,19
 440 -152 440 -152 440 -124 c 0,20,21
 440 -97 440 -97 458 -72 c 128,-1,22
 476 -47 476 -47 500 -27 c 0,23,24
 510 -19 510 -19 518.5 -12.5 c 128,-1,25
 527 -6 527 -6 534 -1 c 1,26,27
 529 44 529 44 525 88 c 128,-1,28
 521 132 521 132 516 178 c 1,29,-1
 214 178 l 1,30,-1
 116 0 l 1,31,-1
 10 0 l 1,32,33
 122 202 122 202 228.5 372 c 128,-1,34
 335 542 335 542 439 693 c 1,35,-1
 534 693 l 1,36,37
 549 618 549 618 561.5 541.5 c 128,-1,38
 574 465 574 465 586 382 c 128,-1,39
 598 299 598 299 609 206 c 128,-1,40
 620 113 620 113 632 4 c 1,0,1
464 582 m 1,41,42
 429 531 429 531 377 450.5 c 128,-1,43
 325 370 325 370 259 256 c 1,44,-1
 507 256 l 1,45,46
 499 337 499 337 488.5 417 c 128,-1,47
 478 497 478 497 464 582 c 1,41,42
EndSplineSet
EndChar

StartChar: aogonek
Encoding: 261 261 224
Width: 544
Flags: W
LayerCount: 2
Fore
SplineSet
438 -187 m 0,0,1
 383 -187 383 -187 361 -169.5 c 128,-1,2
 339 -152 339 -152 339 -124 c 0,3,4
 339 -97 339 -97 357 -72 c 128,-1,5
 375 -47 375 -47 399 -27 c 0,6,7
 407 -20 407 -20 416 -13.5 c 128,-1,8
 425 -7 425 -7 432 -2 c 1,9,10
 427 9 427 9 422.5 21.5 c 128,-1,11
 418 34 418 34 415 48 c 1,12,13
 404 38 404 38 389 27 c 128,-1,14
 374 16 374 16 355 7 c 128,-1,15
 336 -2 336 -2 313.5 -7.5 c 128,-1,16
 291 -13 291 -13 264 -13 c 0,17,18
 220 -13 220 -13 188.5 1 c 128,-1,19
 157 15 157 15 137 40 c 128,-1,20
 117 65 117 65 107.5 99 c 128,-1,21
 98 133 98 133 98 174 c 0,22,23
 98 241 98 241 120.5 305 c 128,-1,24
 143 369 143 369 188 419 c 128,-1,25
 233 469 233 469 301 500 c 128,-1,26
 369 531 369 531 460 531 c 0,27,28
 487 531 487 531 523 525 c 128,-1,29
 559 519 559 519 585 505 c 1,30,-1
 508 191 l 2,31,32
 503 168 503 168 499.5 147 c 128,-1,33
 496 126 496 126 496 103 c 256,34,35
 496 80 496 80 500.5 56 c 128,-1,36
 505 32 505 32 518 0 c 1,37,38
 506 -9 506 -9 496 -16.5 c 128,-1,39
 486 -24 486 -24 474 -35 c 0,40,41
 457 -49 457 -49 442 -65.5 c 128,-1,42
 427 -82 427 -82 427 -101 c 0,43,44
 427 -111 427 -111 435.5 -117 c 128,-1,45
 444 -123 444 -123 464 -123 c 0,46,47
 474 -123 474 -123 484.5 -121 c 128,-1,48
 495 -119 495 -119 504 -116 c 1,49,-1
 496 -176 l 1,50,51
 472 -187 472 -187 438 -187 c 0,0,1
283 66 m 0,52,53
 325 66 325 66 355 84 c 128,-1,54
 385 102 385 102 407 126 c 1,55,56
 408 143 408 143 410.5 161.5 c 128,-1,57
 413 180 413 180 417 199 c 2,58,-1
 477 447 l 1,59,60
 472 449 472 449 460.5 450 c 128,-1,61
 449 451 449 451 440 451 c 0,62,63
 383 451 383 451 337 429 c 128,-1,64
 291 407 291 407 258.5 370.5 c 128,-1,65
 226 334 226 334 208.5 285.5 c 128,-1,66
 191 237 191 237 191 184 c 0,67,68
 191 163 191 163 195 141.5 c 128,-1,69
 199 120 199 120 209.5 103.5 c 128,-1,70
 220 87 220 87 237.5 76.5 c 128,-1,71
 255 66 255 66 283 66 c 0,52,53
EndSplineSet
Substitution2: "'case' Case-Sensitive Forms lookup 19 subtable" Aogonek
EndChar

StartChar: dcroat
Encoding: 273 273 236
Width: 551
Flags: W
LayerCount: 2
Fore
SplineSet
499 103 m 256,0,1
 499 80 499 80 503 56.5 c 128,-1,2
 507 33 507 33 517 6 c 1,3,-1
 435 -6 l 1,4,5
 425 13 425 13 417 46 c 1,6,7
 395 26 395 26 358.5 6.5 c 128,-1,8
 322 -13 322 -13 268 -13 c 0,9,10
 224 -13 224 -13 192 0.5 c 128,-1,11
 160 14 160 14 139 39 c 128,-1,12
 118 64 118 64 108 98.5 c 128,-1,13
 98 133 98 133 98 174 c 0,14,15
 98 241 98 241 120.5 304.5 c 128,-1,16
 143 368 143 368 187.5 417.5 c 128,-1,17
 232 467 232 467 298.5 497 c 128,-1,18
 365 527 365 527 454 527 c 0,19,20
 465 527 465 527 476 526 c 128,-1,21
 487 525 487 525 499 523 c 1,22,-1
 521 614 l 1,23,-1
 364 614 l 1,24,-1
 380 683 l 1,25,-1
 537 683 l 1,26,-1
 556 760 l 1,27,-1
 653 776 l 1,28,-1
 630 683 l 1,29,-1
 704 683 l 1,30,-1
 688 614 l 1,31,-1
 614 614 l 1,32,-1
 512 191 l 2,33,34
 507 168 507 168 503 147 c 128,-1,35
 499 126 499 126 499 103 c 256,0,1
287 66 m 0,36,37
 329 66 329 66 358.5 83.5 c 128,-1,38
 388 101 388 101 410 124 c 1,39,40
 411 140 411 140 413.5 158.5 c 128,-1,41
 416 177 416 177 421 199 c 2,42,-1
 480 446 l 1,43,44
 471 448 471 448 460 448.5 c 128,-1,45
 449 449 449 449 439 449 c 0,46,47
 382 449 382 449 336.5 427.5 c 128,-1,48
 291 406 291 406 258.5 369.5 c 128,-1,49
 226 333 226 333 208.5 285 c 128,-1,50
 191 237 191 237 191 184 c 0,51,52
 191 161 191 161 196 140 c 128,-1,53
 201 119 201 119 212 102.5 c 128,-1,54
 223 86 223 86 241.5 76 c 128,-1,55
 260 66 260 66 287 66 c 0,36,37
EndSplineSet
Substitution2: "'case' Case-Sensitive Forms lookup 19 subtable" Dcroat
EndChar

StartChar: Eogonek
Encoding: 280 280 243
Width: 557
Flags: W
LayerCount: 2
Fore
SplineSet
419 -187 m 0,0,1
 364 -187 364 -187 342 -169.5 c 128,-1,2
 320 -152 320 -152 320 -124 c 0,3,4
 320 -97 320 -97 338 -72 c 128,-1,5
 356 -47 356 -47 380 -27 c 0,6,7
 390 -19 390 -19 399.5 -12 c 128,-1,8
 409 -5 409 -5 416 0 c 1,9,-1
 81 0 l 1,10,-1
 247 693 l 1,11,-1
 656 693 l 1,12,-1
 637 612 l 1,13,-1
 324 612 l 1,14,-1
 274 403 l 1,15,-1
 552 403 l 1,16,-1
 533 324 l 1,17,-1
 256 324 l 1,18,-1
 197 81 l 1,19,-1
 533 81 l 1,20,-1
 515 5 l 1,21,22
 502 -3 502 -3 486.5 -13.5 c 128,-1,23
 471 -24 471 -24 454 -39 c 0,24,25
 448 -44 448 -44 440 -50.5 c 128,-1,26
 432 -57 432 -57 425 -65 c 128,-1,27
 418 -73 418 -73 413 -82 c 128,-1,28
 408 -91 408 -91 408 -101 c 256,29,30
 408 -111 408 -111 416.5 -117 c 128,-1,31
 425 -123 425 -123 445 -123 c 0,32,33
 455 -123 455 -123 465.5 -121 c 128,-1,34
 476 -119 476 -119 485 -116 c 1,35,-1
 477 -176 l 1,36,37
 453 -187 453 -187 419 -187 c 0,0,1
EndSplineSet
EndChar

StartChar: eogonek
Encoding: 281 281 244
Width: 518
Flags: W
LayerCount: 2
Fore
SplineSet
100 173 m 0,0,1
 100 243 100 243 121 308 c 128,-1,2
 142 373 142 373 181 423 c 128,-1,3
 220 473 220 473 276 502.5 c 128,-1,4
 332 532 332 532 403 532 c 0,5,6
 444 532 444 532 473.5 521.5 c 128,-1,7
 503 511 503 511 521.5 493 c 128,-1,8
 540 475 540 475 549 451.5 c 128,-1,9
 558 428 558 428 558 403 c 0,10,11
 558 356 558 356 541 323.5 c 128,-1,12
 524 291 524 291 496 269 c 128,-1,13
 468 247 468 247 430.5 235 c 128,-1,14
 393 223 393 223 352.5 216 c 128,-1,15
 312 209 312 209 270.5 206.5 c 128,-1,16
 229 204 229 204 192 202 c 1,17,18
 191 194 191 194 191 189 c 128,-1,19
 191 184 191 184 191 181 c 0,20,21
 191 158 191 158 196.5 137.5 c 128,-1,22
 202 117 202 117 217 101.5 c 128,-1,23
 232 86 232 86 258.5 77 c 128,-1,24
 285 68 285 68 328 68 c 0,25,26
 347 68 347 68 367.5 71.5 c 128,-1,27
 388 75 388 75 406.5 80.5 c 128,-1,28
 425 86 425 86 439.5 91.5 c 128,-1,29
 454 97 454 97 460 102 c 1,30,-1
 466 22 l 1,31,32
 449 13 449 13 431 -0.5 c 128,-1,33
 413 -14 413 -14 387 -36 c 0,34,35
 382 -41 382 -41 374 -48 c 128,-1,36
 366 -55 366 -55 358.5 -63.5 c 128,-1,37
 351 -72 351 -72 345.5 -81.5 c 128,-1,38
 340 -91 340 -91 340 -101 c 256,39,40
 340 -111 340 -111 348.5 -117 c 128,-1,41
 357 -123 357 -123 377 -123 c 0,42,43
 387 -123 387 -123 397.5 -121 c 128,-1,44
 408 -119 408 -119 417 -116 c 1,45,-1
 409 -176 l 1,46,47
 385 -187 385 -187 351 -187 c 0,48,49
 296 -187 296 -187 274 -169.5 c 128,-1,50
 252 -152 252 -152 252 -124 c 0,51,52
 252 -97 252 -97 270 -72 c 128,-1,53
 288 -47 288 -47 312 -27 c 0,54,55
 317 -23 317 -23 325 -17.5 c 128,-1,56
 333 -12 333 -12 340 -8 c 1,57,58
 333 -10 333 -10 319.5 -10.5 c 128,-1,59
 306 -11 306 -11 297 -11 c 0,60,61
 246 -11 246 -11 209 2.5 c 128,-1,62
 172 16 172 16 148 40.5 c 128,-1,63
 124 65 124 65 112 98.5 c 128,-1,64
 100 132 100 132 100 173 c 0,0,1
204 273 m 1,65,66
 262 275 262 275 310 280.5 c 128,-1,67
 358 286 358 286 393 299.5 c 128,-1,68
 428 313 428 313 447.5 336 c 128,-1,69
 467 359 467 359 467 396 c 0,70,71
 467 405 467 405 463.5 415 c 128,-1,72
 460 425 460 425 451.5 433.5 c 128,-1,73
 443 442 443 442 428 447.5 c 128,-1,74
 413 453 413 453 391 453 c 0,75,76
 356 453 356 453 325.5 438 c 128,-1,77
 295 423 295 423 271 398.5 c 128,-1,78
 247 374 247 374 230 341.5 c 128,-1,79
 213 309 213 309 204 273 c 1,65,66
EndSplineSet
Substitution2: "'case' Case-Sensitive Forms lookup 19 subtable" Eogonek
EndChar

StartChar: Hbar
Encoding: 294 294 257
Width: 709
Flags: W
LayerCount: 2
Fore
SplineSet
752 594 m 1,0,-1
 827 594 l 1,1,-1
 810 523 l 1,2,-1
 735 523 l 1,3,-1
 610 0 l 1,4,-1
 513 0 l 1,5,-1
 590 322 l 1,6,-1
 269 322 l 1,7,-1
 192 0 l 1,8,-1
 95 0 l 1,9,-1
 220 523 l 1,10,-1
 145 523 l 1,11,-1
 162 594 l 1,12,-1
 237 594 l 1,13,-1
 261 693 l 1,14,-1
 358 693 l 1,15,-1
 334 594 l 1,16,-1
 655 594 l 1,17,-1
 679 693 l 1,18,-1
 776 693 l 1,19,-1
 752 594 l 1,0,-1
609 403 m 1,20,-1
 638 523 l 1,21,-1
 317 523 l 1,22,-1
 288 403 l 1,23,-1
 609 403 l 1,20,-1
EndSplineSet
EndChar

StartChar: hbar
Encoding: 295 295 258
Width: 552
Flags: W
LayerCount: 2
Fore
SplineSet
76 0 m 1,0,-1
 224 614 l 1,1,-1
 150 614 l 1,2,-1
 166 683 l 1,3,-1
 240 683 l 1,4,-1
 259 760 l 1,5,-1
 356 776 l 1,6,-1
 333 683 l 1,7,-1
 490 683 l 1,8,-1
 474 614 l 1,9,-1
 316 614 l 1,10,-1
 291 509 l 1,11,12
 314 517 314 517 339.5 522 c 128,-1,13
 365 527 365 527 391 527 c 0,14,15
 436 527 436 527 468.5 514.5 c 128,-1,16
 501 502 501 502 521 480.5 c 128,-1,17
 541 459 541 459 550.5 428.5 c 128,-1,18
 560 398 560 398 560 362 c 0,19,20
 560 318 560 318 546 262 c 2,21,-1
 483 0 l 1,22,-1
 390 0 l 1,23,-1
 448 242 l 2,24,25
 455 270 455 270 461.5 299 c 128,-1,26
 468 328 468 328 468 354 c 0,27,28
 468 394 468 394 446 420.5 c 128,-1,29
 424 447 424 447 364 447 c 0,30,31
 340 447 340 447 314.5 442.5 c 128,-1,32
 289 438 289 438 272 430 c 1,33,-1
 169 0 l 1,34,-1
 76 0 l 1,0,-1
EndSplineSet
Substitution2: "'case' Case-Sensitive Forms lookup 19 subtable" Hbar
EndChar

StartChar: Iogonek
Encoding: 302 302 265
Width: 263
Flags: W
LayerCount: 2
Fore
SplineSet
247 693 m 1,0,-1
 344 693 l 1,1,-1
 178 0 l 1,2,3
 167 -6 167 -6 153.5 -14.5 c 128,-1,4
 140 -23 140 -23 124 -37 c 0,5,6
 118 -42 118 -42 109.5 -49 c 128,-1,7
 101 -56 101 -56 93.5 -64 c 128,-1,8
 86 -72 86 -72 81 -81.5 c 128,-1,9
 76 -91 76 -91 76 -101 c 256,10,11
 76 -111 76 -111 84.5 -117 c 128,-1,12
 93 -123 93 -123 113 -123 c 0,13,14
 123 -123 123 -123 133.5 -121 c 128,-1,15
 144 -119 144 -119 153 -116 c 1,16,-1
 145 -176 l 1,17,18
 121 -187 121 -187 87 -187 c 0,19,20
 32 -187 32 -187 10 -169.5 c 128,-1,21
 -12 -152 -12 -152 -12 -124 c 0,22,23
 -12 -97 -12 -97 6 -72 c 128,-1,24
 24 -47 24 -47 48 -27 c 0,25,26
 57 -19 57 -19 65 -13 c 128,-1,27
 73 -7 73 -7 81 -1 c 1,28,-1
 247 693 l 1,0,-1
EndSplineSet
EndChar

StartChar: iogonek
Encoding: 303 303 266
Width: 249
Flags: W
LayerCount: 2
Fore
SplineSet
80 -187 m 0,0,1
 25 -187 25 -187 3 -169.5 c 128,-1,2
 -19 -152 -19 -152 -19 -124 c 0,3,4
 -19 -97 -19 -97 -1 -72 c 128,-1,5
 17 -47 17 -47 41 -27 c 0,6,7
 49 -20 49 -20 58.5 -12.5 c 128,-1,8
 68 -5 68 -5 76 0 c 1,9,-1
 201 520 l 1,10,-1
 294 520 l 1,11,-1
 169 0 l 1,12,13
 158 -8 158 -8 144 -17 c 128,-1,14
 130 -26 130 -26 115 -39 c 0,15,16
 109 -44 109 -44 101 -50.5 c 128,-1,17
 93 -57 93 -57 86 -65 c 128,-1,18
 79 -73 79 -73 74 -82 c 128,-1,19
 69 -91 69 -91 69 -101 c 256,20,21
 69 -111 69 -111 77.5 -117 c 128,-1,22
 86 -123 86 -123 106 -123 c 0,23,24
 116 -123 116 -123 126.5 -121 c 128,-1,25
 137 -119 137 -119 146 -116 c 1,26,-1
 138 -176 l 1,27,28
 114 -187 114 -187 80 -187 c 0,0,1
277 614 m 0,29,30
 254 614 254 614 238.5 628 c 128,-1,31
 223 642 223 642 223 667 c 0,32,33
 223 699 223 699 243 717.5 c 128,-1,34
 263 736 263 736 288 736 c 0,35,36
 311 736 311 736 327 721.5 c 128,-1,37
 343 707 343 707 343 681 c 0,38,39
 343 651 343 651 322 632.5 c 128,-1,40
 301 614 301 614 277 614 c 0,29,30
EndSplineSet
Substitution2: "'case' Case-Sensitive Forms lookup 19 subtable" Iogonek
EndChar

StartChar: dotlessi
Encoding: 305 305 268
Width: 249
Flags: W
LayerCount: 2
Fore
SplineSet
169 0 m 1,0,-1
 76 0 l 1,1,-1
 201 520 l 1,2,-1
 294 520 l 1,3,-1
 169 0 l 1,0,-1
EndSplineSet
EndChar

StartChar: Lslash
Encoding: 321 321 286
Width: 527
Flags: W
LayerCount: 2
Fore
SplineSet
524 81 m 1,0,-1
 505 0 l 1,1,-1
 101 0 l 1,2,-1
 169 283 l 1,3,-1
 92 247 l 1,4,-1
 76 316 l 1,5,-1
 189 370 l 1,6,-1
 267 693 l 1,7,-1
 364 693 l 1,8,-1
 296 412 l 1,9,-1
 422 472 l 1,10,-1
 438 403 l 1,11,-1
 276 326 l 1,12,-1
 217 81 l 1,13,-1
 524 81 l 1,0,-1
EndSplineSet
EndChar

StartChar: lslash
Encoding: 322 322 287
Width: 318
Flags: W
LayerCount: 2
Fore
SplineSet
302 468 m 1,0,-1
 379 504 l 1,1,-1
 395 435 l 1,2,-1
 281 381 l 1,3,-1
 245 229 l 2,4,5
 240 207 240 207 235 186 c 128,-1,6
 230 165 230 165 230 146 c 0,7,8
 230 112 230 112 246.5 92 c 128,-1,9
 263 72 263 72 308 67 c 1,10,-1
 287 -9 l 1,11,12
 246 -8 246 -8 217.5 3.5 c 128,-1,13
 189 15 189 15 171.5 34 c 128,-1,14
 154 53 154 53 146 79 c 128,-1,15
 138 105 138 105 138 136 c 0,16,17
 138 159 138 159 142 184 c 128,-1,18
 146 209 146 209 153 236 c 2,19,-1
 179 341 l 1,20,-1
 109 308 l 1,21,-1
 93 377 l 1,22,-1
 199 427 l 1,23,-1
 279 760 l 1,24,-1
 376 776 l 1,25,-1
 302 468 l 1,0,-1
EndSplineSet
Substitution2: "'case' Case-Sensitive Forms lookup 19 subtable" Lslash
EndChar

StartChar: Eng
Encoding: 330 330 296
Width: 698
Flags: W
LayerCount: 2
Fore
SplineSet
613 0 m 2,0,1
 602 -46 602 -46 589.5 -81 c 128,-1,2
 577 -116 577 -116 557 -139.5 c 128,-1,3
 537 -163 537 -163 505.5 -175 c 128,-1,4
 474 -187 474 -187 425 -187 c 0,5,6
 411 -187 411 -187 391 -183 c 128,-1,7
 371 -179 371 -179 363 -174 c 1,8,-1
 387 -104 l 1,9,10
 393 -107 393 -107 404 -109.5 c 128,-1,11
 415 -112 415 -112 429 -112 c 0,12,13
 469 -112 469 -112 486 -87 c 128,-1,14
 503 -62 503 -62 514 -17 c 2,15,-1
 523 21 l 1,16,17
 505 80 505 80 480 151.5 c 128,-1,18
 455 223 455 223 426.5 295.5 c 128,-1,19
 398 368 398 368 367.5 435.5 c 128,-1,20
 337 503 337 503 309 554 c 1,21,-1
 176 0 l 1,22,-1
 81 0 l 1,23,-1
 247 693 l 1,24,-1
 330 693 l 1,25,26
 362 639 362 639 395.5 570.5 c 128,-1,27
 429 502 429 502 459.5 430 c 128,-1,28
 490 358 490 358 516 289 c 128,-1,29
 542 220 542 220 559 165 c 1,30,-1
 683 693 l 1,31,-1
 778 693 l 1,32,-1
 613 0 l 2,0,1
EndSplineSet
EndChar

StartChar: eng
Encoding: 331 331 297
Width: 551
Flags: W
LayerCount: 2
Fore
SplineSet
448 246 m 2,0,1
 455 274 455 274 461.5 303 c 128,-1,2
 468 332 468 332 468 358 c 0,3,4
 468 398 468 398 446 424.5 c 128,-1,5
 424 451 424 451 364 451 c 0,6,7
 339 451 339 451 315 448 c 128,-1,8
 291 445 291 445 275 440 c 1,9,-1
 169 0 l 1,10,-1
 76 0 l 1,11,-1
 196 500 l 1,12,13
 242 514 242 514 295.5 522.5 c 128,-1,14
 349 531 349 531 391 531 c 0,15,16
 436 531 436 531 468.5 518.5 c 128,-1,17
 501 506 501 506 521 484.5 c 128,-1,18
 541 463 541 463 550.5 432.5 c 128,-1,19
 560 402 560 402 560 366 c 0,20,21
 560 343 560 343 556 317.5 c 128,-1,22
 552 292 552 292 546 266 c 2,23,-1
 482 0 l 2,24,25
 471 -46 471 -46 459 -81 c 128,-1,26
 447 -116 447 -116 426.5 -139.5 c 128,-1,27
 406 -163 406 -163 375 -175 c 128,-1,28
 344 -187 344 -187 295 -187 c 0,29,30
 281 -187 281 -187 261 -183 c 128,-1,31
 241 -179 241 -179 233 -174 c 1,32,-1
 257 -104 l 1,33,34
 263 -107 263 -107 274 -109.5 c 128,-1,35
 285 -112 285 -112 299 -112 c 0,36,37
 338 -112 338 -112 356 -87 c 128,-1,38
 374 -62 374 -62 385 -17 c 2,39,-1
 448 246 l 2,0,1
EndSplineSet
Substitution2: "'case' Case-Sensitive Forms lookup 19 subtable" Eng
EndChar

StartChar: Scedilla
Encoding: 350 350 314
Width: 517
Flags: W
LayerCount: 2
Fore
SplineSet
256 -38 m 1,0,1
 276 -49 276 -49 286 -62 c 128,-1,2
 296 -75 296 -75 296 -98 c 0,3,4
 296 -143 296 -143 265 -166 c 128,-1,5
 234 -189 234 -189 180 -189 c 0,6,7
 151 -189 151 -189 131.5 -184.5 c 128,-1,8
 112 -180 112 -180 99 -174 c 1,9,-1
 122 -119 l 1,10,11
 130 -123 130 -123 143 -126.5 c 128,-1,12
 156 -130 156 -130 175 -130 c 0,13,14
 192 -130 192 -130 203 -124.5 c 128,-1,15
 214 -119 214 -119 214 -105 c 0,16,17
 214 -93 214 -93 206 -87 c 128,-1,18
 198 -81 198 -81 179 -72 c 2,19,-1
 173 -69 l 1,20,21
 186 -44 186 -44 210 -14 c 1,22,23
 140 -11 140 -11 97 6 c 128,-1,24
 54 23 54 23 37 36 c 1,25,-1
 82 115 l 1,26,27
 101 102 101 102 142 85.5 c 128,-1,28
 183 69 183 69 246 69 c 0,29,30
 277 69 277 69 307.5 75.5 c 128,-1,31
 338 82 338 82 362 97 c 128,-1,32
 386 112 386 112 401 136.5 c 128,-1,33
 416 161 416 161 416 197 c 0,34,35
 416 222 416 222 406.5 240.5 c 128,-1,36
 397 259 397 259 380.5 273.5 c 128,-1,37
 364 288 364 288 341.5 300.5 c 128,-1,38
 319 313 319 313 292 327 c 0,39,40
 269 339 269 339 245.5 353 c 128,-1,41
 222 367 222 367 203.5 387.5 c 128,-1,42
 185 408 185 408 173.5 436 c 128,-1,43
 162 464 162 464 162 503 c 0,44,45
 162 548 162 548 179.5 586 c 128,-1,46
 197 624 197 624 231 651.5 c 128,-1,47
 265 679 265 679 314.5 694 c 128,-1,48
 364 709 364 709 428 709 c 0,49,50
 458 709 458 709 485 704.5 c 128,-1,51
 512 700 512 700 534.5 693 c 128,-1,52
 557 686 557 686 574 678.5 c 128,-1,53
 591 671 591 671 599 665 c 1,54,-1
 554 589 l 1,55,56
 537 603 537 603 499.5 614.5 c 128,-1,57
 462 626 462 626 411 626 c 0,58,59
 379 626 379 626 351.5 619.5 c 128,-1,60
 324 613 324 613 304 599 c 128,-1,61
 284 585 284 585 272 563.5 c 128,-1,62
 260 542 260 542 260 512 c 0,63,64
 260 486 260 486 268 468.5 c 128,-1,65
 276 451 276 451 290 437.5 c 128,-1,66
 304 424 304 424 324.5 413 c 128,-1,67
 345 402 345 402 369 390 c 0,68,69
 399 375 399 375 425.5 359.5 c 128,-1,70
 452 344 452 344 472 323 c 128,-1,71
 492 302 492 302 503.5 274 c 128,-1,72
 515 246 515 246 515 206 c 0,73,74
 515 156 515 156 497 117 c 128,-1,75
 479 78 479 78 446.5 50.5 c 128,-1,76
 414 23 414 23 369.5 7 c 128,-1,77
 325 -9 325 -9 273 -13 c 1,78,79
 268 -20 268 -20 264 -26 c 128,-1,80
 260 -32 260 -32 256 -38 c 1,0,1
EndSplineSet
EndChar

StartChar: scedilla
Encoding: 351 351 315
Width: 412
Flags: W
LayerCount: 2
Fore
SplineSet
215 -38 m 1,0,1
 235 -49 235 -49 245 -62 c 128,-1,2
 255 -75 255 -75 255 -98 c 0,3,4
 255 -143 255 -143 224 -166 c 128,-1,5
 193 -189 193 -189 139 -189 c 0,6,7
 110 -189 110 -189 90.5 -184.5 c 128,-1,8
 71 -180 71 -180 58 -174 c 1,9,-1
 81 -119 l 1,10,11
 89 -123 89 -123 102 -126.5 c 128,-1,12
 115 -130 115 -130 134 -130 c 0,13,14
 151 -130 151 -130 162 -124.5 c 128,-1,15
 173 -119 173 -119 173 -105 c 0,16,17
 173 -93 173 -93 165 -87 c 128,-1,18
 157 -81 157 -81 138 -72 c 2,19,-1
 132 -69 l 1,20,21
 138 -58 138 -58 149 -41.5 c 128,-1,22
 160 -25 160 -25 170 -11 c 1,23,24
 116 -7 116 -7 82.5 5 c 128,-1,25
 49 17 49 17 38 25 c 1,26,-1
 74 101 l 1,27,28
 81 97 81 97 93.5 91 c 128,-1,29
 106 85 106 85 123.5 79 c 128,-1,30
 141 73 141 73 162 69 c 128,-1,31
 183 65 183 65 206 65 c 0,32,33
 227 65 227 65 248.5 69 c 128,-1,34
 270 73 270 73 286.5 82 c 128,-1,35
 303 91 303 91 313.5 106.5 c 128,-1,36
 324 122 324 122 324 145 c 0,37,38
 324 160 324 160 319 171.5 c 128,-1,39
 314 183 314 183 303 193 c 128,-1,40
 292 203 292 203 275.5 212.5 c 128,-1,41
 259 222 259 222 236 234 c 0,42,43
 213 245 213 245 194 256 c 128,-1,44
 175 267 175 267 160.5 282 c 128,-1,45
 146 297 146 297 138 317.5 c 128,-1,46
 130 338 130 338 130 367 c 0,47,48
 130 442 130 442 184 487.5 c 128,-1,49
 238 533 238 533 341 533 c 0,50,51
 389 533 389 533 425.5 523.5 c 128,-1,52
 462 514 462 514 476 506 c 1,53,-1
 441 430 l 1,54,55
 427 438 427 438 396 447 c 128,-1,56
 365 456 365 456 327 456 c 0,57,58
 308 456 308 456 289 452 c 128,-1,59
 270 448 270 448 254.5 438.5 c 128,-1,60
 239 429 239 429 229.5 413.5 c 128,-1,61
 220 398 220 398 220 376 c 0,62,63
 220 349 220 349 241 331.5 c 128,-1,64
 262 314 262 314 304 295 c 0,65,66
 330 283 330 283 350.5 270.5 c 128,-1,67
 371 258 371 258 385.5 242.5 c 128,-1,68
 400 227 400 227 407.5 206 c 128,-1,69
 415 185 415 185 415 156 c 0,70,71
 415 118 415 118 401.5 88 c 128,-1,72
 388 58 388 58 364 37 c 128,-1,73
 340 16 340 16 306.5 3.5 c 128,-1,74
 273 -9 273 -9 233 -12 c 1,75,76
 222 -26 222 -26 215 -38 c 1,0,1
EndSplineSet
Substitution2: "'case' Case-Sensitive Forms lookup 19 subtable" Scedilla
EndChar

StartChar: uni0162
Encoding: 354 354 316
Width: 555
Flags: W
LayerCount: 2
Fore
SplineSet
699 693 m 1,0,-1
 680 612 l 1,1,-1
 471 612 l 1,2,-1
 324 0 l 1,3,-1
 313 0 l 1,4,5
 305 -10 305 -10 298 -20 c 128,-1,6
 291 -30 291 -30 286 -38 c 1,7,8
 306 -49 306 -49 316 -62 c 128,-1,9
 326 -75 326 -75 326 -98 c 0,10,11
 326 -143 326 -143 295 -166 c 128,-1,12
 264 -189 264 -189 210 -189 c 0,13,14
 181 -189 181 -189 161.5 -184.5 c 128,-1,15
 142 -180 142 -180 129 -174 c 1,16,-1
 152 -119 l 1,17,18
 160 -123 160 -123 173 -126.5 c 128,-1,19
 186 -130 186 -130 205 -130 c 0,20,21
 222 -130 222 -130 233 -124.5 c 128,-1,22
 244 -119 244 -119 244 -105 c 0,23,24
 244 -93 244 -93 236 -87 c 128,-1,25
 228 -81 228 -81 209 -72 c 2,26,-1
 203 -69 l 1,27,28
 211 -55 211 -55 224.5 -35 c 128,-1,29
 238 -15 238 -15 249 0 c 1,30,-1
 227 0 l 1,31,-1
 374 612 l 1,32,-1
 165 612 l 1,33,-1
 184 693 l 1,34,-1
 699 693 l 1,0,-1
EndSplineSet
EndChar

StartChar: uni0163
Encoding: 355 355 317
Width: 389
Flags: W
LayerCount: 2
Fore
SplineSet
273 -13 m 1,0,1
 268 -20 268 -20 264 -26 c 128,-1,2
 260 -32 260 -32 256 -38 c 1,3,4
 276 -49 276 -49 286 -62 c 128,-1,5
 296 -75 296 -75 296 -98 c 0,6,7
 296 -143 296 -143 265 -166 c 128,-1,8
 234 -189 234 -189 180 -189 c 0,9,10
 151 -189 151 -189 131.5 -184.5 c 128,-1,11
 112 -180 112 -180 99 -174 c 1,12,-1
 122 -119 l 1,13,14
 130 -123 130 -123 143 -126.5 c 128,-1,15
 156 -130 156 -130 175 -130 c 0,16,17
 192 -130 192 -130 203 -124.5 c 128,-1,18
 214 -119 214 -119 214 -105 c 0,19,20
 214 -93 214 -93 206 -87 c 128,-1,21
 198 -81 198 -81 179 -72 c 2,22,-1
 173 -69 l 1,23,24
 179 -57 179 -57 189.5 -40.5 c 128,-1,25
 200 -24 200 -24 211 -10 c 1,26,27
 109 6 109 6 109 115 c 0,28,29
 109 156 109 156 123 220 c 1,30,-1
 230 665 l 1,31,-1
 327 681 l 1,32,-1
 288 520 l 1,33,-1
 465 520 l 1,34,-1
 446 442 l 1,35,-1
 269 442 l 1,36,-1
 214 212 l 2,37,38
 202 165 202 165 202 130 c 0,39,40
 202 97 202 97 220 82.5 c 128,-1,41
 238 68 238 68 280 68 c 0,42,43
 309 68 309 68 337 77.5 c 128,-1,44
 365 87 365 87 380 95 c 1,45,-1
 387 16 l 1,46,47
 373 8 373 8 342.5 -1.5 c 128,-1,48
 312 -11 312 -11 273 -13 c 1,0,1
EndSplineSet
Substitution2: "'case' Case-Sensitive Forms lookup 19 subtable" uni0162
EndChar

StartChar: Tbar
Encoding: 358 358 320
Width: 555
Flags: W
LayerCount: 2
Fore
SplineSet
699 693 m 1,0,-1
 680 612 l 1,1,-1
 471 612 l 1,2,-1
 418 393 l 1,3,-1
 544 393 l 1,4,-1
 526 318 l 1,5,-1
 400 318 l 1,6,-1
 324 0 l 1,7,-1
 227 0 l 1,8,-1
 303 318 l 1,9,-1
 180 318 l 1,10,-1
 198 393 l 1,11,-1
 321 393 l 1,12,-1
 374 612 l 1,13,-1
 165 612 l 1,14,-1
 184 693 l 1,15,-1
 699 693 l 1,0,-1
EndSplineSet
EndChar

StartChar: tbar
Encoding: 359 359 321
Width: 389
Flags: W
LayerCount: 2
Fore
SplineSet
254 -14 m 0,0,1
 179 -14 179 -14 144 19 c 128,-1,2
 109 52 109 52 109 115 c 0,3,4
 109 156 109 156 123 220 c 1,5,-1
 230 665 l 1,6,-1
 327 681 l 1,7,-1
 288 520 l 1,8,-1
 465 520 l 1,9,-1
 446 442 l 1,10,-1
 269 442 l 1,11,-1
 236 306 l 1,12,-1
 413 306 l 1,13,-1
 396 236 l 1,14,-1
 220 236 l 1,15,-1
 214 212 l 2,16,17
 202 165 202 165 202 130 c 0,18,19
 202 97 202 97 220 82.5 c 128,-1,20
 238 68 238 68 280 68 c 0,21,22
 309 68 309 68 337 77.5 c 128,-1,23
 365 87 365 87 380 95 c 1,24,-1
 387 16 l 1,25,26
 372 7 372 7 336 -3.5 c 128,-1,27
 300 -14 300 -14 254 -14 c 0,0,1
EndSplineSet
Substitution2: "'case' Case-Sensitive Forms lookup 19 subtable" Tbar
EndChar

StartChar: Uogonek
Encoding: 370 370 332
Width: 666
Flags: W
LayerCount: 2
Fore
SplineSet
381 -187 m 0,0,1
 326 -187 326 -187 304 -169.5 c 128,-1,2
 282 -152 282 -152 282 -124 c 0,3,4
 282 -97 282 -97 300 -72 c 128,-1,5
 318 -47 318 -47 342 -27 c 0,6,7
 346 -24 346 -24 351.5 -19.5 c 128,-1,8
 357 -15 357 -15 361 -13 c 1,9,10
 355 -14 355 -14 347.5 -14 c 128,-1,11
 340 -14 340 -14 334 -14 c 0,12,13
 282 -14 282 -14 244 1 c 128,-1,14
 206 16 206 16 181 43 c 128,-1,15
 156 70 156 70 144 106 c 128,-1,16
 132 142 132 142 132 184 c 0,17,18
 132 206 132 206 136 233 c 128,-1,19
 140 260 140 260 145 283 c 2,20,-1
 243 693 l 1,21,-1
 340 693 l 1,22,-1
 240 277 l 2,23,24
 235 258 235 258 232 235 c 128,-1,25
 229 212 229 212 229 192 c 0,26,27
 229 166 229 166 235 144 c 128,-1,28
 241 122 241 122 255.5 105.5 c 128,-1,29
 270 89 270 89 293 79.5 c 128,-1,30
 316 70 316 70 349 70 c 0,31,32
 434 70 434 70 481 117.5 c 128,-1,33
 528 165 528 165 552 269 c 2,34,-1
 654 693 l 1,35,-1
 751 693 l 1,36,-1
 647 258 l 2,37,38
 637 217 637 217 625 180 c 128,-1,39
 613 143 613 143 595.5 111.5 c 128,-1,40
 578 80 578 80 553 55.5 c 128,-1,41
 528 31 528 31 492 14 c 0,42,43
 474 6 474 6 454 -8.5 c 128,-1,44
 434 -23 434 -23 416 -38 c 0,45,46
 403 -49 403 -49 386.5 -65.5 c 128,-1,47
 370 -82 370 -82 370 -101 c 0,48,49
 370 -111 370 -111 378.5 -117 c 128,-1,50
 387 -123 387 -123 407 -123 c 0,51,52
 417 -123 417 -123 427.5 -121 c 128,-1,53
 438 -119 438 -119 447 -116 c 1,54,-1
 439 -176 l 1,55,56
 415 -187 415 -187 381 -187 c 0,0,1
EndSplineSet
EndChar

StartChar: uogonek
Encoding: 371 371 333
Width: 550
Flags: W
LayerCount: 2
Fore
SplineSet
503 103 m 256,0,1
 503 80 503 80 507 56 c 128,-1,2
 511 32 511 32 524 0 c 1,3,4
 512 -9 512 -9 502 -17.5 c 128,-1,5
 492 -26 492 -26 480 -36 c 0,6,7
 474 -41 474 -41 466 -48 c 128,-1,8
 458 -55 458 -55 450.5 -63.5 c 128,-1,9
 443 -72 443 -72 438 -81.5 c 128,-1,10
 433 -91 433 -91 433 -101 c 256,11,12
 433 -111 433 -111 441.5 -117 c 128,-1,13
 450 -123 450 -123 470 -123 c 0,14,15
 480 -123 480 -123 490.5 -121 c 128,-1,16
 501 -119 501 -119 510 -116 c 1,17,-1
 502 -176 l 1,18,19
 478 -187 478 -187 444 -187 c 0,20,21
 389 -187 389 -187 367 -169.5 c 128,-1,22
 345 -152 345 -152 345 -124 c 0,23,24
 345 -97 345 -97 363 -72 c 128,-1,25
 381 -47 381 -47 405 -27 c 0,26,27
 413 -20 413 -20 422 -13.5 c 128,-1,28
 431 -7 431 -7 438 -2 c 1,29,30
 427 22 427 22 421 49 c 1,31,32
 410 39 410 39 395 28 c 128,-1,33
 380 17 380 17 360.5 8 c 128,-1,34
 341 -1 341 -1 317.5 -7 c 128,-1,35
 294 -13 294 -13 266 -13 c 0,36,37
 222 -13 222 -13 192.5 0 c 128,-1,38
 163 13 163 13 144.5 35 c 128,-1,39
 126 57 126 57 118 87 c 128,-1,40
 110 117 110 117 110 151 c 0,41,42
 110 177 110 177 114.5 202.5 c 128,-1,43
 119 228 119 228 125 254 c 2,44,-1
 189 520 l 1,45,-1
 282 520 l 1,46,-1
 223 274 l 2,47,48
 218 251 218 251 210 220 c 128,-1,49
 202 189 202 189 202 158 c 0,50,51
 202 140 202 140 205.5 123.5 c 128,-1,52
 209 107 209 107 218.5 94.5 c 128,-1,53
 228 82 228 82 244 74.5 c 128,-1,54
 260 67 260 67 284 67 c 0,55,56
 327 67 327 67 359.5 85.5 c 128,-1,57
 392 104 392 104 414 129 c 1,58,59
 415 145 415 145 417 162 c 128,-1,60
 419 179 419 179 424 199 c 2,61,-1
 501 520 l 1,62,-1
 594 520 l 1,63,-1
 515 191 l 2,64,65
 510 168 510 168 506.5 147 c 128,-1,66
 503 126 503 126 503 103 c 256,0,1
EndSplineSet
Substitution2: "'case' Case-Sensitive Forms lookup 19 subtable" Uogonek
EndChar

StartChar: longs
Encoding: 383 383 344
Width: 285
Flags: W
LayerCount: 2
Fore
SplineSet
212 567 m 2,0,1
 224 617 224 617 242.5 656 c 128,-1,2
 261 695 261 695 289.5 721.5 c 128,-1,3
 318 748 318 748 357 762 c 128,-1,4
 396 776 396 776 450 776 c 0,5,6
 485 776 485 776 516.5 769 c 128,-1,7
 548 762 548 762 564 754 c 1,8,-1
 527 680 l 1,9,10
 519 684 519 684 499.5 690 c 128,-1,11
 480 696 480 696 442 696 c 0,12,13
 409 696 409 696 386 686.5 c 128,-1,14
 363 677 363 677 347 660 c 128,-1,15
 331 643 331 643 321.5 619 c 128,-1,16
 312 595 312 595 305 565 c 2,17,-1
 196 112 l 2,18,19
 184 61 184 61 175 21 c 128,-1,20
 166 -19 166 -19 153.5 -54 c 128,-1,21
 141 -89 141 -89 120.5 -121.5 c 128,-1,22
 100 -154 100 -154 65 -189 c 1,23,-1
 -17 -177 l 1,24,25
 13 -138 13 -138 30 -111 c 128,-1,26
 47 -84 47 -84 58.5 -56 c 128,-1,27
 70 -28 70 -28 78.5 8.5 c 128,-1,28
 87 45 87 45 101 103 c 2,29,-1
 212 567 l 2,0,1
EndSplineSet
Substitution2: "'case' Case-Sensitive Forms lookup 18 subtable" S
EndChar

StartChar: dotlessj
Encoding: 567 567 349
Width: 249
Flags: W
LayerCount: 2
Fore
SplineSet
174 20 m 2,0,1
 160 -36 160 -36 143.5 -75.5 c 128,-1,2
 127 -115 127 -115 102.5 -140 c 128,-1,3
 78 -165 78 -165 44 -176.5 c 128,-1,4
 10 -188 10 -188 -39 -188 c 0,5,6
 -56 -188 -56 -188 -77.5 -183 c 128,-1,7
 -99 -178 -99 -178 -111 -170 c 1,8,-1
 -90 -93 l 1,9,10
 -79 -100 -79 -100 -62 -104 c 128,-1,11
 -45 -108 -45 -108 -25 -108 c 0,12,13
 20 -108 20 -108 43.5 -73 c 128,-1,14
 67 -38 67 -38 81 19 c 2,15,-1
 201 520 l 1,16,-1
 294 520 l 1,17,-1
 174 20 l 2,0,1
EndSplineSet
Substitution2: "'case' Case-Sensitive Forms lookup 18 subtable" J
EndChar

StartChar: apostrophe
Encoding: 700 700 350
Width: 378
Flags: W
LayerCount: 2
Fore
SplineSet
432 776 m 1,0,1
 418 713 418 713 388 660 c 128,-1,2
 358 607 358 607 324 573 c 1,3,-1
 265 595 l 1,4,5
 295 643 295 643 312 685.5 c 128,-1,6
 329 728 329 728 336 776 c 1,7,-1
 432 776 l 1,0,1
EndSplineSet
EndChar

StartChar: caron
Encoding: 711 711 351
Width: 376
Flags: W
LayerCount: 2
Fore
SplineSet
346 687 m 1,0,-1
 458 769 l 1,1,-1
 491 724 l 1,2,-1
 329 585 l 1,3,-1
 223 733 l 1,4,-1
 267 774 l 1,5,-1
 346 687 l 1,0,-1
EndSplineSet
EndChar

StartChar: breve
Encoding: 728 728 353
Width: 376
Flags: W
LayerCount: 2
Fore
SplineSet
347 610 m 0,0,1
 317 610 317 610 295 619 c 128,-1,2
 273 628 273 628 259.5 643 c 128,-1,3
 246 658 246 658 239.5 677.5 c 128,-1,4
 233 697 233 697 233 718 c 0,5,6
 233 734 233 734 236 749 c 1,7,-1
 294 749 l 1,8,9
 293 746 293 746 293 737 c 0,10,11
 293 708 293 708 309 691.5 c 128,-1,12
 325 675 325 675 355 675 c 0,13,14
 376 675 376 675 391 682.5 c 128,-1,15
 406 690 406 690 416 701 c 128,-1,16
 426 712 426 712 431.5 725 c 128,-1,17
 437 738 437 738 440 749 c 1,18,-1
 502 749 l 1,19,20
 493 683 493 683 452 646.5 c 128,-1,21
 411 610 411 610 347 610 c 0,0,1
EndSplineSet
EndChar

StartChar: dotaccent
Encoding: 729 729 354
Width: 376
Flags: W
LayerCount: 2
Fore
SplineSet
321 614 m 0,0,1
 298 614 298 614 282.5 628 c 128,-1,2
 267 642 267 642 267 667 c 0,3,4
 267 699 267 699 287 717.5 c 128,-1,5
 307 736 307 736 332 736 c 0,6,7
 355 736 355 736 371 721.5 c 128,-1,8
 387 707 387 707 387 681 c 0,9,10
 387 651 387 651 366 632.5 c 128,-1,11
 345 614 345 614 321 614 c 0,0,1
EndSplineSet
EndChar

StartChar: ring
Encoding: 730 730 355
Width: 376
Flags: W
LayerCount: 2
Fore
SplineSet
432 677 m 256,0,1
 432 653 432 653 423.5 634.5 c 128,-1,2
 415 616 415 616 401 602.5 c 128,-1,3
 387 589 387 589 368.5 582 c 128,-1,4
 350 575 350 575 329 575 c 256,5,6
 308 575 308 575 289.5 582 c 128,-1,7
 271 589 271 589 257 602.5 c 128,-1,8
 243 616 243 616 234.5 634.5 c 128,-1,9
 226 653 226 653 226 677 c 256,10,11
 226 701 226 701 234.5 719.5 c 128,-1,12
 243 738 243 738 257 751.5 c 128,-1,13
 271 765 271 765 289.5 772 c 128,-1,14
 308 779 308 779 329 779 c 256,15,16
 350 779 350 779 368.5 772 c 128,-1,17
 387 765 387 765 401 751.5 c 128,-1,18
 415 738 415 738 423.5 719.5 c 128,-1,19
 432 701 432 701 432 677 c 256,0,1
382 677 m 256,20,21
 382 703 382 703 366.5 717.5 c 128,-1,22
 351 732 351 732 329 732 c 256,23,24
 307 732 307 732 291.5 717.5 c 128,-1,25
 276 703 276 703 276 677 c 256,26,27
 276 651 276 651 291.5 636.5 c 128,-1,28
 307 622 307 622 329 622 c 256,29,30
 351 622 351 622 366.5 636.5 c 128,-1,31
 382 651 382 651 382 677 c 256,20,21
EndSplineSet
EndChar

StartChar: ogonek
Encoding: 731 731 356
Width: 376
Flags: W
LayerCount: 2
Fore
SplineSet
146 -187 m 0,0,1
 91 -187 91 -187 69 -169.5 c 128,-1,2
 47 -152 47 -152 47 -124 c 0,3,4
 47 -97 47 -97 65 -72 c 128,-1,5
 83 -47 83 -47 107 -27 c 0,6,7
 122 -14 122 -14 134 -5.5 c 128,-1,8
 146 3 146 3 154 8 c 1,9,-1
 246 8 l 1,10,11
 233 0 233 0 216.5 -11.5 c 128,-1,12
 200 -23 200 -23 181 -39 c 0,13,14
 175 -44 175 -44 167 -50.5 c 128,-1,15
 159 -57 159 -57 152 -65 c 128,-1,16
 145 -73 145 -73 140 -82 c 128,-1,17
 135 -91 135 -91 135 -101 c 256,18,19
 135 -111 135 -111 143.5 -117 c 128,-1,20
 152 -123 152 -123 172 -123 c 0,21,22
 182 -123 182 -123 192.5 -121 c 128,-1,23
 203 -119 203 -119 212 -116 c 1,24,-1
 204 -176 l 1,25,26
 180 -187 180 -187 146 -187 c 0,0,1
EndSplineSet
EndChar

StartChar: hungarumlaut
Encoding: 733 733 357
Width: 376
Flags: W
LayerCount: 2
Fore
SplineSet
378 711 m 1,0,-1
 227 582 l 1,1,-1
 188 627 l 1,2,-1
 327 776 l 1,3,-1
 378 711 l 1,0,-1
546 709 m 1,4,-1
 395 582 l 1,5,-1
 356 625 l 1,6,-1
 495 774 l 1,7,-1
 546 709 l 1,4,-1
EndSplineSet
EndChar

StartChar: fraction
Encoding: 8260 8260 366
Width: 148
Flags: W
LayerCount: 2
Fore
SplineSet
-72 0 m 1,0,-1
 -167 0 l 1,1,-1
 382 693 l 1,2,-1
 477 693 l 1,3,-1
 -72 0 l 1,0,-1
EndSplineSet
EndChar

StartChar: zerosuperior
Encoding: 8304 8304 367
Width: 359
Flags: W
LayerCount: 2
Fore
SplineSet
265 307 m 0,0,1
 208 307 208 307 175 339 c 128,-1,2
 142 371 142 371 142 440 c 0,3,4
 142 481 142 481 153.5 528 c 128,-1,5
 165 575 165 575 188.5 615.5 c 128,-1,6
 212 656 212 656 248.5 682.5 c 128,-1,7
 285 709 285 709 336 709 c 0,8,9
 393 709 393 709 426 677 c 128,-1,10
 459 645 459 645 459 576 c 0,11,12
 459 535 459 535 447.5 488 c 128,-1,13
 436 441 436 441 412.5 400.5 c 128,-1,14
 389 360 389 360 352.5 333.5 c 128,-1,15
 316 307 316 307 265 307 c 0,0,1
267 368 m 0,16,17
 299 368 299 368 322 390.5 c 128,-1,18
 345 413 345 413 359.5 445 c 128,-1,19
 374 477 374 477 381 512.5 c 128,-1,20
 388 548 388 548 388 574 c 0,21,22
 388 608 388 608 376.5 628 c 128,-1,23
 365 648 365 648 334 648 c 0,24,25
 302 648 302 648 279 625.5 c 128,-1,26
 256 603 256 603 241.5 571 c 128,-1,27
 227 539 227 539 220 503.5 c 128,-1,28
 213 468 213 468 213 442 c 0,29,30
 213 408 213 408 224.5 388 c 128,-1,31
 236 368 236 368 267 368 c 0,16,17
EndSplineSet
Substitution2: "Single Substitution lookup 26 subtable" zeroinferior
Substitution2: "'sinf' Scientific Inferiors lookup 13 subtable" zero.sinf
Substitution2: "'subs' Subscript lookup 12 subtable" zero.sinf
Substitution2: "'sups' Superscript lookup 11 subtable" zero.sups
Substitution2: "'dnom' Denominators lookup 10 subtable" zeroinferior
EndChar

StartChar: foursuperior
Encoding: 8308 8308 368
Width: 359
Flags: W
LayerCount: 2
Fore
SplineSet
446 464 m 1,0,-1
 432 408 l 1,1,-1
 382 408 l 1,2,-1
 360 315 l 1,3,-1
 292 315 l 1,4,-1
 314 408 l 1,5,-1
 129 408 l 1,6,-1
 140 454 l 1,7,8
 156 481 156 481 183.5 513.5 c 128,-1,9
 211 546 211 546 245 580 c 128,-1,10
 279 614 279 614 316 645.5 c 128,-1,11
 353 677 353 677 388 701 c 1,12,-1
 453 701 l 1,13,-1
 396 464 l 1,14,-1
 446 464 l 1,0,-1
328 464 m 1,15,-1
 366 622 l 1,16,17
 347 606 347 606 325.5 587 c 128,-1,18
 304 568 304 568 283 547 c 128,-1,19
 262 526 262 526 243 505 c 128,-1,20
 224 484 224 484 210 464 c 1,21,-1
 328 464 l 1,15,-1
EndSplineSet
Substitution2: "Single Substitution lookup 26 subtable" fourinferior
Substitution2: "'sinf' Scientific Inferiors lookup 13 subtable" four.sinf
Substitution2: "'subs' Subscript lookup 12 subtable" four.sinf
Substitution2: "'sups' Superscript lookup 11 subtable" four.sups
Substitution2: "'dnom' Denominators lookup 10 subtable" fourinferior
EndChar

StartChar: fivesuperior
Encoding: 8309 8309 369
Width: 359
Flags: W
LayerCount: 2
Fore
SplineSet
273 555 m 1,0,1
 314 550 314 550 342 541.5 c 128,-1,2
 370 533 370 533 387.5 519.5 c 128,-1,3
 405 506 405 506 412.5 486.5 c 128,-1,4
 420 467 420 467 420 442 c 0,5,6
 420 376 420 376 369.5 341.5 c 128,-1,7
 319 307 319 307 238 307 c 0,8,9
 198 307 198 307 169.5 315 c 128,-1,10
 141 323 141 323 121 334 c 1,11,-1
 148 390 l 1,12,13
 165 382 165 382 189.5 375 c 128,-1,14
 214 368 214 368 240 368 c 0,15,16
 262 368 262 368 282 371 c 128,-1,17
 302 374 302 374 317 382 c 128,-1,18
 332 390 332 390 340.5 403.5 c 128,-1,19
 349 417 349 417 349 438 c 0,20,21
 349 470 349 470 314.5 486.5 c 128,-1,22
 280 503 280 503 190 507 c 1,23,24
 207 553 207 553 223.5 603 c 128,-1,25
 240 653 240 653 254 701 c 1,26,-1
 470 701 l 1,27,-1
 455 639 l 1,28,-1
 302 639 l 1,29,30
 296 621 296 621 288.5 596.5 c 128,-1,31
 281 572 281 572 273 555 c 1,0,1
EndSplineSet
Substitution2: "Single Substitution lookup 26 subtable" fiveinferior
Substitution2: "'sinf' Scientific Inferiors lookup 13 subtable" five.sinf
Substitution2: "'subs' Subscript lookup 12 subtable" five.sinf
Substitution2: "'sups' Superscript lookup 11 subtable" five.sups
Substitution2: "'dnom' Denominators lookup 10 subtable" fiveinferior
EndChar

StartChar: sixsuperior
Encoding: 8310 8310 370
Width: 359
Flags: W
LayerCount: 2
Fore
SplineSet
149 428 m 0,0,1
 149 492 149 492 172.5 543 c 128,-1,2
 196 594 196 594 237.5 629.5 c 128,-1,3
 279 665 279 665 337 684 c 128,-1,4
 395 703 395 703 464 703 c 1,5,-1
 458 643 l 1,6,7
 425 642 425 642 392 636.5 c 128,-1,8
 359 631 359 631 330.5 619 c 128,-1,9
 302 607 302 607 279.5 588 c 128,-1,10
 257 569 257 569 244 542 c 1,11,12
 265 551 265 551 287 555 c 128,-1,13
 309 559 309 559 325 559 c 0,14,15
 356 559 356 559 376.5 551 c 128,-1,16
 397 543 397 543 409.5 528.5 c 128,-1,17
 422 514 422 514 427.5 495.5 c 128,-1,18
 433 477 433 477 433 456 c 0,19,20
 433 427 433 427 422 400 c 128,-1,21
 411 373 411 373 390 352.5 c 128,-1,22
 369 332 369 332 338.5 319.5 c 128,-1,23
 308 307 308 307 270 307 c 0,24,25
 210 307 210 307 179.5 342 c 128,-1,26
 149 377 149 377 149 428 c 0,0,1
305 503 m 0,27,28
 285 503 285 503 261.5 498.5 c 128,-1,29
 238 494 238 494 223 487 c 1,30,31
 215 460 215 460 215 442 c 0,32,33
 215 403 215 403 229.5 384 c 128,-1,34
 244 365 244 365 277 365 c 0,35,36
 320 365 320 365 342 391.5 c 128,-1,37
 364 418 364 418 364 451 c 0,38,39
 364 503 364 503 305 503 c 0,27,28
EndSplineSet
Substitution2: "Single Substitution lookup 26 subtable" sixinferior
Substitution2: "'sinf' Scientific Inferiors lookup 13 subtable" six.sinf
Substitution2: "'subs' Subscript lookup 12 subtable" six.sinf
Substitution2: "'sups' Superscript lookup 11 subtable" six.sups
Substitution2: "'dnom' Denominators lookup 10 subtable" sixinferior
EndChar

StartChar: sevensuperior
Encoding: 8311 8311 371
Width: 359
Flags: W
LayerCount: 2
Fore
SplineSet
168 315 m 1,0,1
 182 357 182 357 206 402.5 c 128,-1,2
 230 448 230 448 259.5 491.5 c 128,-1,3
 289 535 289 535 322 572.5 c 128,-1,4
 355 610 355 610 388 637 c 1,5,-1
 189 637 l 1,6,-1
 205 701 l 1,7,-1
 491 701 l 1,8,-1
 478 646 l 1,9,10
 452 625 452 625 419 589.5 c 128,-1,11
 386 554 386 554 353 509.5 c 128,-1,12
 320 465 320 465 291.5 415 c 128,-1,13
 263 365 263 365 247 315 c 1,14,-1
 168 315 l 1,0,1
EndSplineSet
Substitution2: "Single Substitution lookup 26 subtable" seveninferior
Substitution2: "'sinf' Scientific Inferiors lookup 13 subtable" seven.sinf
Substitution2: "'subs' Subscript lookup 12 subtable" seven.sinf
Substitution2: "'sups' Superscript lookup 11 subtable" seven.sups
Substitution2: "'dnom' Denominators lookup 10 subtable" seveninferior
EndChar

StartChar: eightsuperior
Encoding: 8312 8312 372
Width: 359
Flags: W
LayerCount: 2
Fore
SplineSet
257 307 m 0,0,1
 223 307 223 307 200 315 c 128,-1,2
 177 323 177 323 162.5 336 c 128,-1,3
 148 349 148 349 142 365 c 128,-1,4
 136 381 136 381 136 397 c 0,5,6
 136 441 136 441 162.5 470 c 128,-1,7
 189 499 189 499 223 517 c 1,8,9
 209 528 209 528 199 543.5 c 128,-1,10
 189 559 189 559 189 588 c 0,11,12
 189 615 189 615 200.5 637 c 128,-1,13
 212 659 212 659 232 675 c 128,-1,14
 252 691 252 691 279 700 c 128,-1,15
 306 709 306 709 338 709 c 0,16,17
 371 709 371 709 393 701 c 128,-1,18
 415 693 415 693 428.5 680 c 128,-1,19
 442 667 442 667 448 651.5 c 128,-1,20
 454 636 454 636 454 620 c 0,21,22
 454 599 454 599 447 582.5 c 128,-1,23
 440 566 440 566 429 552.5 c 128,-1,24
 418 539 418 539 404 529 c 128,-1,25
 390 519 390 519 376 511 c 1,26,27
 396 500 396 500 408 481.5 c 128,-1,28
 420 463 420 463 420 437 c 0,29,30
 420 405 420 405 407 381 c 128,-1,31
 394 357 394 357 371.5 340.5 c 128,-1,32
 349 324 349 324 319.5 315.5 c 128,-1,33
 290 307 290 307 257 307 c 0,0,1
204 408 m 0,34,35
 204 393 204 393 215.5 378.5 c 128,-1,36
 227 364 227 364 265 364 c 0,37,38
 300 364 300 364 326 380 c 128,-1,39
 352 396 352 396 352 428 c 0,40,41
 352 451 352 451 329.5 464 c 128,-1,42
 307 477 307 477 265 489 c 1,43,44
 240 477 240 477 222 455.5 c 128,-1,45
 204 434 204 434 204 408 c 0,34,35
388 612 m 0,46,47
 388 625 388 625 376.5 638.5 c 128,-1,48
 365 652 365 652 333 652 c 256,49,50
 301 652 301 652 278 636 c 128,-1,51
 255 620 255 620 255 594 c 0,52,53
 255 576 255 576 269.5 562 c 128,-1,54
 284 548 284 548 326 535 c 1,55,56
 349 547 349 547 368.5 566.5 c 128,-1,57
 388 586 388 586 388 612 c 0,46,47
EndSplineSet
Substitution2: "Single Substitution lookup 26 subtable" eightinferior
Substitution2: "'sinf' Scientific Inferiors lookup 13 subtable" eight.sinf
Substitution2: "'subs' Subscript lookup 12 subtable" eight.sinf
Substitution2: "'sups' Superscript lookup 11 subtable" eight.sups
Substitution2: "'dnom' Denominators lookup 10 subtable" eightinferior
EndChar

StartChar: ninesuperior
Encoding: 8313 8313 373
Width: 359
Flags: W
LayerCount: 2
Fore
SplineSet
455 588 m 0,0,1
 455 525 455 525 433 474 c 128,-1,2
 411 423 411 423 371.5 387.5 c 128,-1,3
 332 352 332 352 278 333 c 128,-1,4
 224 314 224 314 160 314 c 0,5,6
 153 314 153 314 144.5 314.5 c 128,-1,7
 136 315 136 315 132 316 c 1,8,-1
 144 375 l 1,9,10
 147 374 147 374 153 374 c 128,-1,11
 159 374 159 374 161 374 c 0,12,13
 194 374 194 374 224 379.5 c 128,-1,14
 254 385 254 385 280 396.5 c 128,-1,15
 306 408 306 408 326.5 426.5 c 128,-1,16
 347 445 347 445 359 472 c 1,17,18
 339 464 339 464 317 460.5 c 128,-1,19
 295 457 295 457 279 457 c 0,20,21
 247 457 247 457 226.5 465 c 128,-1,22
 206 473 206 473 193.5 487 c 128,-1,23
 181 501 181 501 176 519 c 128,-1,24
 171 537 171 537 171 557 c 0,25,26
 171 587 171 587 182 614.5 c 128,-1,27
 193 642 193 642 214 663 c 128,-1,28
 235 684 235 684 265.5 696.5 c 128,-1,29
 296 709 296 709 334 709 c 0,30,31
 394 709 394 709 424.5 674 c 128,-1,32
 455 639 455 639 455 588 c 0,0,1
299 514 m 0,33,34
 319 514 319 514 341 518 c 128,-1,35
 363 522 363 522 381 529 c 1,36,37
 389 556 389 556 389 574 c 0,38,39
 389 613 389 613 374.5 632 c 128,-1,40
 360 651 360 651 327 651 c 0,41,42
 285 651 285 651 262.5 624 c 128,-1,43
 240 597 240 597 240 560 c 0,44,45
 240 514 240 514 299 514 c 0,33,34
EndSplineSet
Substitution2: "Single Substitution lookup 26 subtable" nineinferior
Substitution2: "'sinf' Scientific Inferiors lookup 13 subtable" nine.sinf
Substitution2: "'subs' Subscript lookup 12 subtable" nine.sinf
Substitution2: "'sups' Superscript lookup 11 subtable" nine.sups
Substitution2: "'dnom' Denominators lookup 10 subtable" nineinferior
EndChar

StartChar: afii61289
Encoding: 8467 8467 384
Width: 450
Flags: W
LayerCount: 2
Fore
SplineSet
178 255 m 1,0,-1
 178 544 l 2,1,2
 178 613 178 613 191.5 658 c 128,-1,3
 205 703 205 703 228 729 c 128,-1,4
 251 755 251 755 280.5 765.5 c 128,-1,5
 310 776 310 776 343 776 c 0,6,7
 385 776 385 776 411.5 760 c 128,-1,8
 438 744 438 744 453 719.5 c 128,-1,9
 468 695 468 695 473 664.5 c 128,-1,10
 478 634 478 634 478 605 c 0,11,12
 478 552 478 552 463 503.5 c 128,-1,13
 448 455 448 455 421 410.5 c 128,-1,14
 394 366 394 366 355.5 324.5 c 128,-1,15
 317 283 317 283 270 244 c 1,16,-1
 270 200 l 2,17,18
 270 131 270 131 293.5 98.5 c 128,-1,19
 317 66 317 66 368 66 c 0,20,21
 400 66 400 66 421.5 78 c 128,-1,22
 443 90 443 90 460 103 c 1,23,-1
 497 34 l 1,24,25
 472 12 472 12 436 -1.5 c 128,-1,26
 400 -15 400 -15 352 -15 c 0,27,28
 302 -15 302 -15 269 0 c 128,-1,29
 236 15 236 15 215.5 40 c 128,-1,30
 195 65 195 65 186.5 98 c 128,-1,31
 178 131 178 131 178 167 c 2,32,-1
 178 175 l 1,33,-1
 112 128 l 1,34,-1
 76 181 l 1,35,-1
 178 255 l 1,0,-1
270 327 m 1,36,37
 333 385 333 385 369.5 453 c 128,-1,38
 406 521 406 521 406 606 c 0,39,40
 406 622 406 622 404 639 c 128,-1,41
 402 656 402 656 395 669.5 c 128,-1,42
 388 683 388 683 376 691.5 c 128,-1,43
 364 700 364 700 345 700 c 0,44,45
 330 700 330 700 316.5 694 c 128,-1,46
 303 688 303 688 292.5 671.5 c 128,-1,47
 282 655 282 655 276 625.5 c 128,-1,48
 270 596 270 596 270 548 c 2,49,-1
 270 327 l 1,36,37
EndSplineSet
EndChar

StartChar: estimated
Encoding: 8494 8494 385
Width: 932
Flags: W
LayerCount: 2
Fore
SplineSet
294 337 m 2,0,1
 289 337 289 337 289 333 c 2,2,-1
 289 136 l 2,3,4
 289 123 289 123 298 114 c 0,5,6
 346 63 346 63 408 35 c 128,-1,7
 470 7 470 7 543 7 c 0,8,9
 622 7 622 7 688 39.5 c 128,-1,10
 754 72 754 72 802 126 c 1,11,-1
 859 126 l 1,12,13
 833 94 833 94 798.5 68.5 c 128,-1,14
 764 43 764 43 723 25 c 128,-1,15
 682 7 682 7 636 -3 c 128,-1,16
 590 -13 590 -13 542 -13 c 0,17,18
 459 -13 459 -13 386 15.5 c 128,-1,19
 313 44 313 44 259 92.5 c 128,-1,20
 205 141 205 141 173.5 206.5 c 128,-1,21
 142 272 142 272 142 347 c 256,22,23
 142 422 142 422 173.5 487.5 c 128,-1,24
 205 553 205 553 259 602 c 128,-1,25
 313 651 313 651 386 679.5 c 128,-1,26
 459 708 459 708 542 708 c 256,27,28
 625 708 625 708 698.5 679.5 c 128,-1,29
 772 651 772 651 826.5 602 c 128,-1,30
 881 553 881 553 912.5 487.5 c 128,-1,31
 944 422 944 422 944 347 c 2,32,-1
 944 337 l 1,33,-1
 294 337 l 2,0,1
796 560 m 2,34,35
 796 573 796 573 787 584 c 1,36,37
 739 632 739 632 677 659 c 128,-1,38
 615 686 615 686 543 686 c 256,39,40
 471 686 471 686 409 657 c 128,-1,41
 347 628 347 628 299 580 c 0,42,43
 294 576 294 576 291.5 569.5 c 128,-1,44
 289 563 289 563 289 556 c 2,45,-1
 289 363 l 2,46,47
 289 356 289 356 294 356 c 2,48,-1
 792 356 l 2,49,50
 796 356 796 356 796 363 c 2,51,-1
 796 560 l 2,34,35
EndSplineSet
EndChar

StartChar: partialdiff
Encoding: 8706 8706 410
Width: 591
Flags: W
LayerCount: 2
Fore
SplineSet
400 499 m 0,0,1
 449 499 449 499 481 485.5 c 128,-1,2
 513 472 513 472 530 458 c 1,3,4
 531 470 531 470 531 482 c 128,-1,5
 531 494 531 494 531 506 c 0,6,7
 531 548 531 548 522.5 583 c 128,-1,8
 514 618 514 618 495 642.5 c 128,-1,9
 476 667 476 667 447 681 c 128,-1,10
 418 695 418 695 376 695 c 0,11,12
 330 695 330 695 299.5 688.5 c 128,-1,13
 269 682 269 682 246 669 c 1,14,-1
 236 745 l 1,15,16
 262 759 262 759 299.5 767.5 c 128,-1,17
 337 776 337 776 391 776 c 0,18,19
 452 776 452 776 496 756 c 128,-1,20
 540 736 540 736 568.5 700.5 c 128,-1,21
 597 665 597 665 610.5 616.5 c 128,-1,22
 624 568 624 568 624 510 c 0,23,24
 624 458 624 458 616.5 399 c 128,-1,25
 609 340 609 340 592.5 281.5 c 128,-1,26
 576 223 576 223 550 170 c 128,-1,27
 524 117 524 117 487 76 c 128,-1,28
 450 35 450 35 400.5 11 c 128,-1,29
 351 -13 351 -13 289 -13 c 0,30,31
 202 -13 202 -13 154 35.5 c 128,-1,32
 106 84 106 84 106 172 c 0,33,34
 106 240 106 240 126 299.5 c 128,-1,35
 146 359 146 359 183.5 403.5 c 128,-1,36
 221 448 221 448 275.5 473.5 c 128,-1,37
 330 499 330 499 400 499 c 0,0,1
293 69 m 0,38,39
 340 69 340 69 377.5 93.5 c 128,-1,40
 415 118 415 118 443.5 159.5 c 128,-1,41
 472 201 472 201 491 256 c 128,-1,42
 510 311 510 311 520 372 c 1,43,44
 496 399 496 399 462.5 409 c 128,-1,45
 429 419 429 419 397 419 c 0,46,47
 346 419 346 419 308.5 397 c 128,-1,48
 271 375 271 375 246.5 340 c 128,-1,49
 222 305 222 305 210.5 261 c 128,-1,50
 199 217 199 217 199 174 c 0,51,52
 199 120 199 120 225 94.5 c 128,-1,53
 251 69 251 69 293 69 c 0,38,39
EndSplineSet
EndChar

StartChar: product
Encoding: 8719 8719 412
Width: 674
Flags: W
LayerCount: 2
Fore
SplineSet
756 693 m 1,0,-1
 563 -109 l 1,1,-1
 466 -109 l 1,2,-1
 639 612 l 1,3,-1
 325 612 l 1,4,-1
 152 -109 l 1,5,-1
 55 -109 l 1,6,-1
 247 693 l 1,7,-1
 756 693 l 1,0,-1
EndSplineSet
EndChar

StartChar: summation
Encoding: 8721 8721 413
Width: 509
Flags: W
LayerCount: 2
Fore
SplineSet
425 302 m 1,0,1
 347 221 347 221 272 140.5 c 128,-1,2
 197 60 197 60 125 -28 c 1,3,-1
 480 -28 l 1,4,-1
 461 -109 l 1,5,-1
 -7 -109 l 1,6,-1
 9 -41 l 1,7,8
 76 46 76 46 159.5 138 c 128,-1,9
 243 230 243 230 324 315 c 1,10,11
 298 364 298 364 274.5 413 c 128,-1,12
 251 462 251 462 231.5 505.5 c 128,-1,13
 212 549 212 549 198 583.5 c 128,-1,14
 184 618 184 618 177 637 c 1,15,-1
 190 693 l 1,16,-1
 653 693 l 1,17,-1
 634 612 l 1,18,-1
 286 612 l 1,19,20
 299 577 299 577 314 542 c 128,-1,21
 329 507 329 507 346 469.5 c 128,-1,22
 363 432 363 432 382.5 391 c 128,-1,23
 402 350 402 350 425 302 c 1,0,1
EndSplineSet
EndChar

StartChar: minus
Encoding: 8722 8722 415
Width: 564
Flags: W
LayerCount: 2
Fore
SplineSet
587 337 m 1,0,-1
 568 258 l 1,1,-1
 119 258 l 1,2,-1
 138 337 l 1,3,-1
 587 337 l 1,0,-1
EndSplineSet
EndChar

StartChar: radical
Encoding: 8730 8730 418
Width: 564
Flags: W
LayerCount: 2
Fore
SplineSet
264 396 m 1,0,1
 273 358 273 358 280.5 322.5 c 128,-1,2
 288 287 288 287 294.5 251.5 c 128,-1,3
 301 216 301 216 306.5 179 c 128,-1,4
 312 142 312 142 318 102 c 1,5,-1
 676 783 l 1,6,-1
 763 783 l 1,7,-1
 338 -15 l 1,8,-1
 253 -15 l 1,9,10
 247 27 247 27 240.5 71 c 128,-1,11
 234 115 234 115 226.5 157 c 128,-1,12
 219 199 219 199 211.5 238 c 128,-1,13
 204 277 204 277 196 309 c 1,14,-1
 103 281 l 1,15,-1
 95 346 l 1,16,-1
 264 396 l 1,0,1
EndSplineSet
EndChar

